{"glyphs":{"0":{"ha":935,"x_min":54,"x_max":880,"o":"m 879 604 q 870 473 880 543 q 838 336 860 404 q 783 206 817 269 q 702 97 749 144 q 595 24 655 50 q 460 0 534 -3 q 328 31 387 3 q 224 104 269 58 q 146 208 179 149 q 94 332 114 267 q 64 465 73 397 q 56 593 54 532 q 66 732 57 656 q 95 885 75 808 q 147 1034 115 962 q 226 1160 179 1105 q 335 1247 273 1215 q 477 1275 397 1279 q 651 1213 576 1271 q 776 1063 726 1156 q 852 850 826 970 q 879 604 878 731 m 473 1107 q 387 1078 425 1105 q 320 1006 349 1050 q 273 908 292 963 q 242 796 254 853 q 225 686 231 739 q 220 593 220 632 q 224 503 220 552 q 239 406 228 454 q 269 311 250 357 q 316 231 288 266 q 384 176 345 197 q 476 155 423 155 q 587 197 541 155 q 663 304 633 239 q 705 446 692 369 q 719 593 719 524 q 713 702 719 644 q 694 817 707 760 q 663 928 682 875 q 616 1021 643 981 q 553 1084 589 1061 q 473 1107 518 1108 z "},"1":{"ha":270,"x_min":54,"x_max":216,"o":"m 216 91 q 191 22 216 47 q 135 -5 165 -3 q 79 16 104 -7 q 54 91 54 38 l 56 1183 q 81 1259 56 1234 q 136 1284 106 1284 q 191 1259 165 1284 q 216 1185 216 1234 l 216 91 z "},"2":{"ha":842,"x_min":53,"x_max":788,"o":"m 157 3 q 99 20 123 3 q 64 64 75 38 q 55 121 53 90 q 76 178 57 152 q 264 448 184 332 q 399 650 343 564 q 490 798 454 736 q 547 901 526 859 q 578 970 568 943 q 590 1019 587 998 q 574 1090 595 1066 q 530 1114 557 1108 q 472 1114 503 1119 q 385 1084 430 1107 q 301 1034 340 1062 q 230 979 262 1006 q 180 933 198 951 q 125 911 155 906 q 79 941 96 917 q 60 998 61 964 q 87 1058 58 1031 q 165 1127 123 1093 q 255 1190 208 1161 q 355 1242 302 1219 q 464 1274 407 1264 q 609 1270 541 1287 q 722 1206 677 1252 q 771 1124 754 1172 q 784 1016 788 1077 q 758 923 781 979 q 678 771 735 867 q 524 529 621 675 q 277 167 427 382 l 686 170 q 760 144 735 170 q 787 89 785 119 q 762 32 788 58 q 684 5 736 5 q 547 5 612 5 q 420 3 483 4 q 294 3 358 3 q 157 3 229 3 z "},"3":{"ha":834,"x_min":46,"x_max":833,"o":"m 500 690 q 769 256 833 575 q 726 153 758 202 q 646 68 694 104 q 536 13 598 33 q 403 -3 473 -7 q 201 63 289 4 q 64 220 114 122 q 58 283 46 255 q 96 326 71 312 q 150 338 121 340 q 194 311 179 336 q 235 254 212 282 q 285 204 258 227 q 345 168 312 182 q 416 151 378 153 q 477 155 448 148 q 533 178 507 163 q 576 215 559 194 q 601 260 594 236 q 573 463 635 384 q 349 563 511 541 q 299 591 316 567 q 279 644 282 614 q 289 703 277 674 q 326 746 301 732 q 429 822 385 780 q 500 907 473 864 q 536 988 528 949 q 533 1055 545 1027 q 486 1102 519 1086 q 410 1107 453 1118 q 317 1067 366 1097 q 229 996 269 1036 q 176 959 202 967 q 130 957 151 951 q 96 981 110 963 q 79 1021 83 998 q 81 1068 75 1043 q 110 1114 88 1093 q 273 1233 193 1194 q 426 1282 353 1272 q 584 1266 515 1294 q 685 1188 652 1238 q 723 1061 723 1130 q 695 925 723 993 q 616 796 667 857 q 500 690 566 735 z "},"4":{"ha":758,"x_min":56,"x_max":704,"o":"m 216 608 q 148 612 178 608 q 98 630 118 616 q 66 672 77 644 q 56 747 56 700 l 56 1183 q 81 1259 56 1234 q 136 1284 106 1284 q 191 1259 165 1284 q 216 1185 216 1234 l 216 758 l 544 758 l 544 1183 q 569 1259 544 1234 q 624 1284 594 1284 q 679 1259 654 1284 q 704 1185 704 1234 l 704 91 q 679 22 704 47 q 623 -5 654 -3 q 568 16 593 -7 q 543 91 543 38 l 543 608 l 216 608 z "},"5":{"ha":857,"x_min":53,"x_max":803,"o":"m 803 384 q 772 228 803 298 q 689 106 742 157 q 564 26 636 56 q 407 -4 492 -3 q 287 14 345 -5 q 183 71 229 34 q 106 162 137 109 q 64 282 75 216 q 79 329 60 308 q 125 357 99 350 q 177 353 152 365 q 210 302 202 342 q 248 214 221 245 q 304 166 274 182 q 366 147 335 151 q 419 144 397 144 q 489 154 450 144 q 563 189 528 164 q 623 254 598 213 q 652 358 648 296 q 629 506 658 442 q 542 602 600 570 q 399 630 484 635 q 210 572 315 625 q 157 561 183 559 q 111 578 132 563 q 79 623 91 594 q 68 692 68 652 l 56 1122 q 81 1238 53 1198 q 160 1279 110 1279 l 689 1279 q 749 1255 727 1279 q 772 1201 770 1230 q 753 1147 773 1172 q 686 1120 732 1122 q 580 1119 642 1119 q 453 1120 518 1119 q 326 1120 388 1120 q 216 1118 263 1120 q 211 1103 212 1118 q 211 1048 210 1088 q 213 935 212 1008 q 216 746 214 863 q 466 782 357 791 q 650 722 575 773 q 764 584 726 671 q 803 384 803 496 z "},"6":{"ha":887,"x_min":53,"x_max":837,"o":"m 57 623 q 76 779 60 699 q 123 934 92 859 q 197 1076 153 1009 q 298 1188 241 1142 q 393 1243 340 1221 q 500 1272 445 1265 q 608 1267 555 1279 q 708 1223 662 1256 q 749 1163 745 1196 q 738 1105 754 1130 q 690 1072 722 1081 q 624 1081 659 1062 q 511 1106 563 1114 q 406 1057 460 1099 q 323 969 361 1023 q 258 850 285 916 q 218 712 232 785 q 205 564 203 639 q 356 692 278 651 q 511 739 434 734 q 653 721 591 745 q 756 650 715 697 q 817 537 798 604 q 831 391 837 471 q 793 235 827 312 q 700 102 758 159 q 563 18 642 46 q 392 8 484 -9 q 219 88 286 28 q 115 231 152 148 q 65 416 77 315 q 57 623 53 518 m 256 355 q 302 240 270 285 q 378 175 335 195 q 467 158 420 155 q 555 185 514 161 q 629 253 597 209 q 671 358 661 297 q 673 455 682 415 q 641 521 663 495 q 585 557 618 547 q 514 567 552 568 q 434 550 475 566 q 357 507 393 534 q 294 441 321 479 q 256 355 267 403 z "},"7":{"ha":867,"x_min":54,"x_max":812,"o":"m 617 1109 l 125 1105 q 73 1131 91 1105 q 54 1187 54 1156 q 73 1244 54 1218 q 133 1271 92 1271 l 741 1280 q 775 1267 758 1280 q 802 1231 792 1255 q 812 1175 811 1207 q 798 1105 812 1142 l 368 26 q 326 -7 357 -1 q 267 -3 296 -14 q 220 33 237 7 q 217 98 202 60 l 617 1109 z "},"8":{"ha":895,"x_min":50,"x_max":844,"o":"m 841 382 q 807 233 838 301 q 724 115 776 164 q 604 37 673 65 q 456 4 536 8 q 304 26 374 1 q 181 97 235 50 q 95 211 127 144 q 57 361 62 278 q 85 553 50 457 q 206 726 121 650 q 136 835 159 774 q 115 956 113 895 q 140 1075 117 1017 q 208 1177 164 1133 q 314 1249 252 1222 q 454 1276 376 1276 q 590 1251 529 1276 q 695 1184 651 1226 q 764 1086 739 1142 q 789 971 788 1031 q 765 842 792 906 q 678 720 738 777 q 804 566 765 655 q 841 382 844 476 m 667 382 q 652 481 669 435 q 605 562 636 528 q 530 614 574 595 q 433 631 486 633 q 339 606 380 629 q 271 545 298 583 q 231 460 244 507 q 222 362 218 412 q 242 283 227 321 q 287 217 258 245 q 358 172 316 189 q 456 157 400 156 q 546 180 507 160 q 611 231 585 199 q 652 301 637 262 q 667 382 666 340 m 618 966 q 573 1080 617 1038 q 460 1123 529 1122 q 341 1080 389 1124 q 286 966 293 1036 q 292 901 283 933 q 321 842 300 868 q 377 801 343 817 q 460 785 411 785 q 529 801 499 785 q 579 842 559 817 q 610 901 600 868 q 618 966 620 933 z "},"9":{"ha":826,"x_min":52,"x_max":770,"o":"m 770 103 q 745 35 770 60 q 690 7 720 9 q 634 28 659 5 q 609 103 609 50 l 610 500 q 431 453 526 456 q 286 476 355 450 q 163 554 216 502 q 81 684 111 606 q 54 860 52 761 q 87 1019 57 941 q 171 1157 117 1097 q 302 1251 225 1217 q 476 1280 378 1286 q 617 1240 559 1274 q 654 1287 629 1274 q 705 1295 680 1301 q 751 1265 731 1290 q 770 1198 770 1241 l 770 103 m 214 869 q 232 747 212 798 q 288 664 252 696 q 369 620 324 632 q 459 615 414 608 q 545 648 505 623 q 610 718 585 673 l 610 1002 q 557 1078 591 1046 q 475 1122 524 1111 q 376 1118 422 1134 q 295 1065 330 1101 q 239 979 260 1029 q 214 869 217 928 z "},"\u0000":{"ha":0,"x_min":0,"x_max":0,"o":""},"\r":{"ha":347,"x_min":0,"x_max":0,"o":""}," ":{"ha":339,"x_min":0,"x_max":0,"o":""},"!":{"ha":313,"x_min":53,"x_max":259,"o":"m 231 331 q 205 271 231 290 q 151 252 180 251 q 96 274 121 254 q 71 332 71 294 l 71 1208 q 96 1265 71 1248 q 151 1282 121 1283 q 205 1261 180 1280 q 231 1208 231 1242 l 231 331 m 151 -28 q 76 6 99 -27 q 56 78 53 39 q 85 149 58 117 q 160 179 111 180 q 215 163 193 179 q 248 124 237 148 q 259 73 259 100 q 247 24 259 46 q 211 -14 235 1 q 151 -28 187 -30 z "},"\"":{"ha":583,"x_min":47,"x_max":530,"o":"m 245 1059 q 269 972 262 1024 q 272 868 277 921 q 248 767 267 815 q 193 692 229 719 q 142 680 172 675 q 88 701 111 685 q 56 742 65 718 q 71 788 47 766 q 106 843 96 814 q 115 900 115 872 q 107 952 114 928 q 95 991 100 977 q 102 1044 84 1021 q 148 1078 119 1067 q 205 1086 176 1089 q 245 1059 235 1082 m 499 1059 q 523 972 515 1024 q 526 868 530 921 q 502 767 521 815 q 446 692 483 719 q 395 680 426 675 q 342 701 365 685 q 310 742 319 718 q 324 788 301 766 q 359 843 350 814 q 368 900 369 872 q 361 952 368 928 q 349 991 354 977 q 355 1044 338 1021 q 401 1078 373 1067 q 459 1086 430 1089 q 499 1059 488 1082 z "},"#":{"ha":892,"x_min":54,"x_max":838,"o":"m 119 495 q 70 520 85 495 q 55 574 54 545 q 73 629 56 604 q 119 654 90 654 l 222 654 l 222 781 l 119 781 q 70 806 85 781 q 55 861 54 831 q 73 915 56 890 q 119 940 90 940 l 222 940 l 222 1043 q 248 1096 222 1080 q 302 1111 273 1112 q 356 1091 331 1109 q 381 1038 381 1073 l 381 940 l 509 940 l 509 1043 q 534 1096 509 1080 q 588 1111 559 1112 q 642 1091 617 1109 q 667 1038 667 1073 l 667 940 l 769 940 q 822 915 806 940 q 837 861 838 890 q 817 806 836 831 q 764 781 799 781 l 667 781 l 667 654 l 769 654 q 822 629 806 654 q 837 574 838 604 q 817 520 836 545 q 764 495 799 495 l 667 495 l 667 393 q 642 343 667 359 q 588 328 617 327 q 534 345 559 328 q 509 393 509 362 l 509 495 l 381 495 l 381 393 q 356 343 381 359 q 302 328 331 327 q 248 345 273 328 q 222 393 222 362 l 222 495 l 119 495 m 509 654 l 509 781 l 381 781 l 381 654 l 509 654 z "},"$":{"ha":926,"x_min":52,"x_max":875,"o":"m 378 16 q 282 61 331 33 q 190 127 233 90 q 113 206 146 164 q 60 290 79 248 q 58 331 52 309 q 80 372 65 353 q 116 408 95 392 q 157 429 137 423 q 194 429 178 435 q 217 399 210 422 q 273 291 233 342 q 373 209 312 240 l 374 608 q 260 667 315 631 q 165 749 206 703 q 104 851 125 795 q 90 972 83 907 q 125 1092 98 1042 q 194 1176 153 1142 q 283 1229 235 1210 q 377 1253 331 1248 l 377 1328 q 406 1390 377 1370 q 469 1410 434 1411 q 532 1389 503 1409 q 560 1329 560 1369 l 560 1260 q 641 1241 601 1256 q 717 1200 681 1226 q 782 1139 753 1175 q 830 1059 811 1104 q 823 1013 840 1038 q 782 974 807 989 q 730 957 757 959 q 692 975 703 955 q 660 1027 675 1008 q 629 1059 644 1047 q 597 1077 614 1072 q 559 1084 579 1082 l 556 730 q 726 630 654 692 q 837 492 799 568 q 871 330 875 415 q 811 161 867 245 q 703 62 772 100 q 560 7 635 24 l 560 -81 q 532 -132 560 -114 q 469 -151 503 -151 q 407 -136 435 -152 q 378 -83 378 -119 l 378 16 m 652 231 q 691 316 685 271 q 683 403 697 361 q 635 480 669 445 q 555 537 602 515 l 553 175 q 608 194 582 180 q 652 231 633 208 m 376 1080 q 295 1030 323 1065 q 269 947 267 996 q 296 863 271 903 q 376 800 321 822 l 376 1080 z "},"%":{"ha":905,"x_min":38,"x_max":879,"o":"m 227 1232 q 341 1206 294 1236 q 414 1128 388 1176 q 443 1022 439 1080 q 426 914 446 964 q 363 830 406 864 q 252 795 320 796 q 139 824 186 793 q 68 902 92 854 q 41 1005 43 949 q 58 1109 38 1061 q 119 1193 77 1158 q 227 1232 161 1227 m 244 941 q 282 964 271 941 q 291 1013 293 986 q 275 1061 289 1039 q 240 1082 262 1082 q 199 1061 214 1082 q 184 1013 184 1039 q 199 964 184 986 q 244 941 213 941 m 658 468 q 773 441 726 472 q 846 363 821 411 q 876 256 872 315 q 859 149 879 198 q 796 65 840 99 q 684 31 753 31 q 570 62 617 31 q 499 140 524 94 q 472 243 475 187 q 489 347 469 298 q 551 430 509 396 q 658 468 593 464 m 675 178 q 713 200 701 178 q 725 249 726 222 q 711 297 724 275 q 671 319 697 319 q 631 297 646 319 q 616 249 616 275 q 630 200 616 222 q 675 178 644 178 m 825 1180 q 672 889 747 1036 q 519 595 597 742 q 360 303 441 448 q 193 20 279 159 q 149 -5 176 -7 q 98 14 121 -3 q 61 57 75 31 q 60 104 47 83 l 684 1246 q 726 1274 699 1274 q 779 1259 754 1274 q 820 1222 804 1245 q 825 1180 836 1199 z "},"&":{"ha":949,"x_min":53,"x_max":897,"o":"m 642 68 q 492 9 574 27 q 334 0 411 -9 q 191 50 256 9 q 91 164 126 90 q 56 323 53 245 q 89 474 58 401 q 170 612 119 547 q 278 734 221 677 q 225 843 248 783 q 193 964 202 903 q 189 1083 183 1025 q 220 1185 194 1141 q 297 1257 247 1230 q 425 1284 347 1284 q 547 1254 502 1284 q 610 1174 591 1223 q 625 1061 629 1124 q 600 932 621 998 q 545 802 579 865 q 469 690 511 739 l 680 297 q 727 387 712 336 q 746 500 742 438 q 773 555 749 537 q 825 572 798 572 q 874 552 852 571 q 894 498 897 533 q 884 417 891 456 q 864 338 878 378 q 828 256 850 298 q 772 161 806 213 l 815 99 q 820 44 834 71 q 779 2 806 18 q 722 -14 751 -14 q 681 8 692 -15 q 659 42 675 19 q 642 68 651 54 l 642 68 m 355 586 q 285 516 319 553 q 230 437 251 479 q 204 349 209 396 q 222 247 199 301 q 282 178 241 202 q 372 149 323 153 q 471 157 420 144 q 562 201 522 171 q 535 250 553 217 q 495 326 517 283 q 450 412 473 368 q 406 494 426 457 q 372 557 387 532 q 355 586 358 583 m 396 844 q 433 888 415 859 q 466 951 452 917 q 488 1023 480 986 q 492 1089 495 1059 q 472 1138 488 1119 q 422 1157 456 1157 q 370 1139 389 1157 q 344 1092 351 1120 q 338 1027 336 1063 q 348 957 339 991 q 369 892 357 922 q 396 844 381 861 z "},"'":{"ha":330,"x_min":47,"x_max":277,"o":"m 245 1059 q 269 972 262 1024 q 272 868 277 921 q 248 767 267 815 q 193 692 229 719 q 142 680 172 675 q 88 701 111 685 q 56 742 65 718 q 71 788 47 766 q 106 843 96 814 q 115 900 115 872 q 107 952 114 928 q 95 991 100 977 q 102 1044 84 1021 q 148 1078 119 1067 q 205 1086 176 1089 q 245 1059 235 1082 z "},"(":{"ha":552,"x_min":47,"x_max":505,"o":"m 464 -58 q 485 -94 481 -72 q 482 -138 488 -115 q 460 -181 476 -161 q 421 -209 444 -201 q 372 -210 399 -217 q 315 -172 345 -203 q 205 -20 256 -111 q 117 184 153 72 q 64 423 81 296 q 60 685 47 551 q 84 857 66 768 q 134 1039 102 945 q 214 1230 165 1133 q 332 1427 263 1328 q 397 1472 359 1466 q 461 1461 434 1478 q 496 1407 488 1443 q 472 1325 505 1370 q 374 1162 415 1246 q 304 993 332 1077 q 259 828 275 909 q 237 675 243 747 q 245 442 229 557 q 294 229 262 327 q 370 55 326 130 q 464 -58 414 -20 z "},")":{"ha":552,"x_min":53,"x_max":505,"o":"m 88 -58 q 182 55 138 -20 q 258 229 227 130 q 306 442 290 327 q 313 675 321 557 q 293 828 309 747 q 248 993 277 909 q 178 1162 220 1077 q 80 1325 137 1246 q 56 1381 58 1355 q 62 1428 53 1408 q 91 1461 72 1449 q 132 1474 110 1473 q 178 1463 155 1474 q 220 1427 202 1453 q 338 1230 289 1328 q 418 1039 387 1133 q 468 857 450 945 q 492 685 486 768 q 488 423 505 551 q 435 184 471 296 q 347 -20 399 72 q 237 -172 296 -111 q 180 -210 208 -203 q 131 -209 153 -217 q 92 -181 109 -201 q 69 -138 76 -161 q 66 -94 62 -115 q 88 -58 71 -72 z "},"*":{"ha":853,"x_min":54,"x_max":799,"o":"m 340 186 q 295 155 324 156 q 240 170 266 155 q 201 213 214 186 q 203 266 189 240 l 288 411 l 119 411 q 70 436 85 411 q 55 490 54 461 q 73 545 56 519 q 119 570 90 570 l 288 570 l 202 716 q 198 774 184 747 q 238 814 212 800 q 295 825 264 829 q 343 791 326 821 l 425 650 l 509 795 q 556 828 526 826 q 611 814 586 830 q 648 769 636 798 q 643 711 661 741 l 562 570 l 730 570 q 783 545 766 570 q 798 490 799 519 q 778 436 796 461 q 724 411 760 411 l 562 411 l 646 267 q 648 212 662 237 q 609 172 635 186 q 553 159 583 157 q 507 187 524 161 l 425 332 l 340 186 z "},"+":{"ha":724,"x_min":54,"x_max":670,"o":"m 119 411 q 70 436 85 411 q 55 490 54 461 q 73 545 56 519 q 119 570 90 570 l 281 570 l 281 731 q 306 784 281 768 q 360 799 331 800 q 414 779 389 798 q 439 726 439 761 l 439 570 l 601 570 q 654 545 637 570 q 669 490 670 519 q 649 436 667 461 q 595 411 631 411 l 439 411 l 439 250 q 414 200 439 216 q 360 185 389 184 q 306 203 331 186 q 281 250 281 220 l 281 411 l 119 411 z "},",":{"ha":330,"x_min":49,"x_max":278,"o":"m 247 203 q 271 117 263 168 q 273 12 278 65 q 250 -88 269 -41 q 194 -164 231 -136 q 143 -176 174 -180 q 90 -155 113 -171 q 58 -115 66 -138 q 72 -68 49 -91 q 107 -13 98 -42 q 116 44 117 16 q 109 96 115 72 q 96 136 102 121 q 103 189 85 167 q 149 222 121 212 q 207 230 178 233 q 247 203 236 227 z "},"-":{"ha":724,"x_min":54,"x_max":670,"o":"m 119 411 q 70 436 85 411 q 55 490 54 461 q 73 545 56 519 q 119 570 90 570 l 601 570 q 654 545 637 570 q 669 490 670 519 q 649 436 667 461 q 595 411 631 411 l 119 411 z "},".":{"ha":326,"x_min":54,"x_max":279,"o":"m 263 141 q 258 60 279 96 q 195 8 237 23 q 116 8 153 -5 q 62 65 79 22 q 54 110 54 87 q 64 153 54 133 q 95 189 75 174 q 148 209 115 205 q 222 195 193 216 q 263 141 252 174 z "},"/":{"ha":883,"x_min":47,"x_max":836,"o":"m 825 1180 q 672 889 747 1036 q 519 595 597 742 q 360 303 441 448 q 193 20 279 159 q 149 -5 176 -7 q 98 14 121 -3 q 61 57 75 31 q 60 104 47 83 l 684 1246 q 726 1274 699 1274 q 779 1259 754 1274 q 820 1222 804 1245 q 825 1180 836 1199 z "},":":{"ha":336,"x_min":49,"x_max":286,"o":"m 148 821 q 231 801 199 827 q 268 736 262 774 q 253 663 274 699 q 178 616 232 627 q 94 633 126 605 q 56 700 62 661 q 71 776 49 739 q 148 821 92 812 m 160 481 q 243 462 212 488 q 280 397 274 435 q 265 323 286 359 q 190 277 244 288 q 106 294 138 266 q 68 361 75 321 q 83 437 61 400 q 160 481 104 473 z "},";":{"ha":350,"x_min":49,"x_max":298,"o":"m 148 551 q 231 531 199 557 q 268 467 262 505 q 253 393 274 429 q 178 346 232 357 q 94 363 126 335 q 56 430 62 391 q 71 506 49 469 q 148 551 92 543 m 267 203 q 291 117 283 168 q 294 12 298 65 q 270 -88 289 -41 q 214 -164 251 -136 q 163 -176 194 -180 q 110 -155 133 -171 q 78 -115 87 -138 q 92 -68 69 -91 q 127 -13 118 -42 q 136 44 137 16 q 129 96 136 72 q 117 136 122 121 q 123 189 106 167 q 170 222 141 212 q 227 230 198 233 q 267 203 256 227 z "},"<":{"ha":538,"x_min":53,"x_max":487,"o":"m 91 376 q 62 418 71 387 q 56 484 53 449 q 76 552 60 519 q 121 598 92 585 l 388 730 q 444 730 420 746 q 477 685 468 713 q 481 626 487 656 q 448 582 475 595 l 227 475 l 444 366 q 479 320 476 350 q 468 264 483 290 q 427 223 453 237 q 374 222 401 209 l 91 376 z "},"=":{"ha":724,"x_min":54,"x_max":670,"o":"m 119 267 q 70 292 85 267 q 55 347 54 317 q 73 401 56 376 q 119 426 90 426 l 601 426 q 654 401 637 426 q 669 347 670 376 q 649 292 667 317 q 595 267 631 267 l 119 267 m 119 553 q 70 578 85 553 q 55 633 54 604 q 73 687 56 662 q 119 712 90 712 l 601 712 q 654 687 637 712 q 669 633 670 662 q 649 578 667 604 q 595 553 631 553 l 119 553 z "},">":{"ha":538,"x_min":52,"x_max":486,"o":"m 164 222 q 112 223 138 209 q 71 264 85 237 q 59 320 56 290 q 95 366 62 350 l 312 475 l 91 582 q 58 626 64 595 q 61 685 52 656 q 94 730 71 713 q 151 730 118 746 l 418 598 q 463 552 446 585 q 482 484 479 519 q 477 418 486 449 q 448 376 468 387 l 164 222 z "},"?":{"ha":770,"x_min":54,"x_max":722,"o":"m 441 419 q 418 371 441 388 q 369 353 396 354 q 318 370 342 353 q 294 422 294 387 l 292 560 q 293 628 292 597 q 304 683 294 659 q 335 722 315 707 q 393 741 355 736 q 507 800 461 747 q 551 958 553 853 q 536 1022 549 990 q 500 1079 522 1054 q 448 1118 477 1104 q 384 1131 418 1133 q 317 1119 351 1130 q 257 1088 283 1108 q 214 1036 231 1067 q 197 964 197 1005 q 175 925 197 939 q 127 912 153 911 q 78 928 100 913 q 56 978 56 944 q 81 1094 54 1039 q 152 1190 107 1149 q 256 1255 197 1230 q 380 1279 315 1279 q 507 1255 449 1279 q 607 1187 564 1230 q 677 1087 650 1145 q 713 964 704 1029 q 703 840 722 902 q 645 726 684 777 q 553 637 606 674 q 438 590 499 601 l 441 419 m 480 141 q 475 60 496 96 q 412 8 454 23 q 333 8 370 -5 q 279 65 296 22 q 271 110 271 87 q 281 153 271 133 q 312 189 292 174 q 365 209 332 205 q 439 195 410 216 q 480 141 469 174 z "},"@":{"ha":1278,"x_min":47,"x_max":1227,"o":"m 1006 84 q 825 21 916 41 q 647 4 734 1 q 429 46 532 7 q 246 158 326 85 q 117 336 167 231 q 57 576 66 442 q 83 831 47 705 q 199 1058 119 958 q 401 1220 278 1158 q 689 1280 524 1282 q 890 1238 796 1279 q 1056 1124 985 1198 q 1171 947 1127 1050 q 1222 719 1215 844 q 1202 540 1227 613 q 1135 422 1177 467 q 1038 357 1092 377 q 929 336 983 336 q 875 345 901 336 q 827 367 849 354 q 787 395 804 380 q 761 423 770 411 q 661 358 712 377 q 561 342 609 339 q 470 369 513 346 q 396 431 427 392 q 347 521 365 469 q 330 633 328 572 q 370 805 331 735 q 469 909 410 875 q 599 941 529 944 q 731 892 669 937 q 761 939 736 926 q 813 949 785 952 q 863 927 841 945 q 886 879 886 909 q 884 797 886 841 q 881 709 882 753 q 882 624 880 665 q 892 553 884 583 q 917 507 901 524 q 960 494 933 490 q 1046 570 1021 502 q 1062 745 1072 639 q 1019 904 1054 834 q 930 1022 983 974 q 810 1095 878 1070 q 671 1120 743 1120 q 473 1074 557 1120 q 334 952 388 1027 q 255 783 279 878 q 236 594 231 689 q 271 432 241 510 q 353 294 300 354 q 485 199 407 235 q 665 163 563 163 q 828 186 754 163 q 977 250 902 210 q 1023 245 1002 263 q 1052 196 1044 227 q 1050 133 1059 165 q 1006 84 1040 100 m 591 791 q 539 775 560 789 q 505 739 518 761 q 485 691 491 718 q 476 639 479 665 q 480 584 475 610 q 499 536 486 557 q 536 502 513 514 q 591 490 559 490 q 658 508 624 490 q 719 566 692 526 l 715 735 q 664 775 699 757 q 591 791 629 793 z "},"A":{"ha":1002,"x_min":46,"x_max":954,"o":"m 381 1196 q 435 1265 400 1244 q 507 1284 469 1287 q 577 1257 544 1282 q 625 1187 610 1232 q 706 928 665 1072 q 788 635 747 784 q 868 344 829 487 q 945 84 907 201 q 933 37 954 60 q 884 6 913 15 q 825 8 854 -3 q 783 60 795 19 l 674 445 l 320 445 q 288 326 305 389 q 254 208 270 263 q 227 110 239 152 q 210 53 214 68 q 174 15 203 28 q 115 5 145 1 q 66 31 85 8 q 58 99 46 53 q 93 226 69 140 q 147 421 117 312 q 213 651 178 530 q 281 880 248 772 q 340 1074 313 989 q 381 1196 366 1158 m 499 1059 q 486 1013 499 1057 q 454 904 473 970 q 410 758 434 838 q 363 601 387 678 l 635 601 l 499 1059 z "},"B":{"ha":863,"x_min":56,"x_max":808,"o":"m 182 1 q 115 10 140 1 q 77 37 91 19 q 60 84 64 56 q 56 151 56 113 l 58 1101 q 62 1183 58 1150 q 79 1238 65 1217 q 119 1268 92 1259 q 191 1278 145 1278 q 428 1258 332 1279 q 582 1196 524 1237 q 665 1093 640 1154 q 690 954 690 1032 q 659 813 690 876 q 589 718 628 750 q 755 572 697 667 q 795 477 781 532 q 807 365 808 423 q 751 180 806 259 q 610 56 696 100 q 507 20 564 31 q 390 4 449 8 q 277 1 331 0 q 182 1 222 1 m 216 163 q 297 159 251 160 q 391 162 343 157 q 484 178 438 167 q 566 214 530 190 q 625 275 602 237 q 647 368 647 312 q 625 478 647 435 q 568 547 604 521 q 487 583 533 572 q 393 596 441 594 q 299 595 346 598 q 216 589 252 591 l 216 163 m 213 751 q 318 757 263 750 q 420 785 373 764 q 498 848 467 807 q 534 958 530 888 q 522 1028 537 1000 q 479 1074 506 1057 q 417 1101 452 1092 q 347 1114 382 1111 q 276 1116 311 1116 q 216 1112 241 1115 l 213 751 z "},"C":{"ha":876,"x_min":53,"x_max":827,"o":"m 818 305 q 758 185 798 241 q 666 87 719 129 q 550 22 613 46 q 418 -1 487 -1 q 255 52 324 -1 q 140 193 186 106 q 74 394 95 281 q 54 627 53 507 q 79 849 57 739 q 149 1048 102 959 q 266 1199 195 1138 q 434 1275 336 1260 q 562 1268 500 1286 q 674 1211 624 1251 q 758 1112 724 1172 q 803 977 792 1051 q 789 916 808 940 q 742 883 769 891 q 688 886 715 875 q 652 930 662 897 q 568 1083 620 1043 q 453 1111 517 1123 q 352 1054 395 1100 q 281 939 309 1008 q 237 785 252 869 q 221 616 222 701 q 232 449 220 530 q 269 304 244 368 q 332 203 294 241 q 418 167 369 165 q 503 185 464 168 q 574 231 541 202 q 634 298 606 259 q 686 384 662 338 q 726 410 700 408 q 775 399 751 412 q 813 360 799 385 q 818 305 827 335 z "},"D":{"ha":882,"x_min":56,"x_max":833,"o":"m 227 7 q 137 7 171 4 q 85 27 103 11 q 61 75 66 43 q 56 160 56 106 l 68 1133 q 71 1198 68 1169 q 86 1248 75 1227 q 121 1278 98 1268 q 187 1283 145 1287 q 239 1278 214 1280 q 290 1274 264 1276 q 496 1222 401 1259 q 663 1121 591 1185 q 777 962 734 1057 q 826 738 821 868 q 795 469 833 590 q 690 256 758 347 q 528 105 621 164 q 328 22 434 46 q 227 7 277 8 m 228 160 l 228 160 q 387 208 309 168 q 527 316 465 247 q 627 481 589 385 q 665 699 665 578 q 554 1000 665 890 q 243 1118 444 1109 l 228 160 z "},"E":{"ha":760,"x_min":54,"x_max":705,"o":"m 197 1 q 119 9 146 1 q 80 39 92 18 q 65 96 68 60 q 62 187 62 133 l 56 1119 q 83 1247 54 1210 q 182 1283 113 1284 q 356 1281 247 1283 q 625 1279 465 1279 q 685 1255 666 1279 q 705 1201 704 1230 q 688 1147 705 1172 q 636 1122 670 1122 q 526 1122 593 1122 q 395 1123 460 1122 q 280 1124 331 1124 q 216 1124 229 1124 l 216 720 l 502 720 q 550 694 536 720 q 562 638 564 669 q 545 583 560 608 q 506 560 530 559 q 422 562 492 562 q 216 560 353 562 l 216 161 q 248 161 221 161 q 314 161 275 161 q 399 161 353 161 q 490 161 445 161 q 572 161 534 161 q 632 161 609 161 q 687 138 669 161 q 705 85 705 114 q 684 31 704 56 q 625 5 665 7 q 367 1 469 1 q 197 1 264 1 z "},"F":{"ha":760,"x_min":54,"x_max":705,"o":"m 216 73 q 192 18 216 37 q 139 -1 168 -1 q 86 17 110 -1 q 62 73 62 35 l 56 1119 q 83 1247 54 1210 q 182 1283 113 1284 q 356 1281 247 1283 q 625 1279 465 1279 q 685 1255 666 1279 q 705 1201 704 1230 q 688 1147 705 1172 q 636 1122 670 1122 q 526 1122 593 1122 q 395 1123 460 1122 q 280 1124 331 1124 q 216 1124 229 1124 l 216 720 l 502 720 q 550 694 536 720 q 562 638 564 669 q 545 583 560 608 q 506 560 530 559 q 422 562 492 562 q 216 560 353 562 l 216 73 z "},"G":{"ha":937,"x_min":52,"x_max":884,"o":"m 545 595 l 811 595 q 861 576 846 595 q 880 527 876 556 q 881 465 884 498 q 875 404 878 431 q 826 225 863 301 q 739 100 789 149 q 630 26 689 50 q 515 1 571 1 q 360 28 429 1 q 239 101 292 54 q 151 211 187 148 q 93 345 115 274 q 61 491 71 415 q 54 639 52 567 q 92 882 58 768 q 186 1082 126 996 q 331 1219 247 1168 q 519 1275 415 1271 l 532 1275 q 654 1251 595 1275 q 760 1185 713 1226 q 838 1091 807 1145 q 875 979 868 1038 q 870 951 878 963 q 850 929 863 939 q 821 915 837 920 q 788 910 804 910 q 745 920 765 910 q 719 954 726 930 q 696 1015 711 986 q 659 1067 682 1044 q 604 1102 636 1089 q 524 1115 571 1115 q 401 1075 458 1115 q 303 968 345 1035 q 238 814 262 901 q 214 636 214 728 q 290 283 214 406 q 509 160 366 160 q 582 178 547 160 q 645 232 617 197 q 689 319 673 267 q 705 439 705 372 q 673 439 694 439 q 629 437 652 438 q 583 436 605 437 q 545 435 560 435 q 486 460 503 435 q 470 515 468 486 q 492 570 472 545 q 545 595 511 595 z "},"H":{"ha":823,"x_min":56,"x_max":769,"o":"m 217 91 q 192 22 217 47 q 136 -5 167 -3 q 81 16 106 -7 q 56 91 56 38 l 57 1183 q 82 1259 57 1234 q 137 1284 107 1284 q 192 1259 167 1284 q 217 1185 217 1234 l 217 711 l 609 711 l 609 1183 q 634 1259 609 1234 q 689 1284 659 1284 q 744 1259 719 1284 q 769 1185 769 1234 l 769 91 q 744 22 769 47 q 688 -5 719 -3 q 633 16 658 -7 q 608 91 608 38 l 608 560 l 217 560 l 217 91 z "},"I":{"ha":882,"x_min":54,"x_max":829,"o":"m 141 0 q 78 24 99 0 q 56 79 57 49 q 75 133 54 109 q 137 157 95 157 l 359 157 l 363 1122 l 141 1122 q 78 1146 99 1122 q 56 1200 57 1171 q 75 1255 54 1230 q 137 1279 95 1279 l 747 1279 q 809 1255 789 1279 q 827 1200 829 1230 q 805 1146 826 1171 q 745 1122 784 1122 l 524 1122 l 521 157 l 747 157 q 809 133 789 157 q 827 79 829 109 q 805 24 826 49 q 745 0 784 0 l 141 0 z "},"J":{"ha":1084,"x_min":54,"x_max":1031,"o":"m 56 365 q 77 422 54 401 q 130 444 100 442 q 184 429 159 446 q 214 370 210 411 q 229 301 218 339 q 260 231 239 263 q 313 178 281 198 q 393 160 346 157 q 479 218 446 164 q 533 357 513 273 q 562 548 553 442 q 572 760 570 654 q 570 961 574 865 q 564 1122 567 1057 l 343 1122 q 280 1146 301 1122 q 258 1200 259 1171 q 277 1255 256 1230 q 339 1279 297 1279 l 949 1279 q 1011 1255 991 1279 q 1029 1200 1031 1230 q 1007 1146 1028 1171 q 947 1122 986 1122 l 724 1122 q 730 975 727 1057 q 734 802 734 892 q 729 616 734 711 q 711 432 724 521 q 672 264 697 343 q 608 127 647 186 q 514 34 570 68 q 382 0 458 0 q 265 27 323 0 q 161 102 208 54 q 86 218 115 151 q 56 365 57 285 z "},"K":{"ha":883,"x_min":56,"x_max":831,"o":"m 817 123 q 829 79 831 102 q 814 37 826 56 q 781 7 802 19 q 741 -5 761 -5 q 707 4 723 -5 q 678 37 690 14 l 369 600 l 232 448 l 232 92 q 204 24 232 47 q 142 1 176 1 q 83 24 110 1 q 56 94 56 46 l 60 1192 q 86 1259 60 1236 q 144 1282 113 1282 q 199 1259 175 1282 q 224 1192 224 1237 q 224 1072 224 1139 q 224 934 224 1005 q 224 795 224 863 q 227 675 225 728 l 694 1251 q 753 1283 722 1283 q 791 1269 773 1283 q 817 1234 808 1255 q 825 1190 826 1214 q 808 1145 825 1165 l 480 735 q 495 703 480 734 q 535 622 510 671 q 594 509 560 572 q 665 378 628 446 q 741 245 703 311 q 817 123 780 179 z "},"L":{"ha":787,"x_min":54,"x_max":732,"o":"m 658 163 q 711 138 692 163 q 731 83 730 113 q 715 28 732 53 q 658 3 697 3 l 190 3 q 117 15 144 3 q 77 47 91 27 q 58 91 62 66 q 54 140 54 115 l 56 1180 q 81 1257 56 1232 q 136 1282 106 1282 q 191 1257 165 1282 q 216 1183 216 1232 l 216 163 l 658 163 z "},"M":{"ha":1131,"x_min":53,"x_max":1078,"o":"m 214 79 q 202 37 214 54 q 172 10 190 19 q 133 1 155 1 q 94 9 111 0 q 64 35 76 18 q 54 80 53 53 q 58 200 57 115 q 61 395 60 285 q 64 628 62 506 q 66 861 65 750 q 69 1056 68 971 q 73 1176 71 1141 q 110 1255 76 1229 q 186 1282 144 1280 q 270 1261 229 1284 q 328 1194 311 1238 l 566 600 l 802 1194 q 861 1261 821 1238 q 945 1282 902 1284 q 1021 1255 987 1280 q 1058 1176 1054 1229 q 1062 1056 1061 1141 q 1065 861 1063 971 q 1067 628 1066 750 q 1069 395 1069 506 q 1072 200 1070 285 q 1076 80 1073 115 q 1053 20 1078 39 q 998 0 1028 0 q 942 20 967 0 q 917 79 917 41 q 917 178 917 106 q 916 347 917 251 q 915 551 916 444 q 913 754 914 659 q 912 921 913 849 q 911 1016 911 993 l 647 362 q 614 323 636 336 q 566 309 591 309 q 517 323 540 309 q 484 362 495 336 l 218 1016 q 218 953 218 998 q 216 844 217 907 q 216 705 216 781 q 215 551 216 629 q 214 397 214 473 q 214 256 214 320 q 214 146 213 193 q 214 79 214 99 z "},"N":{"ha":936,"x_min":54,"x_max":880,"o":"m 214 81 q 189 23 216 43 q 130 3 161 3 q 81 20 103 3 q 58 77 58 38 l 54 1153 q 65 1204 54 1181 q 94 1243 76 1227 q 136 1267 113 1259 q 184 1276 160 1276 q 258 1255 222 1276 q 315 1187 293 1234 l 719 281 l 707 1184 q 731 1257 707 1233 q 787 1280 755 1280 q 844 1256 818 1280 q 871 1184 871 1232 l 880 99 q 870 60 880 77 q 842 28 860 42 q 802 7 825 15 q 757 0 780 0 q 694 17 724 0 q 646 72 663 34 l 212 1031 q 210 933 210 1002 q 209 773 209 864 q 209 579 209 682 q 210 380 209 476 q 212 205 212 285 q 214 81 213 126 z "},"O":{"ha":935,"x_min":56,"x_max":880,"o":"m 473 0 q 301 48 378 1 q 170 174 224 95 q 85 360 115 254 q 56 587 56 467 q 81 842 56 716 q 159 1065 107 967 q 291 1221 212 1162 q 477 1275 370 1280 q 651 1213 576 1271 q 776 1063 726 1156 q 852 850 826 970 q 879 604 878 731 q 852 380 880 490 q 772 186 825 271 q 643 50 719 102 q 473 0 567 -1 m 473 1107 q 365 1059 412 1105 q 286 941 317 1013 q 237 777 254 868 q 220 597 220 686 q 233 435 220 514 q 277 293 247 355 q 357 193 308 231 q 476 155 406 155 q 587 197 541 155 q 663 304 633 239 q 705 446 692 369 q 719 593 719 524 q 713 702 719 644 q 694 817 707 760 q 663 928 682 875 q 616 1021 643 981 q 553 1084 589 1061 q 473 1107 518 1108 z "},"P":{"ha":823,"x_min":56,"x_max":774,"o":"m 217 91 q 189 20 217 45 q 130 -5 161 -5 q 79 18 102 -5 q 56 91 56 41 l 57 1149 q 76 1222 57 1196 q 125 1261 95 1248 q 193 1278 156 1275 q 267 1280 231 1280 q 453 1261 361 1280 q 617 1196 545 1242 q 732 1076 689 1150 q 768 888 774 1001 q 711 703 762 780 q 581 580 659 627 q 408 514 503 533 q 217 500 312 495 l 217 91 m 217 666 q 241 662 228 663 q 273 661 255 661 q 374 671 316 661 q 484 709 431 682 q 572 783 536 736 q 609 901 608 830 q 583 1008 610 966 q 512 1075 556 1050 q 412 1110 468 1100 q 300 1120 357 1120 q 217 1116 256 1120 l 217 666 z "},"Q":{"ha":933,"x_min":54,"x_max":879,"o":"m 472 0 q 300 48 377 1 q 168 174 222 95 q 84 360 114 254 q 54 587 54 467 q 80 842 54 716 q 158 1065 106 967 q 290 1221 210 1162 q 476 1275 369 1280 q 650 1213 575 1271 q 774 1063 724 1156 q 850 850 825 970 q 878 604 876 731 q 853 389 879 494 q 779 201 827 285 l 837 121 q 850 64 857 94 q 820 16 842 34 q 768 -3 798 -3 q 715 28 738 -3 l 678 77 q 583 20 635 41 q 472 0 532 -1 m 472 1107 q 363 1059 411 1105 q 284 941 316 1013 q 235 777 252 868 q 218 597 218 686 q 232 435 218 514 q 276 293 245 355 q 355 193 307 231 q 475 155 404 155 q 589 199 540 155 l 434 408 q 418 469 411 439 q 448 517 426 499 q 502 533 471 534 q 557 499 533 532 l 675 339 q 707 466 697 400 q 718 593 718 532 q 711 702 718 644 q 693 817 705 760 q 661 928 681 875 q 614 1021 642 981 q 551 1084 587 1061 q 472 1107 515 1108 z "},"R":{"ha":830,"x_min":56,"x_max":781,"o":"m 217 91 q 192 22 217 47 q 136 -5 167 -3 q 81 16 106 -7 q 56 91 56 38 l 57 1149 q 100 1247 57 1217 q 236 1280 142 1278 q 431 1266 334 1283 q 606 1204 529 1249 q 728 1082 682 1158 q 768 888 774 1005 q 733 745 764 807 q 654 636 703 682 q 545 560 606 590 q 414 515 483 530 l 758 127 q 775 71 781 102 q 747 19 769 41 q 696 -6 726 -3 q 639 20 666 -9 l 217 495 l 217 91 m 217 666 q 342 663 274 654 q 469 703 410 673 q 568 784 528 734 q 609 901 608 834 q 573 1023 610 978 q 477 1092 536 1069 q 350 1119 419 1115 q 217 1116 281 1123 l 217 666 z "},"S":{"ha":888,"x_min":53,"x_max":841,"o":"m 469 -3 q 345 19 401 -1 q 239 76 288 39 q 149 163 190 113 q 71 275 107 213 q 62 340 53 307 q 93 393 71 373 q 144 411 115 412 q 195 373 174 410 q 269 271 233 311 q 338 206 304 231 q 404 170 372 182 q 469 153 437 159 q 543 161 507 148 q 608 199 579 174 q 654 258 636 224 q 671 331 671 293 q 631 450 671 393 q 522 536 591 506 q 368 602 449 568 q 218 683 288 636 q 103 795 149 730 q 54 954 57 860 q 87 1090 53 1029 q 178 1194 122 1152 q 304 1259 235 1237 q 444 1279 374 1282 q 547 1262 494 1278 q 646 1219 600 1246 q 730 1152 693 1192 q 783 1062 766 1112 q 785 977 800 1009 q 741 934 769 944 q 683 937 713 924 q 640 986 652 949 q 610 1041 631 1017 q 562 1082 589 1065 q 505 1108 536 1099 q 444 1119 475 1118 q 367 1112 408 1122 q 291 1081 326 1101 q 235 1029 256 1061 q 218 954 214 997 q 265 855 225 897 q 359 783 305 814 q 472 730 414 753 q 574 688 530 708 q 779 532 718 621 q 833 317 841 444 q 798 187 827 247 q 720 85 768 127 q 607 19 671 42 q 469 -3 543 -4 z "},"T":{"ha":882,"x_min":54,"x_max":829,"o":"m 363 1122 l 141 1122 q 78 1146 99 1122 q 56 1200 57 1171 q 75 1255 54 1230 q 137 1279 95 1279 l 747 1279 q 809 1255 789 1279 q 827 1200 829 1230 q 805 1146 826 1171 q 745 1122 784 1122 l 524 1122 l 521 98 q 496 27 521 52 q 440 3 471 3 q 385 26 410 3 q 359 98 359 49 l 363 1122 z "},"U":{"ha":837,"x_min":54,"x_max":783,"o":"m 779 1190 q 781 1050 779 1133 q 782 874 783 968 q 777 678 781 780 q 758 479 772 576 q 720 295 745 382 q 654 142 694 208 q 555 37 613 76 q 416 -1 496 -1 q 279 37 336 -1 q 180 142 221 76 q 115 295 140 208 q 77 480 91 382 q 59 680 64 578 q 54 876 54 781 q 57 1054 54 971 q 61 1195 60 1137 q 87 1259 62 1238 q 142 1279 113 1279 q 197 1258 172 1279 q 222 1195 222 1237 q 221 1097 222 1160 q 219 955 220 1034 q 220 787 218 876 q 229 612 222 699 q 248 445 235 525 q 281 303 260 365 q 332 205 301 241 q 406 168 363 168 q 494 202 457 167 q 555 298 530 237 q 593 437 579 358 q 613 602 606 515 q 621 778 620 689 q 620 947 621 867 q 616 1091 618 1027 q 616 1194 614 1156 q 642 1256 617 1236 q 698 1276 667 1276 q 753 1253 728 1275 q 779 1190 779 1232 z "},"V":{"ha":937,"x_min":47,"x_max":891,"o":"m 589 81 q 549 24 579 45 q 482 0 518 3 q 414 14 446 -3 q 366 66 381 30 q 338 151 355 95 q 299 282 320 208 q 254 445 278 357 q 208 623 231 533 q 161 801 184 713 q 119 962 138 888 q 84 1092 99 1036 q 61 1175 69 1147 q 64 1246 47 1219 q 110 1278 81 1272 q 168 1272 138 1284 q 208 1225 198 1259 q 227 1152 213 1204 q 261 1027 241 1100 q 303 867 281 954 q 349 694 326 781 q 393 526 372 608 q 431 380 414 444 q 458 276 448 316 q 469 233 468 236 l 731 1213 q 772 1271 743 1256 q 829 1277 802 1286 q 874 1237 857 1268 q 878 1157 891 1206 l 589 81 z "},"W":{"ha":1411,"x_min":47,"x_max":1364,"o":"m 589 81 q 549 24 579 45 q 482 0 518 3 q 414 14 446 -3 q 366 66 381 30 q 338 151 355 95 q 299 282 320 208 q 254 445 278 357 q 208 623 231 533 q 161 801 184 713 q 119 962 138 888 q 84 1092 99 1036 q 61 1175 69 1147 q 64 1246 47 1219 q 110 1278 81 1272 q 168 1272 138 1284 q 208 1225 198 1259 q 227 1152 213 1204 q 261 1027 241 1100 q 303 867 281 954 q 349 694 326 781 q 393 526 372 608 q 431 380 414 444 q 458 276 448 316 q 469 233 468 236 l 628 826 q 659 874 636 859 q 706 890 681 890 q 753 873 731 890 q 783 827 774 857 l 941 233 q 953 276 943 236 q 980 380 963 316 q 1018 526 997 444 q 1062 694 1039 608 q 1108 867 1085 781 q 1150 1027 1131 954 q 1183 1152 1169 1100 q 1203 1225 1198 1204 q 1243 1272 1214 1259 q 1301 1278 1272 1284 q 1347 1246 1329 1272 q 1350 1175 1364 1219 q 1326 1092 1341 1147 q 1292 962 1312 1036 q 1249 801 1272 888 q 1203 623 1226 713 q 1156 445 1180 533 q 1112 282 1133 357 q 1073 151 1090 208 q 1044 66 1055 95 q 997 14 1029 30 q 928 0 964 -3 q 863 24 892 3 q 822 81 833 45 l 705 517 l 589 81 z "},"X":{"ha":886,"x_min":49,"x_max":837,"o":"m 817 142 q 827 70 837 104 q 792 19 818 35 q 734 10 766 3 q 675 64 701 18 l 444 486 l 210 64 q 152 10 184 18 q 94 19 119 3 q 58 70 68 35 q 69 142 49 104 l 351 652 l 80 1145 q 65 1223 56 1190 q 101 1272 75 1257 q 161 1278 127 1287 q 218 1225 195 1268 l 444 818 l 667 1225 q 726 1278 692 1268 q 786 1272 760 1287 q 822 1223 812 1257 q 807 1145 831 1190 l 534 652 l 817 142 z "},"Y":{"ha":949,"x_min":54,"x_max":897,"o":"m 563 85 q 535 24 563 45 q 473 2 507 3 q 412 22 439 1 q 384 85 384 43 l 387 625 l 68 1145 q 56 1192 54 1168 q 69 1234 57 1215 q 101 1265 81 1253 q 144 1278 121 1278 q 190 1266 167 1279 q 231 1221 213 1253 l 475 795 l 720 1221 q 762 1266 739 1253 q 807 1278 784 1279 q 850 1265 830 1278 q 882 1234 869 1253 q 895 1192 894 1215 q 883 1145 897 1168 l 564 625 l 563 85 z "},"Z":{"ha":948,"x_min":52,"x_max":898,"o":"m 167 5 q 87 26 113 5 q 57 77 62 47 q 60 138 52 106 q 83 190 69 170 l 658 1107 l 141 1105 q 80 1131 100 1105 q 58 1187 60 1157 q 75 1244 57 1218 q 130 1272 92 1271 q 278 1276 193 1275 q 453 1276 363 1276 q 627 1276 543 1276 q 773 1278 712 1276 q 852 1260 823 1279 q 889 1210 880 1241 q 888 1141 898 1179 q 854 1065 879 1103 l 273 174 l 793 171 q 869 144 845 171 q 893 87 894 118 q 867 31 892 57 q 793 5 842 5 l 167 5 z "},"[":{"ha":524,"x_min":54,"x_max":469,"o":"m 245 1291 q 241 1198 244 1261 q 237 1047 239 1134 q 232 859 235 960 q 228 651 229 757 q 225 443 227 545 q 224 253 224 340 q 227 100 225 165 q 233 4 229 35 l 395 8 q 451 -23 433 5 q 469 -85 469 -52 q 453 -146 469 -118 q 404 -175 437 -174 q 302 -179 338 -178 q 248 -182 266 -180 q 222 -184 229 -183 q 206 -184 214 -184 q 145 -178 174 -187 q 96 -144 117 -168 q 65 -83 76 -121 q 56 9 54 -46 q 58 144 57 45 q 58 405 58 244 q 59 787 58 566 q 60 1284 60 1008 q 71 1370 60 1335 q 103 1426 83 1405 q 151 1457 123 1447 q 210 1463 179 1466 l 399 1461 q 451 1431 434 1459 q 467 1370 468 1402 q 445 1311 465 1337 q 385 1289 425 1284 l 247 1291 l 245 1291 z "},"\\":{"ha":883,"x_min":47,"x_max":834,"o":"m 58 1180 q 63 1221 47 1199 q 104 1258 79 1244 q 157 1273 129 1272 q 199 1246 184 1274 l 823 104 q 822 60 834 83 q 785 21 810 37 q 730 2 761 5 q 674 18 700 -1 l 58 1180 z "},"]":{"ha":524,"x_min":54,"x_max":469,"o":"m 278 -12 q 282 81 279 18 q 287 232 285 145 q 292 420 289 319 q 296 628 294 522 q 298 836 297 734 q 299 1026 300 939 q 296 1179 298 1114 q 290 1275 294 1244 l 129 1271 q 73 1302 91 1274 q 54 1364 54 1331 q 71 1425 54 1397 q 119 1454 87 1453 q 222 1458 186 1457 q 276 1461 258 1459 q 302 1463 294 1462 q 317 1463 309 1463 q 378 1457 350 1466 q 427 1423 407 1447 q 458 1362 448 1400 q 468 1270 469 1325 q 466 1135 467 1236 q 465 874 465 1035 q 465 492 465 713 q 464 -5 464 271 q 420 -147 464 -106 q 313 -184 377 -189 l 125 -182 q 73 -152 90 -180 q 57 -91 56 -123 q 79 -32 58 -58 q 138 -9 99 -5 l 277 -12 l 278 -12 z "},"^":{"ha":479,"x_min":49,"x_max":433,"o":"m 133 608 q 177 662 149 643 q 235 682 205 681 q 294 668 266 684 q 339 618 321 652 l 418 465 q 417 417 433 437 q 376 391 401 397 q 323 390 350 384 q 285 420 296 396 l 233 538 l 176 408 q 145 388 168 392 q 99 391 122 384 q 62 414 76 397 q 60 454 49 430 l 133 608 z "},"_":{"ha":724,"x_min":54,"x_max":670,"o":"m 119 7 q 70 32 85 7 q 55 86 54 57 q 73 140 56 115 q 119 165 90 165 l 601 165 q 654 140 637 165 q 669 86 670 115 q 649 32 667 57 q 595 7 631 7 l 119 7 z "},"`":{"ha":430,"x_min":49,"x_max":381,"o":"m 72 1032 q 56 1082 49 1054 q 83 1131 62 1109 q 134 1158 104 1152 q 184 1145 163 1165 l 354 986 q 374 934 381 962 q 345 887 368 906 q 291 863 321 868 q 239 878 260 857 l 72 1032 z "},"a":{"ha":772,"x_min":53,"x_max":718,"o":"m 718 96 q 689 31 718 54 q 628 7 661 7 q 574 29 598 7 q 551 99 551 52 q 444 40 505 64 q 324 16 382 16 q 203 51 255 16 q 118 142 152 85 q 68 270 84 198 q 55 417 53 342 q 76 564 57 492 q 132 692 95 636 q 224 783 170 749 q 349 817 278 817 q 446 798 392 817 q 551 739 499 779 q 581 809 555 785 q 637 833 606 833 q 693 807 669 833 q 718 727 718 781 l 718 96 m 551 528 q 458 625 509 594 q 359 654 407 656 q 279 614 312 651 q 231 523 247 576 q 214 407 214 469 q 231 292 214 345 q 281 205 248 240 q 366 171 315 170 q 463 205 414 172 q 551 298 513 237 l 551 528 z "},"b":{"ha":808,"x_min":56,"x_max":758,"o":"m 212 54 q 175 7 201 23 q 123 -5 149 -8 q 76 22 96 -1 q 56 91 56 45 l 57 1183 q 82 1259 57 1234 q 137 1284 107 1284 q 192 1259 167 1284 q 217 1185 217 1234 l 221 803 q 381 834 307 834 q 517 809 456 834 q 625 736 578 784 q 702 625 671 689 q 745 485 732 562 q 750 326 758 408 q 715 200 743 255 q 643 106 686 145 q 546 44 600 66 q 435 15 492 22 q 319 18 377 8 q 212 54 262 28 m 221 237 q 321 185 262 199 q 435 183 380 171 q 534 235 491 195 q 587 340 578 274 q 574 498 600 425 q 498 614 549 571 q 375 663 446 658 q 224 617 304 669 l 221 237 z "},"c":{"ha":762,"x_min":54,"x_max":708,"o":"m 397 -3 q 249 32 312 -3 q 143 123 186 66 q 79 252 100 179 q 56 401 57 324 q 76 557 54 480 q 141 694 98 633 q 251 793 184 754 q 407 834 317 831 l 416 834 q 505 820 458 834 q 591 777 551 806 q 662 705 632 749 q 701 601 692 661 q 699 563 705 579 q 680 536 692 547 q 651 519 667 525 q 618 514 635 514 q 578 524 595 514 q 553 555 560 533 q 499 644 534 620 q 416 669 464 669 q 328 644 365 669 q 266 583 290 620 q 229 498 241 545 q 216 407 217 452 q 225 315 214 359 q 258 235 236 270 q 313 178 279 199 q 393 157 347 157 q 457 166 430 157 q 507 190 484 175 q 551 226 530 205 q 597 271 572 247 q 629 285 610 285 q 667 271 648 285 q 697 235 686 256 q 707 186 708 213 q 686 136 707 160 q 625 81 662 106 q 549 37 589 56 q 469 8 509 19 q 397 -3 429 -3 z "},"d":{"ha":796,"x_min":56,"x_max":742,"o":"m 742 91 q 719 25 742 50 q 667 -4 696 0 q 612 11 637 -8 q 582 75 586 30 q 395 11 490 18 q 226 41 301 4 q 103 158 151 79 q 56 354 56 237 q 97 562 56 468 q 210 715 138 655 q 376 791 281 774 q 579 768 471 808 l 582 1183 q 607 1259 582 1234 q 662 1284 632 1284 q 717 1259 692 1284 q 742 1185 742 1234 l 742 91 m 218 358 q 260 232 218 273 q 361 184 302 191 q 480 199 419 176 q 579 263 541 221 l 579 568 q 494 622 537 608 q 410 630 450 636 q 334 600 369 624 q 274 540 300 576 q 233 456 248 503 q 218 358 218 410 z "},"e":{"ha":772,"x_min":54,"x_max":719,"o":"m 385 -7 q 241 29 302 -7 q 138 124 179 65 q 75 258 96 183 q 54 411 54 332 q 76 567 54 491 q 141 703 98 643 q 250 799 184 762 q 404 836 316 836 q 528 809 472 836 q 624 738 585 783 q 685 634 663 693 q 707 511 707 575 q 703 475 707 495 q 690 437 699 454 q 667 408 681 420 q 632 396 652 396 l 218 382 q 233 299 221 342 q 267 222 244 256 q 324 165 290 187 q 403 142 358 142 q 505 174 463 142 q 582 250 548 206 q 613 277 597 269 q 646 285 629 285 q 684 273 666 285 q 710 243 701 262 q 716 201 719 224 q 693 156 713 179 q 642 102 670 130 q 576 49 613 73 q 492 9 538 24 q 385 -7 445 -7 m 541 557 q 496 656 534 623 q 411 690 458 690 q 351 679 378 690 q 300 647 323 667 q 262 600 278 627 q 236 545 245 574 q 279 543 252 544 q 339 543 305 543 q 441 545 387 543 q 541 557 495 548 z "},"f":{"ha":732,"x_min":54,"x_max":684,"o":"m 361 81 q 336 21 362 41 q 279 1 311 1 q 222 20 248 1 q 197 76 195 39 q 200 359 199 218 q 199 644 201 500 l 136 644 q 77 669 98 644 q 56 724 57 694 q 74 779 54 754 q 134 804 94 804 l 198 804 q 209 968 199 884 q 246 1120 218 1051 q 326 1234 274 1190 q 464 1278 378 1278 q 627 1208 571 1278 q 677 1013 684 1138 q 651 974 675 987 q 600 960 627 960 q 555 972 575 960 q 534 1009 536 983 q 530 1049 533 1029 q 521 1084 528 1069 q 503 1109 514 1100 q 476 1119 492 1119 q 410 1080 434 1119 q 374 990 385 1042 q 359 886 362 939 q 355 804 355 833 l 486 804 q 538 779 519 804 q 559 724 557 754 q 543 669 560 694 q 486 644 525 644 l 357 644 q 357 363 358 503 q 361 81 357 222 z "},"g":{"ha":781,"x_min":54,"x_max":727,"o":"m 563 100 q 463 36 517 56 q 363 15 408 16 q 228 45 286 12 q 132 135 170 79 q 74 264 94 191 q 54 412 54 336 q 73 560 54 487 q 128 690 91 633 q 221 782 165 747 q 350 817 277 817 q 447 798 393 817 q 552 739 500 779 q 583 810 556 787 q 640 833 610 834 q 694 806 670 831 q 719 727 719 780 q 722 542 719 636 q 726 354 726 448 q 725 171 727 260 q 712 0 723 81 q 673 -138 703 -73 q 600 -250 644 -202 q 496 -325 555 -297 q 365 -353 437 -353 q 206 -312 279 -355 q 95 -189 133 -269 q 97 -136 81 -160 q 140 -99 113 -111 q 197 -90 167 -87 q 243 -121 227 -94 q 286 -173 262 -152 q 357 -195 309 -194 q 435 -175 397 -195 q 500 -117 472 -155 q 546 -24 529 -79 q 563 100 563 31 m 552 528 q 459 625 510 594 q 361 654 408 656 q 281 614 313 651 q 232 523 248 576 q 216 407 216 469 q 233 292 216 345 q 283 205 250 240 q 368 171 316 170 q 465 205 415 172 q 552 298 514 237 l 552 528 z "},"h":{"ha":750,"x_min":56,"x_max":697,"o":"m 389 670 q 296 646 338 673 q 217 585 254 620 l 217 91 q 192 22 217 47 q 136 -5 167 -3 q 81 16 106 -7 q 56 91 56 38 l 57 1183 q 82 1259 57 1234 q 137 1284 107 1284 q 192 1259 167 1284 q 217 1185 217 1234 l 217 780 q 299 821 254 803 q 397 842 345 840 q 498 823 454 845 q 581 765 543 802 q 634 682 613 734 q 668 568 655 631 q 687 435 681 505 q 695 299 693 366 q 696 172 697 232 q 693 68 694 111 q 665 16 692 34 q 608 -4 639 -3 q 551 12 576 -5 q 528 65 526 28 q 530 131 529 85 q 529 234 530 176 q 524 355 528 292 q 511 477 519 419 q 490 578 503 534 q 457 642 476 623 q 389 670 431 667 z "},"i":{"ha":324,"x_min":64,"x_max":270,"o":"m 241 75 q 216 22 241 41 q 161 1 191 3 q 106 18 132 0 q 81 75 81 35 l 81 753 q 106 811 81 791 q 161 833 132 831 q 216 814 191 834 q 241 754 241 795 l 241 75 m 161 1114 q 222 1100 198 1115 q 258 1062 245 1085 q 270 1012 270 1039 q 259 962 270 985 q 226 923 248 939 q 171 906 203 907 q 116 921 138 906 q 81 958 94 936 q 66 1008 68 981 q 74 1058 64 1035 q 106 1097 84 1081 q 161 1114 127 1112 z "},"j":{"ha":326,"x_min":-248,"x_max":274,"o":"m 96 762 q 119 812 95 792 q 172 835 142 831 q 229 822 202 838 q 256 762 255 806 q 270 397 266 579 q 259 31 274 214 q 238 -105 254 -38 q 192 -224 222 -172 q 113 -309 161 -277 q -7 -342 65 -342 q -92 -329 -52 -342 q -163 -292 -132 -316 q -215 -234 -194 -269 q -243 -155 -236 -199 q -228 -105 -248 -125 q -180 -80 -208 -85 q -125 -85 -152 -75 q -90 -129 -98 -96 q -60 -172 -83 -157 q -12 -183 -37 -186 q 37 -159 16 -179 q 70 -106 57 -138 q 90 -35 83 -75 q 102 47 98 5 q 111 220 110 129 q 111 405 113 312 q 104 589 109 498 q 96 762 100 681 m 161 1114 q 222 1100 198 1115 q 258 1062 245 1085 q 270 1012 270 1039 q 259 962 270 985 q 226 923 248 939 q 171 906 203 907 q 116 921 138 906 q 81 958 94 936 q 66 1008 68 981 q 74 1058 64 1035 q 106 1097 84 1081 q 161 1114 127 1112 z "},"k":{"ha":711,"x_min":56,"x_max":663,"o":"m 643 141 q 652 61 663 96 q 612 10 640 26 q 551 5 585 -5 q 492 65 517 16 l 267 518 l 231 494 q 230 378 231 445 q 229 248 229 311 q 229 135 229 184 q 228 71 229 85 q 199 14 225 34 q 143 -6 174 -5 q 87 11 113 -7 q 61 65 62 28 q 58 212 60 127 q 56 393 57 296 q 56 595 56 490 q 56 804 56 700 q 57 1008 56 909 q 61 1191 58 1107 q 87 1262 62 1240 q 143 1282 113 1284 q 199 1257 174 1280 q 225 1191 224 1234 q 228 1072 228 1138 q 228 935 228 1005 q 227 799 228 865 q 228 680 227 732 l 448 827 q 537 857 500 863 q 590 827 574 852 q 601 768 606 802 q 563 712 595 734 l 414 612 q 425 587 414 610 q 454 526 435 563 q 497 440 473 488 q 546 340 521 392 q 596 237 571 289 q 643 141 621 186 z "},"l":{"ha":270,"x_min":54,"x_max":216,"o":"m 216 91 q 188 20 216 45 q 129 -5 160 -5 q 77 18 100 -5 q 54 91 54 41 l 56 1183 q 80 1259 56 1234 q 136 1284 104 1284 q 191 1259 165 1284 q 216 1185 216 1234 l 216 91 z "},"m":{"ha":1073,"x_min":54,"x_max":1017,"o":"m 214 75 q 189 22 214 41 q 134 1 164 3 q 79 18 104 0 q 54 75 54 35 l 54 753 q 75 808 54 788 q 123 833 96 829 q 174 827 149 838 q 209 785 199 815 q 283 822 241 808 q 369 833 324 836 q 460 808 414 830 q 549 734 507 785 q 595 779 570 761 q 648 810 621 798 q 702 827 675 822 q 750 833 728 833 q 894 777 836 831 q 983 628 952 722 q 1011 486 1006 559 q 1017 339 1016 412 q 1017 283 1017 319 q 1017 208 1017 247 q 1016 134 1016 170 q 1016 77 1016 98 q 991 26 1016 45 q 937 5 967 7 q 883 18 907 3 q 859 71 859 34 q 859 126 859 91 q 859 199 859 161 q 859 273 859 237 q 859 330 859 309 q 853 458 857 393 q 830 583 849 522 q 793 643 818 620 q 742 666 769 666 q 699 651 718 666 q 666 614 680 636 q 644 569 652 593 q 631 528 635 545 q 620 426 623 487 q 618 302 617 365 q 620 182 618 239 q 620 90 621 125 q 593 41 618 57 q 536 24 567 24 q 481 40 506 24 q 456 87 456 56 q 456 135 456 102 q 457 212 457 168 q 456 307 457 256 q 452 409 454 358 q 444 505 449 460 q 433 582 439 549 q 393 646 423 623 q 329 667 363 669 q 263 635 294 665 q 221 544 232 606 q 212 463 214 510 q 208 366 209 416 q 208 264 208 315 q 210 174 209 214 q 213 106 212 133 q 214 75 214 79 z "},"n":{"ha":741,"x_min":56,"x_max":686,"o":"m 385 659 q 294 635 334 662 q 217 574 254 609 l 217 91 q 192 22 217 47 q 136 -5 167 -3 q 81 16 106 -7 q 56 91 56 38 l 57 747 q 82 812 57 789 q 137 837 107 834 q 192 823 167 840 q 217 769 217 806 q 297 810 254 792 q 393 831 340 829 q 513 804 464 834 q 593 726 562 774 q 643 617 625 677 q 669 500 661 557 q 681 383 677 444 q 686 266 685 323 q 686 158 686 209 q 684 68 685 107 q 656 16 682 34 q 598 -4 629 -3 q 542 12 567 -5 q 518 65 517 28 q 520 133 519 87 q 519 237 521 179 q 513 359 518 296 q 500 480 509 423 q 490 536 496 506 q 471 593 484 567 q 438 639 458 620 q 385 659 418 658 z "},"o":{"ha":799,"x_min":53,"x_max":746,"o":"m 381 7 q 237 45 298 11 q 136 132 176 79 q 75 253 95 186 q 56 389 56 320 q 74 548 53 468 q 141 692 95 628 q 256 794 187 755 q 419 827 326 833 q 564 785 502 823 q 667 686 627 746 q 727 551 708 627 q 744 399 746 476 q 718 250 742 323 q 649 122 694 178 q 536 35 604 66 q 381 7 469 3 l 381 7 m 412 670 q 345 662 380 674 q 280 617 309 650 q 232 529 251 585 q 213 391 213 473 q 222 309 213 351 q 254 231 232 266 q 311 174 275 197 q 397 152 346 152 q 504 189 463 153 q 565 280 545 225 q 583 399 585 335 q 562 522 582 464 q 505 621 543 579 q 412 670 467 662 l 412 670 z "},"p":{"ha":793,"x_min":54,"x_max":747,"o":"m 210 776 q 317 814 260 803 q 429 819 373 825 q 538 791 486 812 q 631 732 590 770 q 701 639 673 693 q 735 514 728 585 q 713 286 747 389 q 608 117 678 183 q 439 30 538 50 q 220 49 339 9 l 216 -248 q 191 -322 216 -297 q 136 -347 165 -347 q 81 -322 106 -347 q 56 -245 56 -297 l 54 741 q 75 810 54 787 q 121 836 95 833 q 174 823 148 838 q 210 776 199 807 m 222 231 q 365 189 296 184 q 485 235 434 194 q 562 345 536 275 q 575 499 587 415 q 524 604 566 567 q 429 652 483 642 q 317 648 374 663 q 220 594 260 633 l 222 231 z "},"q":{"ha":779,"x_min":53,"x_max":724,"o":"m 724 -269 q 699 -321 724 -302 q 644 -342 674 -340 q 589 -326 614 -343 q 564 -269 564 -308 l 564 49 q 476 14 521 26 q 396 1 431 1 q 248 35 311 1 q 142 123 184 68 q 77 249 99 178 q 54 397 56 320 q 75 552 53 476 q 140 689 96 628 q 250 788 183 750 q 406 830 316 826 q 487 821 444 831 q 572 789 530 811 q 610 825 585 814 q 661 831 635 836 q 705 808 686 827 q 724 754 724 789 l 724 -269 m 564 576 q 498 646 541 627 q 411 665 454 665 q 327 640 363 663 q 266 581 290 617 q 229 498 241 544 q 214 403 216 452 q 224 312 213 355 q 256 235 235 269 q 312 181 278 201 q 392 161 346 161 q 491 184 454 161 q 564 244 528 208 l 564 576 z "},"r":{"ha":661,"x_min":54,"x_max":608,"o":"m 217 96 q 189 30 217 54 q 129 5 160 5 q 77 27 99 5 q 54 96 54 49 l 54 726 q 81 806 54 779 q 140 833 107 833 q 181 821 161 833 q 212 781 201 808 l 212 783 q 291 821 245 808 q 378 833 336 833 l 391 833 q 486 810 445 831 q 555 752 528 788 q 595 669 582 716 q 605 571 608 623 q 579 532 604 545 q 528 518 555 518 q 484 530 503 518 q 463 567 464 541 q 444 646 460 614 q 380 678 427 677 q 324 665 351 678 q 275 627 297 651 q 239 571 254 602 q 220 505 224 540 q 212 398 213 453 q 212 290 210 343 q 215 186 213 236 q 217 96 217 137 z "},"s":{"ha":716,"x_min":52,"x_max":666,"o":"m 213 600 q 235 554 214 570 q 290 530 256 538 q 366 518 324 522 q 452 507 408 514 q 535 486 495 499 q 605 445 575 472 q 650 373 635 418 q 659 259 666 328 q 633 164 654 210 q 575 81 612 118 q 486 22 538 45 q 368 0 434 0 q 218 30 294 0 q 87 107 141 60 q 59 164 61 130 q 71 224 57 198 q 110 260 84 251 q 168 240 136 269 q 210 209 186 224 q 258 182 233 194 q 307 163 282 171 q 350 156 331 156 q 413 166 385 156 q 460 193 441 176 q 490 229 479 209 q 503 270 502 250 q 475 337 507 319 q 391 363 442 355 q 279 376 339 370 q 168 403 220 381 q 84 471 117 425 q 56 609 52 518 q 88 720 58 674 q 165 791 118 765 q 269 827 212 818 q 385 833 327 837 q 476 817 433 829 q 555 785 519 804 q 614 727 601 761 q 616 667 627 693 q 577 629 606 640 q 509 636 548 617 q 451 659 490 646 q 365 675 412 673 q 307 674 335 677 q 258 663 279 671 q 224 640 237 655 q 213 600 212 624 z "},"t":{"ha":651,"x_min":14,"x_max":637,"o":"m 406 91 q 378 20 406 45 q 319 -5 350 -5 q 267 18 290 -5 q 244 91 244 41 l 245 644 l 95 644 q 37 669 57 644 q 15 724 16 694 q 33 779 14 754 q 94 804 53 804 l 245 804 l 245 1183 q 270 1259 245 1234 q 326 1284 294 1284 q 380 1259 355 1284 q 406 1185 406 1234 l 406 804 l 563 804 q 616 779 597 804 q 636 724 635 754 q 620 669 637 694 q 563 644 602 644 l 406 644 l 406 91 z "},"u":{"ha":785,"x_min":54,"x_max":731,"o":"m 731 96 q 708 35 731 58 q 656 6 685 11 q 603 18 628 1 q 572 79 578 35 q 479 26 529 46 q 377 8 429 7 q 234 46 292 11 q 140 138 176 81 q 86 270 104 195 q 61 427 68 345 q 56 596 54 510 q 60 761 57 682 q 85 817 61 798 q 138 837 110 836 q 192 821 167 838 q 218 768 217 803 q 219 718 220 747 q 217 652 218 688 q 216 574 216 616 q 217 491 216 533 q 230 375 220 433 q 258 273 240 317 q 304 200 277 228 q 372 174 332 172 q 460 199 423 175 q 522 263 498 224 q 559 352 547 302 q 571 453 571 401 l 571 753 q 596 813 571 792 q 651 835 621 834 q 706 816 681 836 q 731 754 731 796 l 731 96 z "},"v":{"ha":783,"x_min":47,"x_max":736,"o":"m 509 85 q 464 23 495 45 q 397 0 433 1 q 330 17 362 -1 q 283 72 298 35 q 229 216 260 129 q 165 395 197 302 q 106 575 134 488 q 60 718 77 662 q 63 789 47 758 q 105 831 79 819 q 161 833 132 844 q 206 781 190 823 q 233 706 216 755 q 270 597 250 656 q 311 475 290 538 q 349 360 332 412 q 378 273 366 308 q 391 235 389 239 l 562 769 q 610 833 578 818 q 673 838 643 849 q 720 793 703 826 q 720 713 736 761 l 509 85 z "},"w":{"ha":1238,"x_min":47,"x_max":1191,"o":"m 509 85 q 464 23 495 45 q 397 0 433 1 q 330 17 362 -1 q 283 72 298 35 q 229 216 260 129 q 165 395 197 302 q 106 575 134 488 q 60 718 77 662 q 63 789 47 758 q 105 831 79 819 q 161 833 132 844 q 206 781 190 823 q 233 706 216 755 q 270 597 250 656 q 311 475 290 538 q 349 360 332 412 q 378 273 366 308 q 391 235 389 239 l 530 670 q 543 702 536 686 q 562 730 551 718 q 587 750 572 742 q 620 758 602 758 q 678 730 658 758 q 708 670 699 701 l 848 235 q 861 273 849 239 q 889 360 872 308 q 927 475 906 412 q 968 597 948 538 q 1006 706 989 656 q 1032 781 1023 755 q 1078 833 1048 823 q 1133 831 1107 844 q 1175 789 1160 819 q 1179 718 1191 758 q 1133 575 1161 662 q 1073 395 1104 488 q 1010 216 1042 302 q 955 72 978 129 q 908 17 940 35 q 841 0 876 -1 q 774 23 806 1 q 730 85 743 45 l 618 414 l 509 85 z "},"x":{"ha":730,"x_min":49,"x_max":682,"o":"m 663 119 q 671 63 682 92 q 636 17 661 34 q 581 2 612 0 q 526 37 549 4 l 365 277 l 203 37 q 151 2 182 4 q 94 17 119 0 q 59 63 69 34 q 66 119 49 92 l 269 420 l 73 711 q 62 772 53 742 q 97 819 72 803 q 154 833 122 836 q 209 796 186 830 l 365 564 l 521 796 q 576 833 544 830 q 633 819 608 836 q 668 772 658 803 q 656 711 678 742 l 461 420 l 663 119 z "},"y":{"ha":856,"x_min":52,"x_max":804,"o":"m 463 -285 q 431 -331 452 -317 q 387 -345 410 -345 q 349 -337 368 -345 q 318 -317 331 -330 q 300 -287 305 -304 q 300 -251 294 -270 l 397 62 l 64 716 q 54 761 52 739 q 69 799 57 783 q 100 825 81 815 q 138 836 118 836 q 175 825 157 836 q 205 791 193 814 l 468 275 l 636 787 q 665 827 646 815 q 707 840 684 840 q 745 831 726 840 q 778 809 764 823 q 798 777 792 795 q 798 739 804 760 l 463 -285 z "},"z":{"ha":726,"x_min":52,"x_max":675,"o":"m 170 -1 q 90 21 115 -1 q 58 74 64 43 q 61 137 52 104 q 85 190 71 170 l 465 677 l 149 670 q 85 693 107 669 q 60 747 62 718 q 77 801 58 776 q 138 827 96 826 q 243 829 195 829 q 338 828 292 829 q 433 827 384 827 q 544 829 483 827 q 625 812 594 830 q 665 763 655 793 q 666 694 675 732 q 625 616 656 655 l 267 156 l 568 159 q 638 135 614 159 q 663 82 662 111 q 640 28 663 53 q 568 3 616 3 l 170 -1 z "},"{":{"ha":686,"x_min":54,"x_max":633,"o":"m 232 426 q 181 459 212 446 q 122 485 151 472 q 74 515 94 498 q 56 566 54 533 q 75 614 57 597 q 121 641 94 631 q 177 657 148 651 q 228 674 206 663 q 258 704 250 685 q 252 757 267 723 q 227 875 231 807 q 237 1016 224 943 q 277 1162 250 1089 q 346 1293 305 1234 q 439 1389 387 1351 q 553 1432 492 1427 q 608 1415 589 1435 q 630 1369 627 1396 q 622 1319 633 1343 q 583 1291 610 1295 q 515 1256 547 1284 q 459 1183 483 1227 q 420 1085 435 1139 q 399 974 404 1031 q 401 861 395 917 q 430 757 408 804 q 432 653 453 703 q 323 553 411 604 q 408 442 378 500 q 445 334 437 384 q 449 255 450 298 q 446 167 448 212 q 445 79 444 122 q 456 3 446 37 q 488 -51 465 -30 q 551 -73 510 -72 q 595 -102 581 -75 q 608 -159 609 -129 q 592 -215 608 -190 q 544 -237 576 -240 q 418 -205 467 -232 q 341 -139 369 -179 q 302 -49 313 -99 q 289 57 292 1 q 288 170 286 113 q 286 278 289 227 q 273 356 283 319 q 232 426 263 393 z "},"|":{"ha":270,"x_min":54,"x_max":216,"o":"m 216 91 q 191 22 216 47 q 135 -5 165 -3 q 79 16 104 -7 q 54 91 54 38 l 56 1183 q 81 1259 56 1234 q 136 1284 106 1284 q 191 1259 165 1284 q 216 1185 216 1234 l 216 91 z "},"}":{"ha":686,"x_min":53,"x_max":636,"o":"m 434 757 q 429 704 419 723 q 463 673 439 685 q 517 654 486 662 q 575 636 548 647 q 619 606 602 625 q 631 553 636 587 q 606 509 627 525 q 559 482 586 494 q 503 458 532 471 q 454 426 475 446 q 413 356 423 393 q 400 278 403 319 q 399 170 397 227 q 397 57 400 113 q 384 -49 395 1 q 345 -139 373 -99 q 269 -205 317 -179 q 142 -237 220 -232 q 94 -215 110 -240 q 78 -159 79 -190 q 92 -101 77 -127 q 136 -73 106 -75 q 199 -51 176 -72 q 231 4 221 -30 q 241 81 240 38 q 241 168 243 123 q 237 255 239 212 q 241 334 236 298 q 279 442 250 384 q 363 553 308 500 q 254 653 275 604 q 256 757 233 703 q 285 861 278 804 q 287 974 292 917 q 267 1085 282 1031 q 227 1183 251 1139 q 172 1256 203 1227 q 103 1291 140 1284 q 64 1319 76 1295 q 56 1369 53 1343 q 79 1415 60 1396 q 133 1432 98 1435 q 248 1389 195 1427 q 340 1293 300 1351 q 409 1162 381 1234 q 450 1016 437 1089 q 459 875 463 943 q 434 757 456 807 z "},"~":{"ha":857,"x_min":54,"x_max":807,"o":"m 137 416 q 79 437 103 416 q 54 492 54 458 q 78 567 56 533 q 135 627 100 601 q 210 667 170 652 q 286 681 250 681 q 361 665 327 681 q 427 632 395 650 q 490 602 458 614 q 556 593 521 589 q 612 620 593 598 q 645 665 631 642 q 675 707 659 688 q 722 726 692 726 q 761 715 745 726 q 788 688 777 704 q 800 625 807 658 q 770 555 793 591 q 670 457 731 494 q 534 420 609 420 q 462 435 492 420 q 404 467 431 450 q 349 499 377 484 q 286 514 321 514 q 235 499 252 514 q 205 466 218 484 q 179 432 193 448 q 137 416 165 416 z "},"":{"ha":315,"x_min":54,"x_max":262,"o":"m 83 907 q 108 968 83 948 q 163 986 133 987 q 218 964 193 985 q 243 906 243 944 l 243 30 q 218 -27 243 -9 q 163 -43 193 -45 q 108 -23 133 -42 q 83 30 83 -4 l 83 907 m 163 1267 q 220 1251 198 1267 q 252 1211 241 1234 q 260 1161 262 1188 q 245 1112 258 1134 q 209 1074 232 1089 q 153 1059 186 1059 q 98 1076 121 1061 q 65 1115 76 1092 q 55 1165 54 1138 q 67 1215 56 1192 q 103 1253 79 1238 q 163 1267 127 1267 z "},"":{"ha":762,"x_min":54,"x_max":711,"o":"m 476 125 q 451 56 476 81 q 395 29 426 31 q 340 50 365 27 q 315 125 315 72 l 315 145 q 203 200 251 161 q 122 292 155 239 q 73 409 90 345 q 56 540 57 473 q 71 674 54 608 q 119 798 87 741 q 201 897 152 854 q 316 959 250 939 l 316 985 q 341 1061 316 1036 q 396 1086 366 1086 q 451 1061 426 1086 q 476 987 476 1036 l 476 966 q 550 940 513 958 q 618 894 587 922 q 671 827 648 865 q 701 739 693 788 q 688 682 708 704 q 641 654 669 661 q 587 658 613 648 q 553 693 562 667 q 522 760 541 735 q 476 795 502 784 l 476 312 q 537 352 510 327 q 597 410 564 377 q 643 421 617 429 q 686 391 669 414 q 707 336 704 368 q 686 274 711 304 q 592 197 651 231 q 476 148 533 164 l 476 125 m 316 776 q 242 677 267 741 q 216 545 217 613 q 239 410 214 473 q 316 316 264 346 l 316 776 z "},"":{"ha":732,"x_min":54,"x_max":684,"o":"m 581 165 q 633 140 617 165 q 648 86 650 115 q 629 32 647 57 q 575 7 610 7 l 313 7 q 270 12 292 7 q 232 29 248 16 q 206 64 216 42 q 198 121 197 87 q 201 382 201 252 q 199 644 201 513 l 136 644 q 77 669 98 644 q 56 724 57 694 q 74 779 54 754 q 134 804 94 804 l 198 804 q 209 968 199 884 q 246 1120 218 1051 q 326 1234 274 1190 q 464 1278 378 1278 q 627 1208 571 1278 q 677 1013 684 1138 q 654 976 675 990 q 606 960 632 962 q 558 970 581 959 q 534 1009 536 982 q 530 1051 533 1031 q 519 1088 526 1072 q 500 1113 511 1104 q 469 1119 488 1122 q 412 1085 434 1115 q 378 1010 391 1055 q 361 911 366 966 q 355 804 357 857 l 486 804 q 538 779 519 804 q 559 724 557 754 q 543 669 560 694 q 486 644 525 644 l 357 644 q 357 406 358 525 q 359 165 357 286 l 581 165 z "},"":{"ha":562,"x_min":50,"x_max":513,"o":"m 262 850 q 355 834 316 853 l 395 892 q 435 920 411 917 q 477 910 458 922 q 502 876 495 898 q 494 830 509 853 l 444 755 q 478 621 479 694 q 438 490 477 547 l 499 400 q 505 359 513 380 q 478 325 496 338 q 437 313 460 312 q 399 338 415 313 l 343 422 q 288 414 319 414 q 252 415 269 412 q 220 422 235 418 l 163 338 q 124 313 146 313 q 83 325 102 312 q 58 359 65 338 q 64 400 50 380 l 123 488 q 90 553 102 517 q 76 626 77 589 q 83 699 75 663 q 113 765 92 735 l 69 830 q 60 876 53 853 q 86 910 68 898 q 128 920 104 922 q 168 892 152 917 l 203 838 q 262 850 229 846 m 279 560 q 317 582 307 560 q 326 630 328 604 q 311 678 324 656 q 275 700 297 700 q 235 678 250 700 q 220 630 220 656 q 234 582 220 604 q 279 560 248 560 z "},"":{"ha":949,"x_min":54,"x_max":897,"o":"m 564 609 l 715 609 q 768 584 751 609 q 783 530 784 559 q 763 475 781 500 q 709 450 745 450 l 564 450 l 563 323 l 715 323 q 768 298 751 323 q 783 243 784 273 q 763 189 781 214 q 709 164 745 164 l 563 164 l 563 85 q 535 24 563 45 q 473 2 507 3 q 412 22 439 1 q 384 85 384 43 l 384 164 l 233 164 q 184 189 199 164 q 169 243 168 214 q 186 298 170 273 q 233 323 203 323 l 385 323 l 385 450 l 233 450 q 184 475 199 450 q 169 530 168 500 q 186 584 170 559 q 233 609 203 609 l 387 609 l 387 625 l 68 1145 q 56 1192 54 1168 q 69 1234 57 1215 q 101 1265 81 1253 q 144 1278 121 1278 q 190 1266 167 1279 q 231 1221 213 1253 l 475 795 l 720 1221 q 762 1266 739 1253 q 807 1278 784 1279 q 850 1265 830 1278 q 882 1234 869 1253 q 895 1192 894 1215 q 883 1145 897 1168 l 564 625 l 564 609 z "},"":{"ha":715,"x_min":52,"x_max":665,"o":"m 212 994 q 233 942 213 964 q 283 905 252 920 q 355 881 315 890 q 439 869 396 872 q 538 848 495 865 q 609 801 581 831 q 650 725 637 770 q 658 617 663 680 q 608 488 654 545 q 650 420 636 463 q 658 311 665 378 q 632 216 654 262 q 574 133 610 170 q 485 74 537 96 q 366 52 433 52 q 216 81 293 52 q 85 159 140 111 q 58 216 60 182 q 69 276 56 250 q 109 311 83 302 q 167 292 134 320 q 208 260 184 275 q 256 234 232 245 q 305 215 281 222 q 349 208 330 208 q 412 218 384 208 q 459 244 439 228 q 490 281 479 260 q 502 321 500 301 q 489 376 506 359 q 446 396 472 392 q 391 396 420 400 q 340 391 362 392 q 247 399 298 388 q 152 437 195 410 q 80 510 109 464 q 54 624 52 556 q 81 726 57 682 q 142 802 104 770 q 77 876 102 829 q 54 1004 52 922 q 87 1114 57 1069 q 163 1186 117 1160 q 268 1222 210 1213 q 384 1227 326 1232 q 475 1211 431 1223 q 553 1180 518 1199 q 612 1122 600 1156 q 615 1061 625 1088 q 576 1023 605 1035 q 507 1031 547 1012 q 450 1054 488 1040 q 363 1070 411 1067 q 307 1069 334 1072 q 258 1058 279 1066 q 224 1034 236 1050 q 212 994 212 1019 m 363 712 q 264 692 305 716 q 213 638 224 669 q 228 580 202 608 q 328 547 254 552 q 418 553 380 543 q 478 581 456 563 q 506 619 500 598 q 498 660 511 640 q 451 694 484 680 q 363 712 418 709 z "},"":{"ha":625,"x_min":49,"x_max":575,"o":"m 148 1084 q 231 1064 199 1090 q 268 1000 262 1038 q 253 926 274 962 q 178 879 232 890 q 94 896 126 868 q 56 963 62 924 q 71 1039 49 1002 q 148 1084 92 1076 m 449 1084 q 532 1064 500 1090 q 569 1000 563 1038 q 554 926 575 962 q 479 879 533 890 q 395 896 427 868 q 357 963 363 924 q 372 1039 350 1002 q 449 1084 393 1076 z "},"":{"ha":1206,"x_min":54,"x_max":1154,"o":"m 1150 644 q 1120 407 1154 518 q 1016 214 1085 296 q 846 84 947 132 q 614 37 745 37 q 380 84 484 37 q 203 214 275 132 q 92 406 130 296 q 56 644 54 517 q 94 869 57 760 q 201 1065 130 979 q 375 1202 271 1150 q 614 1251 479 1253 q 840 1196 742 1249 q 1006 1058 939 1143 q 1110 865 1074 972 q 1150 644 1146 757 m 1016 644 q 990 819 1015 734 q 917 970 966 905 q 795 1077 868 1036 q 625 1119 723 1118 q 445 1082 525 1120 q 309 979 365 1044 q 224 828 254 914 q 194 644 194 742 q 220 471 194 556 q 300 320 245 387 q 435 213 354 254 q 627 172 517 172 q 799 213 726 172 q 921 320 872 254 q 993 471 970 387 q 1016 644 1016 556 m 602 273 q 469 304 526 273 q 373 386 411 335 q 315 502 335 437 q 294 636 296 567 q 313 775 294 707 q 372 899 332 844 q 471 988 411 954 q 612 1025 530 1023 q 692 1015 650 1027 q 773 977 735 1002 q 839 911 811 951 q 876 815 867 871 q 864 764 882 784 q 822 739 846 745 q 774 742 798 734 q 743 773 750 750 q 692 855 726 833 q 616 876 659 878 q 541 855 574 876 q 485 801 507 834 q 451 726 463 768 q 439 640 439 684 q 448 558 438 598 q 477 486 457 518 q 528 435 498 454 q 600 416 559 416 q 656 424 632 416 q 701 445 681 431 q 741 477 722 458 q 783 518 760 496 q 823 529 800 536 q 863 502 846 522 q 882 452 879 481 q 863 396 886 423 q 808 347 841 370 q 739 308 774 324 q 667 282 703 292 q 602 273 631 273 z "},"":{"ha":1020,"x_min":53,"x_max":968,"o":"m 91 179 q 62 221 71 190 q 56 288 53 252 q 76 355 60 323 q 121 401 92 388 l 388 533 q 444 533 420 549 q 477 488 467 517 q 481 429 487 460 q 448 385 475 399 l 227 278 l 444 170 q 479 123 476 153 q 467 67 481 94 q 427 26 453 41 q 374 26 401 12 l 91 179 m 572 179 q 543 221 552 190 q 538 288 534 252 q 557 355 541 323 q 602 401 574 388 l 869 533 q 925 533 902 549 q 958 488 948 517 q 962 429 968 460 q 929 385 956 399 l 708 278 l 925 170 q 960 123 958 153 q 949 67 963 94 q 909 26 935 41 q 856 26 883 12 l 572 179 z "},"":{"ha":1206,"x_min":54,"x_max":1154,"o":"m 1150 644 q 1120 407 1154 518 q 1016 214 1085 296 q 846 84 947 132 q 614 37 745 37 q 380 84 484 37 q 203 214 275 132 q 92 406 130 296 q 56 644 54 517 q 94 869 57 760 q 201 1065 130 979 q 375 1202 271 1150 q 614 1251 479 1253 q 840 1196 742 1249 q 1006 1058 939 1143 q 1110 865 1074 972 q 1150 644 1146 757 m 1016 644 q 990 819 1015 734 q 917 970 966 905 q 795 1077 868 1036 q 625 1119 723 1118 q 445 1082 525 1120 q 309 979 365 1044 q 224 828 254 914 q 194 644 194 742 q 220 471 194 556 q 300 320 245 387 q 435 213 354 254 q 627 172 517 172 q 799 213 726 172 q 921 320 872 254 q 993 471 970 387 q 1016 644 1016 556 m 532 324 q 513 284 532 298 q 473 269 495 270 q 433 281 452 267 q 415 324 415 294 l 416 949 q 441 1007 416 989 q 522 1027 467 1025 q 637 1019 579 1029 q 740 983 694 1009 q 812 911 785 956 q 836 796 840 865 q 815 711 833 749 q 769 646 798 674 q 704 601 741 618 q 627 575 667 583 l 830 346 q 831 313 844 331 q 797 283 819 296 q 749 271 774 271 q 709 288 724 270 l 532 511 l 532 324 m 532 697 q 599 691 566 689 q 659 705 632 693 q 703 743 686 718 q 718 807 719 768 q 703 859 718 838 q 662 892 688 880 q 603 906 636 903 q 532 905 570 909 l 532 697 z "},"":{"ha":724,"x_min":54,"x_max":670,"o":"m 119 890 q 70 915 85 890 q 55 969 54 940 q 73 1023 56 998 q 119 1048 90 1048 l 601 1048 q 654 1023 637 1048 q 669 969 670 998 q 649 915 667 940 q 595 890 631 890 l 119 890 z "},"":{"ha":513,"x_min":53,"x_max":461,"o":"m 241 1232 q 356 1206 309 1236 q 429 1128 403 1176 q 458 1022 454 1080 q 441 914 461 964 q 378 830 420 864 q 267 795 335 796 q 154 824 201 793 q 83 902 107 854 q 56 1005 58 949 q 73 1109 53 1061 q 134 1193 92 1158 q 241 1232 176 1227 m 259 941 q 297 964 286 941 q 306 1013 308 986 q 290 1061 304 1039 q 255 1082 277 1082 q 214 1061 229 1082 q 199 1013 199 1039 q 214 964 199 986 q 259 941 228 941 z "},"":{"ha":724,"x_min":54,"x_max":670,"o":"m 119 600 q 70 625 85 600 q 55 679 54 650 q 73 733 56 708 q 119 758 90 758 l 281 758 l 281 920 q 306 972 281 956 q 360 987 331 989 q 414 968 389 986 q 439 914 439 949 l 439 758 l 601 758 q 654 733 637 758 q 669 679 670 708 q 649 625 667 650 q 595 600 631 600 l 439 600 l 439 438 q 414 389 439 404 q 360 374 389 373 q 306 391 331 374 q 281 438 281 408 l 281 600 l 119 600 m 119 168 q 70 193 85 168 q 55 248 54 218 q 73 302 56 277 q 119 327 90 327 l 601 327 q 654 302 637 327 q 669 248 670 277 q 649 193 667 218 q 595 168 631 168 l 119 168 z "},"":{"ha":430,"x_min":50,"x_max":381,"o":"m 245 1145 q 296 1158 267 1165 q 347 1131 326 1152 q 374 1082 368 1109 q 358 1032 381 1054 l 191 878 q 139 863 170 857 q 85 887 109 868 q 56 934 62 906 q 76 986 50 962 l 245 1145 z "},"":{"ha":336,"x_min":49,"x_max":274,"o":"m 148 587 q 231 568 199 594 q 268 503 262 541 q 253 429 274 465 q 178 382 232 393 q 94 399 126 372 q 56 467 62 427 q 71 543 49 506 q 148 587 92 579 z "},"":{"ha":387,"x_min":56,"x_max":335,"o":"m 164 -12 q 263 -43 225 -15 q 318 -113 301 -72 q 331 -200 335 -153 q 303 -286 327 -247 q 237 -351 279 -326 q 134 -373 194 -376 q 95 -355 109 -373 q 80 -315 81 -336 q 90 -275 79 -293 q 122 -259 100 -258 q 194 -242 171 -263 q 217 -196 217 -221 q 195 -151 217 -171 q 129 -134 172 -130 q 85 -130 100 -137 q 64 -101 71 -123 q 56 -38 57 -79 q 56 69 56 3 l 167 69 l 164 -12 z "},"":{"ha":1019,"x_min":52,"x_max":967,"o":"m 646 26 q 593 26 620 12 q 552 67 567 41 q 541 123 537 94 q 576 170 544 153 l 793 278 l 572 385 q 539 429 545 399 q 543 488 533 460 q 576 533 552 517 q 632 533 600 549 l 899 401 q 943 355 928 388 q 963 288 959 323 q 958 221 967 252 q 929 179 949 190 l 646 26 m 164 26 q 112 26 138 12 q 71 67 85 41 q 59 123 56 94 q 95 170 62 153 l 312 278 l 91 385 q 58 429 64 399 q 61 488 52 460 q 94 533 71 517 q 151 533 118 549 l 418 401 q 462 355 446 388 q 481 288 477 323 q 477 221 486 252 q 448 179 468 190 l 164 26 z "},"":{"ha":769,"x_min":49,"x_max":715,"o":"m 330 780 q 352 828 330 811 q 401 846 374 845 q 452 829 429 846 q 476 777 475 812 l 479 639 q 477 571 479 602 q 466 516 476 540 q 435 477 456 492 q 377 458 415 463 q 263 399 309 452 q 220 241 217 346 q 234 177 221 209 q 269 120 247 145 q 322 81 292 95 q 387 68 353 66 q 453 80 419 69 q 513 111 487 91 q 557 163 540 132 q 574 235 574 194 q 595 274 574 260 q 644 287 617 288 q 692 271 670 286 q 715 221 715 255 q 689 105 715 160 q 618 9 663 50 q 515 -56 574 -31 q 391 -80 456 -80 q 264 -56 321 -80 q 163 10 206 -33 q 92 111 119 53 q 57 235 65 168 q 68 360 49 298 q 125 473 87 422 q 218 562 164 525 q 332 609 271 598 l 330 780 m 289 1057 q 294 1139 274 1103 q 358 1191 315 1176 q 436 1191 399 1204 q 491 1134 473 1177 q 498 1089 499 1112 q 488 1046 498 1066 q 457 1010 477 1025 q 406 990 437 994 q 330 1004 359 983 q 289 1057 300 1025 z "},"":{"ha":1002,"x_min":46,"x_max":954,"o":"m 381 1196 q 435 1265 400 1244 q 507 1284 469 1287 q 577 1257 544 1282 q 625 1187 610 1232 q 706 928 665 1072 q 788 635 747 784 q 868 344 829 487 q 945 84 907 201 q 933 37 954 60 q 884 6 913 15 q 825 8 854 -3 q 783 60 795 19 l 674 445 l 320 445 q 288 326 305 389 q 254 208 270 263 q 227 110 239 152 q 210 53 214 68 q 174 15 203 28 q 115 5 145 1 q 66 31 85 8 q 58 99 46 53 q 93 226 69 140 q 147 421 117 312 q 213 651 178 530 q 281 880 248 772 q 340 1074 313 989 q 381 1196 366 1158 m 499 1059 q 486 1013 499 1057 q 454 904 473 970 q 410 758 434 838 q 363 601 387 678 l 635 601 l 499 1059 m 358 1477 q 342 1527 335 1499 q 370 1575 349 1554 q 420 1603 391 1596 q 471 1590 449 1610 l 640 1431 q 661 1379 667 1407 q 631 1332 654 1351 q 577 1308 608 1313 q 525 1322 547 1302 l 358 1477 z "},"":{"ha":1002,"x_min":46,"x_max":954,"o":"m 381 1196 q 435 1265 400 1244 q 507 1284 469 1287 q 577 1257 544 1282 q 625 1187 610 1232 q 706 928 665 1072 q 788 635 747 784 q 868 344 829 487 q 945 84 907 201 q 933 37 954 60 q 884 6 913 15 q 825 8 854 -3 q 783 60 795 19 l 674 445 l 320 445 q 288 326 305 389 q 254 208 270 263 q 227 110 239 152 q 210 53 214 68 q 174 15 203 28 q 115 5 145 1 q 66 31 85 8 q 58 99 46 53 q 93 226 69 140 q 147 421 117 312 q 213 651 178 530 q 281 880 248 772 q 340 1074 313 989 q 381 1196 366 1158 m 499 1059 q 486 1013 499 1057 q 454 904 473 970 q 410 758 434 838 q 363 601 387 678 l 635 601 l 499 1059 m 532 1590 q 583 1603 553 1610 q 633 1575 612 1596 q 661 1527 654 1554 q 644 1477 667 1499 l 477 1322 q 425 1308 456 1302 q 372 1332 395 1313 q 342 1379 349 1351 q 362 1431 336 1407 l 532 1590 z "},"":{"ha":1002,"x_min":46,"x_max":954,"o":"m 381 1196 q 435 1265 400 1244 q 507 1284 469 1287 q 577 1257 544 1282 q 625 1187 610 1232 q 706 928 665 1072 q 788 635 747 784 q 868 344 829 487 q 945 84 907 201 q 933 37 954 60 q 884 6 913 15 q 825 8 854 -3 q 783 60 795 19 l 674 445 l 320 445 q 288 326 305 389 q 254 208 270 263 q 227 110 239 152 q 210 53 214 68 q 174 15 203 28 q 115 5 145 1 q 66 31 85 8 q 58 99 46 53 q 93 226 69 140 q 147 421 117 312 q 213 651 178 530 q 281 880 248 772 q 340 1074 313 989 q 381 1196 366 1158 m 499 1059 q 486 1013 499 1057 q 454 904 473 970 q 410 758 434 838 q 363 601 387 678 l 635 601 l 499 1059 m 380 1550 q 430 1611 399 1590 q 496 1635 461 1633 q 562 1619 530 1637 q 614 1563 594 1602 l 704 1388 q 703 1333 720 1355 q 656 1303 685 1312 q 595 1303 627 1295 q 552 1337 564 1310 l 494 1472 l 429 1324 q 394 1300 420 1305 q 342 1303 368 1295 q 300 1329 316 1310 q 297 1375 285 1348 l 380 1550 z "},"":{"ha":1002,"x_min":46,"x_max":954,"o":"m 381 1196 q 435 1265 400 1244 q 507 1284 469 1287 q 577 1257 544 1282 q 625 1187 610 1232 q 706 928 665 1072 q 788 635 747 784 q 868 344 829 487 q 945 84 907 201 q 933 37 954 60 q 884 6 913 15 q 825 8 854 -3 q 783 60 795 19 l 674 445 l 320 445 q 288 326 305 389 q 254 208 270 263 q 227 110 239 152 q 210 53 214 68 q 174 15 203 28 q 115 5 145 1 q 66 31 85 8 q 58 99 46 53 q 93 226 69 140 q 147 421 117 312 q 213 651 178 530 q 281 880 248 772 q 340 1074 313 989 q 381 1196 366 1158 m 499 1059 q 486 1013 499 1057 q 454 904 473 970 q 410 758 434 838 q 363 601 387 678 l 635 601 l 499 1059 m 210 1301 q 152 1321 176 1301 q 127 1377 127 1341 q 151 1451 129 1416 q 208 1511 174 1485 q 283 1551 243 1537 q 359 1565 323 1565 q 434 1550 400 1565 q 500 1516 468 1534 q 563 1485 532 1499 q 629 1477 594 1472 q 685 1503 666 1482 q 718 1548 704 1525 q 749 1591 732 1572 q 795 1610 765 1610 q 834 1599 818 1610 q 861 1572 850 1588 q 873 1508 880 1542 q 844 1439 867 1474 q 743 1341 804 1378 q 608 1305 682 1305 q 535 1320 566 1305 q 477 1352 505 1335 q 422 1383 450 1369 q 359 1398 395 1398 q 309 1383 326 1398 q 279 1350 292 1369 q 252 1316 266 1332 q 210 1301 239 1301 z "},"":{"ha":1002,"x_min":46,"x_max":954,"o":"m 381 1196 q 435 1265 400 1244 q 507 1284 469 1287 q 577 1257 544 1282 q 625 1187 610 1232 q 706 928 665 1072 q 788 635 747 784 q 868 344 829 487 q 945 84 907 201 q 933 37 954 60 q 884 6 913 15 q 825 8 854 -3 q 783 60 795 19 l 674 445 l 320 445 q 288 326 305 389 q 254 208 270 263 q 227 110 239 152 q 210 53 214 68 q 174 15 203 28 q 115 5 145 1 q 66 31 85 8 q 58 99 46 53 q 93 226 69 140 q 147 421 117 312 q 213 651 178 530 q 281 880 248 772 q 340 1074 313 989 q 381 1196 366 1158 m 499 1059 q 486 1013 499 1057 q 454 904 473 970 q 410 758 434 838 q 363 601 387 678 l 635 601 l 499 1059 m 336 1529 q 419 1509 388 1535 q 456 1444 450 1482 q 441 1371 463 1407 q 366 1324 420 1335 q 283 1341 315 1313 q 244 1408 251 1369 q 259 1484 237 1447 q 336 1529 281 1520 m 637 1529 q 720 1509 689 1535 q 758 1444 751 1482 q 743 1371 764 1407 q 667 1324 722 1335 q 584 1341 616 1313 q 545 1408 552 1369 q 560 1484 538 1447 q 637 1529 582 1520 z "},"":{"ha":1002,"x_min":46,"x_max":954,"o":"m 381 1196 q 435 1265 400 1244 q 507 1284 469 1287 q 577 1257 544 1282 q 625 1187 610 1232 q 706 928 665 1072 q 788 635 747 784 q 868 344 829 487 q 945 84 907 201 q 933 37 954 60 q 884 6 913 15 q 825 8 854 -3 q 783 60 795 19 l 674 445 l 320 445 q 288 326 305 389 q 254 208 270 263 q 227 110 239 152 q 210 53 214 68 q 174 15 203 28 q 115 5 145 1 q 66 31 85 8 q 58 99 46 53 q 93 226 69 140 q 147 421 117 312 q 213 651 178 530 q 281 880 248 772 q 340 1074 313 989 q 381 1196 366 1158 m 499 1059 q 486 1013 499 1057 q 454 904 473 970 q 410 758 434 838 q 363 601 387 678 l 635 601 l 499 1059 m 305 1427 q 338 1528 308 1488 q 411 1588 368 1568 q 505 1607 454 1607 q 598 1587 555 1607 q 670 1527 642 1567 q 699 1428 699 1488 q 669 1330 699 1370 q 597 1270 640 1290 q 502 1248 553 1249 q 407 1265 450 1246 q 334 1325 363 1284 q 305 1427 305 1366 m 444 1426 q 460 1394 442 1404 q 499 1385 477 1385 q 539 1396 521 1386 q 557 1424 557 1407 q 542 1458 559 1446 q 503 1472 525 1470 q 463 1462 481 1473 q 444 1426 445 1451 z "},"":{"ha":1389,"x_min":45,"x_max":1335,"o":"m 595 1192 q 638 1243 614 1225 q 690 1271 662 1261 q 748 1282 718 1280 q 811 1283 779 1283 q 985 1281 876 1283 q 1255 1279 1095 1279 q 1314 1255 1295 1279 q 1334 1201 1333 1230 q 1317 1147 1335 1172 q 1265 1122 1299 1122 q 1156 1122 1222 1122 q 1025 1123 1089 1122 q 909 1124 960 1124 q 845 1124 859 1124 l 845 720 l 1131 720 q 1179 694 1165 720 q 1192 638 1194 669 q 1175 583 1190 608 q 1135 560 1160 559 q 1052 562 1122 562 q 845 560 982 562 l 845 161 q 878 161 850 161 q 943 161 905 161 q 1028 161 982 161 q 1119 161 1074 161 q 1202 161 1164 161 q 1261 161 1240 161 q 1316 138 1298 161 q 1334 85 1335 114 q 1314 31 1333 56 q 1255 5 1294 7 q 996 1 1099 1 q 826 1 894 1 q 749 9 776 1 q 709 39 722 18 q 694 96 697 60 q 692 187 692 133 l 690 441 l 392 441 q 336 323 366 385 q 280 205 307 260 q 234 107 254 149 q 209 50 214 65 q 165 3 197 18 q 104 -6 133 -11 q 60 24 76 -1 q 65 95 45 49 q 123 222 83 136 q 216 417 164 308 q 325 647 267 526 q 435 876 382 768 q 531 1069 488 985 q 595 1192 574 1154 m 689 597 l 685 1051 q 656 991 678 1038 q 604 882 635 945 q 536 743 572 818 q 465 597 500 669 l 689 597 z "},"":{"ha":876,"x_min":53,"x_max":827,"o":"m 818 305 q 758 185 798 241 q 666 87 719 129 q 550 22 613 46 q 418 -1 487 -1 q 255 52 324 -1 q 140 193 186 106 q 74 394 95 281 q 54 627 53 507 q 79 849 57 739 q 149 1048 102 959 q 266 1199 195 1138 q 434 1275 336 1260 q 562 1268 500 1286 q 674 1211 624 1251 q 758 1112 724 1172 q 803 977 792 1051 q 789 916 808 940 q 742 883 769 891 q 688 886 715 875 q 652 930 662 897 q 568 1083 620 1043 q 453 1111 517 1123 q 352 1054 395 1100 q 281 939 309 1008 q 237 785 252 869 q 221 616 222 701 q 232 449 220 530 q 269 304 244 368 q 332 203 294 241 q 418 167 369 165 q 503 185 464 168 q 574 231 541 202 q 634 298 606 259 q 686 384 662 338 q 726 410 700 408 q 775 399 751 412 q 813 360 799 385 q 818 305 827 335 m 463 -19 q 562 -50 524 -22 q 616 -119 600 -79 q 629 -207 633 -160 q 602 -293 625 -254 q 535 -357 578 -332 q 433 -380 492 -382 q 393 -361 407 -380 q 378 -321 380 -343 q 388 -282 377 -300 q 420 -266 399 -264 q 492 -249 469 -270 q 515 -203 515 -228 q 493 -157 515 -178 q 427 -141 471 -137 q 384 -137 399 -144 q 362 -108 369 -130 q 355 -45 355 -85 q 354 62 354 -4 l 465 62 l 463 -19 z "},"":{"ha":760,"x_min":54,"x_max":705,"o":"m 197 1 q 119 9 146 1 q 80 39 92 18 q 65 96 68 60 q 62 187 62 133 l 56 1119 q 83 1247 54 1210 q 182 1283 113 1284 q 356 1281 247 1283 q 625 1279 465 1279 q 685 1255 666 1279 q 705 1201 704 1230 q 688 1147 705 1172 q 636 1122 670 1122 q 526 1122 593 1122 q 395 1123 460 1122 q 280 1124 331 1124 q 216 1124 229 1124 l 216 720 l 502 720 q 550 694 536 720 q 562 638 564 669 q 545 583 560 608 q 506 560 530 559 q 422 562 492 562 q 216 560 353 562 l 216 161 q 248 161 221 161 q 314 161 275 161 q 399 161 353 161 q 490 161 445 161 q 572 161 534 161 q 632 161 609 161 q 687 138 669 161 q 705 85 705 114 q 684 31 704 56 q 625 5 665 7 q 367 1 469 1 q 197 1 264 1 m 237 1477 q 221 1527 214 1499 q 249 1575 228 1554 q 299 1603 270 1596 q 350 1590 328 1610 l 519 1431 q 540 1379 547 1407 q 510 1332 533 1351 q 456 1308 487 1313 q 404 1322 426 1302 l 237 1477 z "},"":{"ha":760,"x_min":54,"x_max":705,"o":"m 197 1 q 119 9 146 1 q 80 39 92 18 q 65 96 68 60 q 62 187 62 133 l 56 1119 q 83 1247 54 1210 q 182 1283 113 1284 q 356 1281 247 1283 q 625 1279 465 1279 q 685 1255 666 1279 q 705 1201 704 1230 q 688 1147 705 1172 q 636 1122 670 1122 q 526 1122 593 1122 q 395 1123 460 1122 q 280 1124 331 1124 q 216 1124 229 1124 l 216 720 l 502 720 q 550 694 536 720 q 562 638 564 669 q 545 583 560 608 q 506 560 530 559 q 422 562 492 562 q 216 560 353 562 l 216 161 q 248 161 221 161 q 314 161 275 161 q 399 161 353 161 q 490 161 445 161 q 572 161 534 161 q 632 161 609 161 q 687 138 669 161 q 705 85 705 114 q 684 31 704 56 q 625 5 665 7 q 367 1 469 1 q 197 1 264 1 m 410 1590 q 460 1603 431 1610 q 511 1575 490 1596 q 538 1527 532 1554 q 522 1477 545 1499 l 355 1322 q 303 1308 334 1302 q 250 1332 273 1313 q 220 1379 227 1351 q 240 1431 214 1407 l 410 1590 z "},"":{"ha":760,"x_min":54,"x_max":705,"o":"m 197 1 q 119 9 146 1 q 80 39 92 18 q 65 96 68 60 q 62 187 62 133 l 56 1119 q 83 1247 54 1210 q 182 1283 113 1284 q 356 1281 247 1283 q 625 1279 465 1279 q 685 1255 666 1279 q 705 1201 704 1230 q 688 1147 705 1172 q 636 1122 670 1122 q 526 1122 593 1122 q 395 1123 460 1122 q 280 1124 331 1124 q 216 1124 229 1124 l 216 720 l 502 720 q 550 694 536 720 q 562 638 564 669 q 545 583 560 608 q 506 560 530 559 q 422 562 492 562 q 216 560 353 562 l 216 161 q 248 161 221 161 q 314 161 275 161 q 399 161 353 161 q 490 161 445 161 q 572 161 534 161 q 632 161 609 161 q 687 138 669 161 q 705 85 705 114 q 684 31 704 56 q 625 5 665 7 q 367 1 469 1 q 197 1 264 1 m 258 1550 q 308 1611 277 1590 q 374 1635 339 1633 q 440 1619 408 1637 q 492 1563 472 1602 l 582 1388 q 581 1333 598 1355 q 534 1303 563 1312 q 473 1303 505 1295 q 430 1337 442 1310 l 372 1472 l 307 1324 q 272 1300 298 1305 q 220 1303 245 1295 q 178 1329 194 1310 q 175 1375 163 1348 l 258 1550 z "},"":{"ha":760,"x_min":54,"x_max":705,"o":"m 197 1 q 119 9 146 1 q 80 39 92 18 q 65 96 68 60 q 62 187 62 133 l 56 1119 q 83 1247 54 1210 q 182 1283 113 1284 q 356 1281 247 1283 q 625 1279 465 1279 q 685 1255 666 1279 q 705 1201 704 1230 q 688 1147 705 1172 q 636 1122 670 1122 q 526 1122 593 1122 q 395 1123 460 1122 q 280 1124 331 1124 q 216 1124 229 1124 l 216 720 l 502 720 q 550 694 536 720 q 562 638 564 669 q 545 583 560 608 q 506 560 530 559 q 422 562 492 562 q 216 560 353 562 l 216 161 q 248 161 221 161 q 314 161 275 161 q 399 161 353 161 q 490 161 445 161 q 572 161 534 161 q 632 161 609 161 q 687 138 669 161 q 705 85 705 114 q 684 31 704 56 q 625 5 665 7 q 367 1 469 1 q 197 1 264 1 m 216 1529 q 298 1509 267 1535 q 336 1444 330 1482 q 321 1371 342 1407 q 245 1324 300 1335 q 162 1341 194 1313 q 123 1408 130 1369 q 138 1484 117 1447 q 216 1529 160 1520 m 517 1529 q 600 1509 568 1535 q 637 1444 631 1482 q 622 1371 643 1407 q 547 1324 601 1335 q 463 1341 495 1313 q 425 1408 431 1369 q 439 1484 418 1447 q 517 1529 461 1520 z "},"":{"ha":882,"x_min":54,"x_max":829,"o":"m 141 0 q 78 24 99 0 q 56 79 57 49 q 75 133 54 109 q 137 157 95 157 l 359 157 l 363 1122 l 141 1122 q 78 1146 99 1122 q 56 1200 57 1171 q 75 1255 54 1230 q 137 1279 95 1279 l 747 1279 q 809 1255 789 1279 q 827 1200 829 1230 q 805 1146 826 1171 q 745 1122 784 1122 l 524 1122 l 521 157 l 747 157 q 809 133 789 157 q 827 79 829 109 q 805 24 826 49 q 745 0 784 0 l 141 0 m 298 1477 q 282 1527 275 1499 q 310 1575 289 1554 q 360 1603 331 1596 q 411 1590 389 1610 l 581 1431 q 601 1379 608 1407 q 571 1332 594 1351 q 517 1308 548 1313 q 465 1322 487 1302 l 298 1477 z "},"":{"ha":882,"x_min":54,"x_max":829,"o":"m 141 0 q 78 24 99 0 q 56 79 57 49 q 75 133 54 109 q 137 157 95 157 l 359 157 l 363 1122 l 141 1122 q 78 1146 99 1122 q 56 1200 57 1171 q 75 1255 54 1230 q 137 1279 95 1279 l 747 1279 q 809 1255 789 1279 q 827 1200 829 1230 q 805 1146 826 1171 q 745 1122 784 1122 l 524 1122 l 521 157 l 747 157 q 809 133 789 157 q 827 79 829 109 q 805 24 826 49 q 745 0 784 0 l 141 0 m 471 1590 q 522 1603 492 1610 q 572 1575 551 1596 q 600 1527 593 1554 q 583 1477 606 1499 l 416 1322 q 364 1308 395 1302 q 311 1332 334 1313 q 281 1379 288 1351 q 301 1431 275 1407 l 471 1590 z "},"":{"ha":882,"x_min":54,"x_max":829,"o":"m 141 0 q 78 24 99 0 q 56 79 57 49 q 75 133 54 109 q 137 157 95 157 l 359 157 l 363 1122 l 141 1122 q 78 1146 99 1122 q 56 1200 57 1171 q 75 1255 54 1230 q 137 1279 95 1279 l 747 1279 q 809 1255 789 1279 q 827 1200 829 1230 q 805 1146 826 1171 q 745 1122 784 1122 l 524 1122 l 521 157 l 747 157 q 809 133 789 157 q 827 79 829 109 q 805 24 826 49 q 745 0 784 0 l 141 0 m 319 1550 q 369 1611 338 1590 q 435 1635 400 1633 q 501 1619 469 1637 q 553 1563 533 1602 l 643 1388 q 642 1333 659 1355 q 595 1303 624 1312 q 534 1303 566 1295 q 491 1337 503 1310 l 433 1472 l 368 1324 q 333 1300 359 1305 q 281 1303 307 1295 q 239 1329 255 1310 q 236 1375 224 1348 l 319 1550 z "},"":{"ha":882,"x_min":54,"x_max":829,"o":"m 141 0 q 78 24 99 0 q 56 79 57 49 q 75 133 54 109 q 137 157 95 157 l 359 157 l 363 1122 l 141 1122 q 78 1146 99 1122 q 56 1200 57 1171 q 75 1255 54 1230 q 137 1279 95 1279 l 747 1279 q 809 1255 789 1279 q 827 1200 829 1230 q 805 1146 826 1171 q 745 1122 784 1122 l 524 1122 l 521 157 l 747 157 q 809 133 789 157 q 827 79 829 109 q 805 24 826 49 q 745 0 784 0 l 141 0 m 277 1529 q 359 1509 328 1535 q 397 1444 391 1482 q 382 1371 403 1407 q 307 1324 361 1335 q 223 1341 255 1313 q 184 1408 191 1369 q 199 1484 178 1447 q 277 1529 221 1520 m 578 1529 q 661 1509 629 1535 q 698 1444 692 1482 q 683 1371 704 1407 q 608 1324 662 1335 q 524 1341 556 1313 q 486 1408 492 1369 q 500 1484 479 1447 q 578 1529 522 1520 z "},"":{"ha":1016,"x_min":54,"x_max":967,"o":"m 119 606 q 70 631 85 606 q 55 686 54 656 q 73 740 56 715 q 119 765 90 765 l 198 765 l 202 1133 q 205 1198 202 1169 q 220 1248 209 1227 q 256 1278 232 1268 q 321 1283 279 1287 q 374 1278 349 1280 q 425 1274 399 1276 q 631 1222 536 1259 q 797 1121 726 1185 q 911 962 868 1057 q 960 738 955 868 q 930 469 967 590 q 824 256 892 347 q 662 105 755 164 q 463 22 568 46 q 361 7 411 8 q 271 7 305 4 q 219 27 237 11 q 195 75 201 43 q 190 160 190 106 l 195 606 l 119 606 m 372 765 l 601 765 q 654 740 637 765 q 669 686 670 715 q 650 631 669 656 q 595 606 631 606 l 369 606 l 362 160 q 522 208 444 168 q 661 316 600 247 q 761 481 723 385 q 799 699 799 578 q 688 1000 799 890 q 377 1118 578 1109 l 372 765 z "},"":{"ha":936,"x_min":54,"x_max":880,"o":"m 214 81 q 189 23 216 43 q 130 3 161 3 q 81 20 103 3 q 58 77 58 38 l 54 1153 q 65 1204 54 1181 q 94 1243 76 1227 q 136 1267 113 1259 q 184 1276 160 1276 q 258 1255 222 1276 q 315 1187 293 1234 l 719 281 l 707 1184 q 731 1257 707 1233 q 787 1280 755 1280 q 844 1256 818 1280 q 871 1184 871 1232 l 880 99 q 870 60 880 77 q 842 28 860 42 q 802 7 825 15 q 757 0 780 0 q 694 17 724 0 q 646 72 663 34 l 212 1031 q 210 933 210 1002 q 209 773 209 864 q 209 579 209 682 q 210 380 209 476 q 212 205 212 285 q 214 81 213 126 m 176 1301 q 118 1321 142 1301 q 94 1377 94 1341 q 117 1451 95 1416 q 174 1511 140 1485 q 249 1551 209 1537 q 326 1565 289 1565 q 400 1550 366 1565 q 466 1516 434 1534 q 529 1485 498 1499 q 595 1477 560 1472 q 651 1503 632 1482 q 684 1548 670 1525 q 715 1591 699 1572 q 761 1610 731 1610 q 800 1599 784 1610 q 827 1572 817 1588 q 840 1508 846 1542 q 810 1439 833 1474 q 709 1341 770 1378 q 574 1305 648 1305 q 501 1320 532 1305 q 444 1352 471 1335 q 389 1383 416 1369 q 326 1398 361 1398 q 275 1383 292 1398 q 245 1350 258 1369 q 218 1316 232 1332 q 176 1301 205 1301 z "},"":{"ha":935,"x_min":56,"x_max":880,"o":"m 473 0 q 301 48 378 1 q 170 174 224 95 q 85 360 115 254 q 56 587 56 467 q 81 842 56 716 q 159 1065 107 967 q 291 1221 212 1162 q 477 1275 370 1280 q 651 1213 576 1271 q 776 1063 726 1156 q 852 850 826 970 q 879 604 878 731 q 852 380 880 490 q 772 186 825 271 q 643 50 719 102 q 473 0 567 -1 m 473 1107 q 365 1059 412 1105 q 286 941 317 1013 q 237 777 254 868 q 220 597 220 686 q 233 435 220 514 q 277 293 247 355 q 357 193 308 231 q 476 155 406 155 q 587 197 541 155 q 663 304 633 239 q 705 446 692 369 q 719 593 719 524 q 713 702 719 644 q 694 817 707 760 q 663 928 682 875 q 616 1021 643 981 q 553 1084 589 1061 q 473 1107 518 1108 m 324 1477 q 308 1527 301 1499 q 336 1575 315 1554 q 386 1603 357 1596 q 437 1590 415 1610 l 606 1431 q 627 1379 633 1407 q 597 1332 620 1351 q 543 1308 574 1313 q 491 1322 513 1302 l 324 1477 z "},"":{"ha":935,"x_min":56,"x_max":880,"o":"m 473 0 q 301 48 378 1 q 170 174 224 95 q 85 360 115 254 q 56 587 56 467 q 81 842 56 716 q 159 1065 107 967 q 291 1221 212 1162 q 477 1275 370 1280 q 651 1213 576 1271 q 776 1063 726 1156 q 852 850 826 970 q 879 604 878 731 q 852 380 880 490 q 772 186 825 271 q 643 50 719 102 q 473 0 567 -1 m 473 1107 q 365 1059 412 1105 q 286 941 317 1013 q 237 777 254 868 q 220 597 220 686 q 233 435 220 514 q 277 293 247 355 q 357 193 308 231 q 476 155 406 155 q 587 197 541 155 q 663 304 633 239 q 705 446 692 369 q 719 593 719 524 q 713 702 719 644 q 694 817 707 760 q 663 928 682 875 q 616 1021 643 981 q 553 1084 589 1061 q 473 1107 518 1108 m 498 1590 q 549 1603 519 1610 q 599 1575 578 1596 q 627 1527 620 1554 q 610 1477 633 1499 l 444 1322 q 391 1308 422 1302 q 338 1332 361 1313 q 309 1379 315 1351 q 328 1431 302 1407 l 498 1590 z "},"":{"ha":935,"x_min":56,"x_max":880,"o":"m 473 0 q 301 48 378 1 q 170 174 224 95 q 85 360 115 254 q 56 587 56 467 q 81 842 56 716 q 159 1065 107 967 q 291 1221 212 1162 q 477 1275 370 1280 q 651 1213 576 1271 q 776 1063 726 1156 q 852 850 826 970 q 879 604 878 731 q 852 380 880 490 q 772 186 825 271 q 643 50 719 102 q 473 0 567 -1 m 473 1107 q 365 1059 412 1105 q 286 941 317 1013 q 237 777 254 868 q 220 597 220 686 q 233 435 220 514 q 277 293 247 355 q 357 193 308 231 q 476 155 406 155 q 587 197 541 155 q 663 304 633 239 q 705 446 692 369 q 719 593 719 524 q 713 702 719 644 q 694 817 707 760 q 663 928 682 875 q 616 1021 643 981 q 553 1084 589 1061 q 473 1107 518 1108 m 346 1550 q 396 1611 365 1590 q 462 1635 427 1633 q 528 1619 496 1637 q 581 1563 560 1602 l 670 1388 q 669 1333 686 1355 q 622 1303 651 1312 q 562 1303 593 1295 q 518 1337 530 1310 l 460 1472 l 395 1324 q 360 1300 387 1305 q 308 1303 334 1295 q 267 1329 282 1310 q 263 1375 251 1348 l 346 1550 z "},"":{"ha":935,"x_min":56,"x_max":880,"o":"m 473 0 q 301 48 378 1 q 170 174 224 95 q 85 360 115 254 q 56 587 56 467 q 81 842 56 716 q 159 1065 107 967 q 291 1221 212 1162 q 477 1275 370 1280 q 651 1213 576 1271 q 776 1063 726 1156 q 852 850 826 970 q 879 604 878 731 q 852 380 880 490 q 772 186 825 271 q 643 50 719 102 q 473 0 567 -1 m 473 1107 q 365 1059 412 1105 q 286 941 317 1013 q 237 777 254 868 q 220 597 220 686 q 233 435 220 514 q 277 293 247 355 q 357 193 308 231 q 476 155 406 155 q 587 197 541 155 q 663 304 633 239 q 705 446 692 369 q 719 593 719 524 q 713 702 719 644 q 694 817 707 760 q 663 928 682 875 q 616 1021 643 981 q 553 1084 589 1061 q 473 1107 518 1108 m 176 1301 q 118 1321 142 1301 q 94 1377 94 1341 q 117 1451 95 1416 q 174 1511 140 1485 q 249 1551 209 1537 q 326 1565 289 1565 q 400 1550 366 1565 q 466 1516 434 1534 q 529 1485 498 1499 q 595 1477 560 1472 q 651 1503 632 1482 q 684 1548 670 1525 q 715 1591 699 1572 q 761 1610 731 1610 q 800 1599 784 1610 q 827 1572 817 1588 q 840 1508 846 1542 q 810 1439 833 1474 q 709 1341 770 1378 q 574 1305 648 1305 q 501 1320 532 1305 q 444 1352 471 1335 q 389 1383 416 1369 q 326 1398 361 1398 q 275 1383 292 1398 q 245 1350 258 1369 q 218 1316 232 1332 q 176 1301 205 1301 z "},"":{"ha":935,"x_min":56,"x_max":880,"o":"m 473 0 q 301 48 378 1 q 170 174 224 95 q 85 360 115 254 q 56 587 56 467 q 81 842 56 716 q 159 1065 107 967 q 291 1221 212 1162 q 477 1275 370 1280 q 651 1213 576 1271 q 776 1063 726 1156 q 852 850 826 970 q 879 604 878 731 q 852 380 880 490 q 772 186 825 271 q 643 50 719 102 q 473 0 567 -1 m 473 1107 q 365 1059 412 1105 q 286 941 317 1013 q 237 777 254 868 q 220 597 220 686 q 233 435 220 514 q 277 293 247 355 q 357 193 308 231 q 476 155 406 155 q 587 197 541 155 q 663 304 633 239 q 705 446 692 369 q 719 593 719 524 q 713 702 719 644 q 694 817 707 760 q 663 928 682 875 q 616 1021 643 981 q 553 1084 589 1061 q 473 1107 518 1108 m 302 1529 q 385 1509 354 1535 q 422 1444 416 1482 q 408 1371 429 1407 q 332 1324 387 1335 q 249 1341 281 1313 q 210 1408 217 1369 q 225 1484 203 1447 q 302 1529 247 1520 m 604 1529 q 686 1509 655 1535 q 724 1444 718 1482 q 709 1371 730 1407 q 633 1324 688 1335 q 550 1341 582 1313 q 511 1408 518 1369 q 526 1484 505 1447 q 604 1529 548 1520 z "},"":{"ha":602,"x_min":50,"x_max":552,"o":"m 187 263 q 134 245 163 239 q 85 273 106 251 q 60 324 65 294 q 76 376 54 354 l 190 490 l 76 604 q 56 659 50 629 q 83 708 61 688 q 136 732 106 728 q 191 712 167 736 l 301 601 l 416 716 q 471 736 442 742 q 520 707 500 730 q 544 654 540 685 q 524 600 548 624 l 414 490 l 528 376 q 546 322 552 351 q 518 273 540 293 q 467 247 496 252 q 416 263 438 241 l 301 377 l 187 263 z "},"":{"ha":935,"x_min":56,"x_max":880,"o":"m 473 0 q 301 48 378 1 q 170 174 224 95 q 85 360 115 254 q 56 587 56 467 q 81 842 56 716 q 159 1065 107 967 q 291 1221 212 1162 q 477 1275 370 1280 q 651 1213 576 1271 q 776 1063 726 1156 q 852 850 826 970 q 879 604 878 731 q 852 380 880 490 q 772 186 825 271 q 643 50 719 102 q 473 0 567 -1 m 473 1107 q 365 1059 412 1105 q 286 941 317 1013 q 237 777 254 868 q 220 597 220 686 q 233 435 220 514 q 277 293 247 355 q 357 193 308 231 q 476 155 406 155 q 587 197 541 155 q 663 304 633 239 q 705 446 692 369 q 719 593 719 524 q 713 702 719 644 q 694 817 707 760 q 663 928 682 875 q 616 1021 643 981 q 553 1084 589 1061 q 473 1107 518 1108 m 850 1180 q 698 889 773 1036 q 545 595 623 742 q 386 303 467 448 q 218 20 305 159 q 174 -5 202 -7 q 123 14 146 -3 q 87 57 100 31 q 85 104 73 83 l 709 1246 q 752 1274 724 1274 q 805 1259 780 1274 q 846 1222 830 1245 q 850 1180 861 1199 z "},"":{"ha":837,"x_min":54,"x_max":783,"o":"m 779 1190 q 781 1050 779 1133 q 782 874 783 968 q 777 678 781 780 q 758 479 772 576 q 720 295 745 382 q 654 142 694 208 q 555 37 613 76 q 416 -1 496 -1 q 279 37 336 -1 q 180 142 221 76 q 115 295 140 208 q 77 480 91 382 q 59 680 64 578 q 54 876 54 781 q 57 1054 54 971 q 61 1195 60 1137 q 87 1259 62 1238 q 142 1279 113 1279 q 197 1258 172 1279 q 222 1195 222 1237 q 221 1097 222 1160 q 219 955 220 1034 q 220 787 218 876 q 229 612 222 699 q 248 445 235 525 q 281 303 260 365 q 332 205 301 241 q 406 168 363 168 q 494 202 457 167 q 555 298 530 237 q 593 437 579 358 q 613 602 606 515 q 621 778 620 689 q 620 947 621 867 q 616 1091 618 1027 q 616 1194 614 1156 q 642 1256 617 1236 q 698 1276 667 1276 q 753 1253 728 1275 q 779 1190 779 1232 m 275 1477 q 259 1527 252 1499 q 287 1575 266 1554 q 337 1603 308 1596 q 388 1590 366 1610 l 557 1431 q 578 1379 585 1407 q 548 1332 571 1351 q 494 1308 525 1313 q 442 1322 464 1302 l 275 1477 z "},"":{"ha":837,"x_min":54,"x_max":783,"o":"m 779 1190 q 781 1050 779 1133 q 782 874 783 968 q 777 678 781 780 q 758 479 772 576 q 720 295 745 382 q 654 142 694 208 q 555 37 613 76 q 416 -1 496 -1 q 279 37 336 -1 q 180 142 221 76 q 115 295 140 208 q 77 480 91 382 q 59 680 64 578 q 54 876 54 781 q 57 1054 54 971 q 61 1195 60 1137 q 87 1259 62 1238 q 142 1279 113 1279 q 197 1258 172 1279 q 222 1195 222 1237 q 221 1097 222 1160 q 219 955 220 1034 q 220 787 218 876 q 229 612 222 699 q 248 445 235 525 q 281 303 260 365 q 332 205 301 241 q 406 168 363 168 q 494 202 457 167 q 555 298 530 237 q 593 437 579 358 q 613 602 606 515 q 621 778 620 689 q 620 947 621 867 q 616 1091 618 1027 q 616 1194 614 1156 q 642 1256 617 1236 q 698 1276 667 1276 q 753 1253 728 1275 q 779 1190 779 1232 m 449 1590 q 500 1603 471 1610 q 550 1575 529 1596 q 578 1527 571 1554 q 562 1477 585 1499 l 395 1322 q 342 1308 373 1302 q 289 1332 312 1313 q 260 1379 266 1351 q 279 1431 254 1407 l 449 1590 z "},"":{"ha":837,"x_min":54,"x_max":783,"o":"m 779 1190 q 781 1050 779 1133 q 782 874 783 968 q 777 678 781 780 q 758 479 772 576 q 720 295 745 382 q 654 142 694 208 q 555 37 613 76 q 416 -1 496 -1 q 279 37 336 -1 q 180 142 221 76 q 115 295 140 208 q 77 480 91 382 q 59 680 64 578 q 54 876 54 781 q 57 1054 54 971 q 61 1195 60 1137 q 87 1259 62 1238 q 142 1279 113 1279 q 197 1258 172 1279 q 222 1195 222 1237 q 221 1097 222 1160 q 219 955 220 1034 q 220 787 218 876 q 229 612 222 699 q 248 445 235 525 q 281 303 260 365 q 332 205 301 241 q 406 168 363 168 q 494 202 457 167 q 555 298 530 237 q 593 437 579 358 q 613 602 606 515 q 621 778 620 689 q 620 947 621 867 q 616 1091 618 1027 q 616 1194 614 1156 q 642 1256 617 1236 q 698 1276 667 1276 q 753 1253 728 1275 q 779 1190 779 1232 m 297 1550 q 347 1611 316 1590 q 413 1635 378 1633 q 479 1619 448 1637 q 532 1563 511 1602 l 621 1388 q 620 1333 637 1355 q 573 1303 602 1312 q 513 1303 544 1295 q 469 1337 481 1310 l 411 1472 l 346 1324 q 311 1300 338 1305 q 259 1303 285 1295 q 218 1329 233 1310 q 214 1375 202 1348 l 297 1550 z "},"":{"ha":837,"x_min":54,"x_max":783,"o":"m 779 1190 q 781 1050 779 1133 q 782 874 783 968 q 777 678 781 780 q 758 479 772 576 q 720 295 745 382 q 654 142 694 208 q 555 37 613 76 q 416 -1 496 -1 q 279 37 336 -1 q 180 142 221 76 q 115 295 140 208 q 77 480 91 382 q 59 680 64 578 q 54 876 54 781 q 57 1054 54 971 q 61 1195 60 1137 q 87 1259 62 1238 q 142 1279 113 1279 q 197 1258 172 1279 q 222 1195 222 1237 q 221 1097 222 1160 q 219 955 220 1034 q 220 787 218 876 q 229 612 222 699 q 248 445 235 525 q 281 303 260 365 q 332 205 301 241 q 406 168 363 168 q 494 202 457 167 q 555 298 530 237 q 593 437 579 358 q 613 602 606 515 q 621 778 620 689 q 620 947 621 867 q 616 1091 618 1027 q 616 1194 614 1156 q 642 1256 617 1236 q 698 1276 667 1276 q 753 1253 728 1275 q 779 1190 779 1232 m 254 1529 q 336 1509 305 1535 q 374 1444 368 1482 q 359 1371 380 1407 q 283 1324 338 1335 q 200 1341 232 1313 q 161 1408 168 1369 q 176 1484 155 1447 q 254 1529 198 1520 m 555 1529 q 637 1509 606 1535 q 675 1444 669 1482 q 660 1371 681 1407 q 585 1324 639 1335 q 501 1341 533 1313 q 463 1408 469 1369 q 477 1484 456 1447 q 555 1529 499 1520 z "},"":{"ha":949,"x_min":54,"x_max":897,"o":"m 563 85 q 535 24 563 45 q 473 2 507 3 q 412 22 439 1 q 384 85 384 43 l 387 625 l 68 1145 q 56 1192 54 1168 q 69 1234 57 1215 q 101 1265 81 1253 q 144 1278 121 1278 q 190 1266 167 1279 q 231 1221 213 1253 l 475 795 l 720 1221 q 762 1266 739 1253 q 807 1278 784 1279 q 850 1265 830 1278 q 882 1234 869 1253 q 895 1192 894 1215 q 883 1145 897 1168 l 564 625 l 563 85 m 505 1590 q 555 1603 526 1610 q 606 1575 585 1596 q 633 1527 627 1554 q 617 1477 640 1499 l 450 1322 q 398 1308 429 1302 q 345 1332 368 1313 q 315 1379 321 1351 q 335 1431 309 1407 l 505 1590 z "},"":{"ha":808,"x_min":56,"x_max":758,"o":"m 210 -224 q 186 -269 210 -251 q 132 -290 161 -286 q 79 -277 103 -293 q 56 -218 56 -260 l 57 1042 q 81 1118 57 1093 q 136 1143 106 1143 q 191 1118 165 1143 q 217 1044 216 1093 l 221 803 q 381 834 307 834 q 517 809 456 834 q 625 736 578 784 q 702 625 671 689 q 745 485 732 562 q 750 326 758 408 q 715 200 743 255 q 643 106 686 145 q 546 44 600 66 q 435 15 492 22 q 319 18 377 8 q 212 54 262 28 l 210 -224 m 221 237 q 321 185 262 199 q 435 183 380 171 q 534 235 491 195 q 587 340 578 274 q 574 498 600 425 q 498 614 549 571 q 375 663 446 658 q 224 617 304 669 l 221 237 z "},"":{"ha":864,"x_min":56,"x_max":810,"o":"m 302 1131 q 253 1122 270 1131 q 228 1095 236 1112 q 218 1056 220 1078 q 217 1009 217 1034 l 216 -62 q 191 -87 216 -77 q 136 -97 165 -96 q 81 -90 106 -98 q 56 -62 56 -83 l 60 1010 q 77 1144 60 1092 q 122 1227 94 1196 q 190 1270 151 1257 q 275 1282 229 1282 q 456 1258 378 1282 q 587 1191 534 1234 q 665 1087 639 1147 q 692 954 692 1027 q 661 813 692 876 q 590 718 629 750 q 757 572 699 667 q 796 477 783 532 q 808 365 810 423 q 783 217 807 286 q 685 88 758 148 q 614 41 651 61 q 529 9 576 22 q 422 -5 481 -3 q 285 -1 362 -8 q 258 23 269 0 q 247 73 248 46 q 256 122 245 100 q 288 142 266 144 q 422 144 357 138 q 537 175 487 151 q 618 245 587 199 q 648 368 648 292 q 615 500 648 453 q 530 570 582 548 q 416 596 477 593 q 297 597 354 600 q 279 617 288 597 q 270 663 271 637 q 275 711 269 689 q 301 738 282 734 q 389 760 346 746 q 465 799 431 774 q 519 862 498 823 q 544 958 541 901 q 525 1042 547 1009 q 467 1095 503 1076 q 387 1123 431 1115 q 302 1131 343 1131 z "},"":{"ha":772,"x_min":53,"x_max":718,"o":"m 718 96 q 689 31 718 54 q 628 7 661 7 q 574 29 598 7 q 551 99 551 52 q 444 40 505 64 q 324 16 382 16 q 203 51 255 16 q 118 142 152 85 q 68 270 84 198 q 55 417 53 342 q 76 564 57 492 q 132 692 95 636 q 224 783 170 749 q 349 817 278 817 q 446 798 392 817 q 551 739 499 779 q 581 809 555 785 q 637 833 606 833 q 693 807 669 833 q 718 727 718 781 l 718 96 m 551 528 q 458 625 509 594 q 359 654 407 656 q 279 614 312 651 q 231 523 247 576 q 214 407 214 469 q 231 292 214 345 q 281 205 248 240 q 366 171 315 170 q 463 205 414 172 q 551 298 513 237 l 551 528 m 243 1032 q 227 1082 220 1054 q 254 1131 233 1109 q 304 1158 275 1152 q 355 1145 334 1165 l 525 986 q 545 934 552 962 q 515 887 538 906 q 462 863 492 868 q 410 878 431 857 l 243 1032 z "},"":{"ha":772,"x_min":53,"x_max":718,"o":"m 718 96 q 689 31 718 54 q 628 7 661 7 q 574 29 598 7 q 551 99 551 52 q 444 40 505 64 q 324 16 382 16 q 203 51 255 16 q 118 142 152 85 q 68 270 84 198 q 55 417 53 342 q 76 564 57 492 q 132 692 95 636 q 224 783 170 749 q 349 817 278 817 q 446 798 392 817 q 551 739 499 779 q 581 809 555 785 q 637 833 606 833 q 693 807 669 833 q 718 727 718 781 l 718 96 m 551 528 q 458 625 509 594 q 359 654 407 656 q 279 614 312 651 q 231 523 247 576 q 214 407 214 469 q 231 292 214 345 q 281 205 248 240 q 366 171 315 170 q 463 205 414 172 q 551 298 513 237 l 551 528 m 416 1145 q 467 1158 438 1165 q 517 1131 496 1152 q 545 1082 538 1109 q 529 1032 552 1054 l 362 878 q 310 863 340 857 q 256 887 279 868 q 227 934 233 906 q 247 986 221 962 l 416 1145 z "},"":{"ha":772,"x_min":53,"x_max":718,"o":"m 718 96 q 689 31 718 54 q 628 7 661 7 q 574 29 598 7 q 551 99 551 52 q 444 40 505 64 q 324 16 382 16 q 203 51 255 16 q 118 142 152 85 q 68 270 84 198 q 55 417 53 342 q 76 564 57 492 q 132 692 95 636 q 224 783 170 749 q 349 817 278 817 q 446 798 392 817 q 551 739 499 779 q 581 809 555 785 q 637 833 606 833 q 693 807 669 833 q 718 727 718 781 l 718 96 m 551 528 q 458 625 509 594 q 359 654 407 656 q 279 614 312 651 q 231 523 247 576 q 214 407 214 469 q 231 292 214 345 q 281 205 248 240 q 366 171 315 170 q 463 205 414 172 q 551 298 513 237 l 551 528 m 264 1105 q 315 1166 283 1145 q 380 1190 346 1188 q 447 1175 415 1192 q 499 1118 479 1157 l 589 943 q 587 888 605 910 q 541 859 570 867 q 480 858 511 850 q 437 892 449 865 l 378 1027 l 313 879 q 279 855 305 860 q 227 858 252 850 q 185 884 201 865 q 182 930 170 903 l 264 1105 z "},"":{"ha":772,"x_min":11,"x_max":765,"o":"m 718 96 q 689 31 718 54 q 628 7 661 7 q 574 29 598 7 q 551 99 551 52 q 444 40 505 64 q 324 16 382 16 q 203 51 255 16 q 118 142 152 85 q 68 270 84 198 q 55 417 53 342 q 76 564 57 492 q 132 692 95 636 q 224 783 170 749 q 349 817 278 817 q 446 798 392 817 q 551 739 499 779 q 581 809 555 785 q 637 833 606 833 q 693 807 669 833 q 718 727 718 781 l 718 96 m 551 528 q 458 625 509 594 q 359 654 407 656 q 279 614 312 651 q 231 523 247 576 q 214 407 214 469 q 231 292 214 345 q 281 205 248 240 q 366 171 315 170 q 463 205 414 172 q 551 298 513 237 l 551 528 m 95 856 q 37 876 61 856 q 12 932 12 897 q 36 1006 14 971 q 93 1066 58 1040 q 168 1106 127 1092 q 244 1120 208 1120 q 319 1105 285 1120 q 385 1072 353 1089 q 448 1040 416 1054 q 514 1032 479 1027 q 570 1059 551 1038 q 603 1103 589 1080 q 633 1146 617 1127 q 680 1165 650 1165 q 719 1154 703 1165 q 746 1127 735 1143 q 758 1063 765 1097 q 728 994 751 1029 q 628 897 689 933 q 492 860 567 860 q 420 875 450 860 q 362 907 389 890 q 307 939 335 924 q 244 954 279 954 q 193 939 210 954 q 163 905 176 924 q 137 871 151 887 q 95 856 123 856 z "},"":{"ha":772,"x_min":53,"x_max":718,"o":"m 718 96 q 689 31 718 54 q 628 7 661 7 q 574 29 598 7 q 551 99 551 52 q 444 40 505 64 q 324 16 382 16 q 203 51 255 16 q 118 142 152 85 q 68 270 84 198 q 55 417 53 342 q 76 564 57 492 q 132 692 95 636 q 224 783 170 749 q 349 817 278 817 q 446 798 392 817 q 551 739 499 779 q 581 809 555 785 q 637 833 606 833 q 693 807 669 833 q 718 727 718 781 l 718 96 m 551 528 q 458 625 509 594 q 359 654 407 656 q 279 614 312 651 q 231 523 247 576 q 214 407 214 469 q 231 292 214 345 q 281 205 248 240 q 366 171 315 170 q 463 205 414 172 q 551 298 513 237 l 551 528 m 221 1084 q 304 1064 273 1090 q 341 1000 335 1038 q 326 926 347 962 q 251 879 305 890 q 168 896 199 868 q 129 963 136 924 q 144 1039 122 1002 q 221 1084 165 1076 m 522 1084 q 605 1064 574 1090 q 642 1000 636 1038 q 627 926 648 962 q 552 879 606 890 q 469 896 500 868 q 430 963 437 924 q 445 1039 423 1002 q 522 1084 467 1076 z "},"":{"ha":772,"x_min":53,"x_max":718,"o":"m 718 96 q 689 31 718 54 q 628 7 661 7 q 574 29 598 7 q 551 99 551 52 q 444 40 505 64 q 324 16 382 16 q 203 51 255 16 q 118 142 152 85 q 68 270 84 198 q 55 417 53 342 q 76 564 57 492 q 132 692 95 636 q 224 783 170 749 q 349 817 278 817 q 446 798 392 817 q 551 739 499 779 q 581 809 555 785 q 637 833 606 833 q 693 807 669 833 q 718 727 718 781 l 718 96 m 551 528 q 458 625 509 594 q 359 654 407 656 q 279 614 312 651 q 231 523 247 576 q 214 407 214 469 q 231 292 214 345 q 281 205 248 240 q 366 171 315 170 q 463 205 414 172 q 551 298 513 237 l 551 528 m 190 959 q 222 1060 193 1020 q 296 1120 252 1100 q 389 1139 339 1139 q 483 1119 439 1139 q 555 1059 526 1099 q 583 960 583 1020 q 554 862 583 902 q 481 802 525 822 q 387 780 438 781 q 292 798 335 779 q 219 857 248 817 q 190 959 190 898 m 328 958 q 345 926 327 936 q 384 918 362 917 q 424 928 406 918 q 442 956 442 939 q 427 990 444 978 q 388 1004 410 1002 q 348 994 366 1005 q 328 958 330 983 z "},"":{"ha":1253,"x_min":54,"x_max":1203,"o":"m 867 -7 q 785 3 823 -7 q 715 33 747 14 q 679 -7 705 7 q 624 -17 652 -20 q 573 8 595 -14 q 551 75 551 30 q 454 20 503 39 q 362 -7 404 0 q 228 12 285 -18 q 132 95 171 41 q 75 222 94 149 q 55 372 56 294 q 73 526 54 450 q 127 660 91 601 q 220 755 164 719 q 349 791 275 791 q 446 772 392 791 q 551 715 499 754 q 573 771 555 750 q 616 801 591 792 q 665 805 640 810 q 704 783 689 800 q 787 821 742 807 q 886 836 831 836 q 1010 809 954 836 q 1105 738 1066 783 q 1166 634 1145 693 q 1188 511 1188 575 q 1184 475 1188 495 q 1171 437 1180 454 q 1148 408 1162 420 q 1114 396 1134 396 l 700 382 q 715 298 703 342 q 750 220 727 255 q 808 163 773 184 q 890 142 844 141 q 949 155 922 144 q 998 182 977 165 q 1035 216 1019 198 q 1063 250 1051 235 q 1120 285 1089 283 q 1173 268 1152 286 q 1199 218 1195 250 q 1175 156 1203 187 q 1123 102 1152 130 q 1057 49 1095 73 q 973 9 1020 24 q 867 -7 926 -7 m 551 281 q 536 411 536 347 q 545 511 536 465 q 454 602 503 572 q 359 628 406 631 q 279 588 312 625 q 231 497 247 551 q 214 382 214 444 q 231 267 214 320 q 281 180 248 214 q 366 145 315 145 q 463 179 414 146 q 551 273 513 212 l 551 281 m 1023 557 q 976 659 1016 624 q 887 690 936 693 q 789 653 836 688 q 718 545 742 618 q 772 543 736 544 q 851 542 808 541 q 939 546 894 543 q 1023 557 985 549 z "},"":{"ha":762,"x_min":54,"x_max":711,"o":"m 430 -14 q 529 -45 491 -16 q 584 -114 567 -73 q 597 -201 601 -155 q 569 -288 593 -248 q 503 -352 545 -327 q 400 -374 461 -377 q 361 -356 374 -374 q 346 -316 347 -338 q 355 -277 345 -294 q 388 -260 366 -259 q 460 -243 437 -264 q 483 -197 483 -222 q 460 -152 483 -172 q 395 -136 438 -132 q 356 -134 370 -138 q 334 -113 342 -129 q 324 -69 327 -98 q 321 5 321 -41 q 207 58 256 20 q 124 151 157 96 q 74 269 91 205 q 56 401 57 334 q 76 557 54 480 q 141 694 98 633 q 251 793 184 754 q 407 834 317 831 q 498 822 450 836 q 587 780 545 808 q 660 707 628 751 q 701 601 692 662 q 688 544 708 566 q 641 516 669 522 q 587 519 613 510 q 553 555 562 529 q 498 645 534 620 q 412 669 461 670 q 328 646 365 669 q 267 586 292 623 q 230 503 243 549 q 216 407 217 456 q 225 315 214 359 q 258 235 236 270 q 313 178 279 199 q 393 157 347 157 q 457 166 430 157 q 507 190 484 175 q 551 226 530 205 q 597 271 572 247 q 643 283 617 290 q 686 252 669 275 q 707 197 704 229 q 686 136 711 165 q 633 87 665 110 q 568 46 602 64 q 498 16 533 28 q 431 0 463 4 l 430 -14 z "},"":{"ha":772,"x_min":54,"x_max":719,"o":"m 385 -7 q 241 29 302 -7 q 138 124 179 65 q 75 258 96 183 q 54 411 54 332 q 76 567 54 491 q 141 703 98 643 q 250 799 184 762 q 404 836 316 836 q 528 809 472 836 q 624 738 585 783 q 685 634 663 693 q 707 511 707 575 q 703 475 707 495 q 690 437 699 454 q 667 408 681 420 q 632 396 652 396 l 218 382 q 233 299 221 342 q 267 222 244 256 q 324 165 290 187 q 403 142 358 142 q 505 174 463 142 q 582 250 548 206 q 613 277 597 269 q 646 285 629 285 q 684 273 666 285 q 710 243 701 262 q 716 201 719 224 q 693 156 713 179 q 642 102 670 130 q 576 49 613 73 q 492 9 538 24 q 385 -7 445 -7 m 541 557 q 496 656 534 623 q 411 690 458 690 q 351 679 378 690 q 300 647 323 667 q 262 600 278 627 q 236 545 245 574 q 279 543 252 544 q 339 543 305 543 q 441 545 387 543 q 541 557 495 548 m 243 1032 q 227 1082 220 1054 q 254 1131 233 1109 q 304 1158 275 1152 q 355 1145 334 1165 l 525 986 q 545 934 552 962 q 515 887 538 906 q 462 863 492 868 q 410 878 431 857 l 243 1032 z "},"":{"ha":772,"x_min":54,"x_max":719,"o":"m 385 -7 q 241 29 302 -7 q 138 124 179 65 q 75 258 96 183 q 54 411 54 332 q 76 567 54 491 q 141 703 98 643 q 250 799 184 762 q 404 836 316 836 q 528 809 472 836 q 624 738 585 783 q 685 634 663 693 q 707 511 707 575 q 703 475 707 495 q 690 437 699 454 q 667 408 681 420 q 632 396 652 396 l 218 382 q 233 299 221 342 q 267 222 244 256 q 324 165 290 187 q 403 142 358 142 q 505 174 463 142 q 582 250 548 206 q 613 277 597 269 q 646 285 629 285 q 684 273 666 285 q 710 243 701 262 q 716 201 719 224 q 693 156 713 179 q 642 102 670 130 q 576 49 613 73 q 492 9 538 24 q 385 -7 445 -7 m 541 557 q 496 656 534 623 q 411 690 458 690 q 351 679 378 690 q 300 647 323 667 q 262 600 278 627 q 236 545 245 574 q 279 543 252 544 q 339 543 305 543 q 441 545 387 543 q 541 557 495 548 m 416 1145 q 467 1158 438 1165 q 517 1131 496 1152 q 545 1082 538 1109 q 529 1032 552 1054 l 362 878 q 310 863 340 857 q 256 887 279 868 q 227 934 233 906 q 247 986 221 962 l 416 1145 z "},"":{"ha":772,"x_min":54,"x_max":719,"o":"m 385 -7 q 241 29 302 -7 q 138 124 179 65 q 75 258 96 183 q 54 411 54 332 q 76 567 54 491 q 141 703 98 643 q 250 799 184 762 q 404 836 316 836 q 528 809 472 836 q 624 738 585 783 q 685 634 663 693 q 707 511 707 575 q 703 475 707 495 q 690 437 699 454 q 667 408 681 420 q 632 396 652 396 l 218 382 q 233 299 221 342 q 267 222 244 256 q 324 165 290 187 q 403 142 358 142 q 505 174 463 142 q 582 250 548 206 q 613 277 597 269 q 646 285 629 285 q 684 273 666 285 q 710 243 701 262 q 716 201 719 224 q 693 156 713 179 q 642 102 670 130 q 576 49 613 73 q 492 9 538 24 q 385 -7 445 -7 m 541 557 q 496 656 534 623 q 411 690 458 690 q 351 679 378 690 q 300 647 323 667 q 262 600 278 627 q 236 545 245 574 q 279 543 252 544 q 339 543 305 543 q 441 545 387 543 q 541 557 495 548 m 264 1105 q 315 1166 283 1145 q 380 1190 346 1188 q 447 1175 415 1192 q 499 1118 479 1157 l 589 943 q 587 888 605 910 q 541 859 570 867 q 480 858 511 850 q 437 892 449 865 l 378 1027 l 313 879 q 279 855 305 860 q 227 858 252 850 q 185 884 201 865 q 182 930 170 903 l 264 1105 z "},"":{"ha":772,"x_min":54,"x_max":719,"o":"m 385 -7 q 241 29 302 -7 q 138 124 179 65 q 75 258 96 183 q 54 411 54 332 q 76 567 54 491 q 141 703 98 643 q 250 799 184 762 q 404 836 316 836 q 528 809 472 836 q 624 738 585 783 q 685 634 663 693 q 707 511 707 575 q 703 475 707 495 q 690 437 699 454 q 667 408 681 420 q 632 396 652 396 l 218 382 q 233 299 221 342 q 267 222 244 256 q 324 165 290 187 q 403 142 358 142 q 505 174 463 142 q 582 250 548 206 q 613 277 597 269 q 646 285 629 285 q 684 273 666 285 q 710 243 701 262 q 716 201 719 224 q 693 156 713 179 q 642 102 670 130 q 576 49 613 73 q 492 9 538 24 q 385 -7 445 -7 m 541 557 q 496 656 534 623 q 411 690 458 690 q 351 679 378 690 q 300 647 323 667 q 262 600 278 627 q 236 545 245 574 q 279 543 252 544 q 339 543 305 543 q 441 545 387 543 q 541 557 495 548 m 221 1084 q 304 1064 273 1090 q 341 1000 335 1038 q 326 926 347 962 q 251 879 305 890 q 168 896 199 868 q 129 963 136 924 q 144 1039 122 1002 q 221 1084 165 1076 m 522 1084 q 605 1064 574 1090 q 642 1000 636 1038 q 627 926 648 962 q 552 879 606 890 q 469 896 500 868 q 430 963 437 924 q 445 1039 423 1002 q 522 1084 467 1076 z "},"":{"ha":324,"x_min":-4,"x_max":330,"o":"m 241 75 q 216 22 241 41 q 161 1 191 3 q 106 18 132 0 q 81 75 81 35 l 81 753 q 106 811 81 791 q 161 833 132 831 q 216 814 191 834 q 241 754 241 795 l 241 75 m 19 1032 q 3 1082 -4 1054 q 31 1131 9 1109 q 81 1158 52 1152 q 132 1145 110 1165 l 301 986 q 321 934 328 962 q 292 887 315 906 q 238 863 269 868 q 186 878 208 857 l 19 1032 z "},"":{"ha":324,"x_min":-4,"x_max":328,"o":"m 241 75 q 216 22 241 41 q 161 1 191 3 q 106 18 132 0 q 81 75 81 35 l 81 753 q 106 811 81 791 q 161 833 132 831 q 216 814 191 834 q 241 754 241 795 l 241 75 m 193 1145 q 243 1158 214 1165 q 294 1131 273 1152 q 321 1082 315 1109 q 305 1032 328 1054 l 138 878 q 86 863 117 857 q 33 887 56 868 q 3 934 9 906 q 23 986 -3 962 l 193 1145 z "},"":{"ha":324,"x_min":-56,"x_max":381,"o":"m 241 75 q 216 22 241 41 q 161 1 191 3 q 106 18 132 0 q 81 75 81 35 l 81 753 q 106 811 81 791 q 161 833 132 831 q 216 814 191 834 q 241 754 241 795 l 241 75 m 41 1105 q 91 1166 60 1145 q 157 1190 122 1188 q 223 1175 191 1192 q 275 1118 255 1157 l 365 943 q 363 888 381 910 q 317 859 346 867 q 256 858 288 850 q 213 892 225 865 l 155 1027 l 90 879 q 55 855 81 860 q 3 858 28 850 q -39 884 -23 865 q -42 930 -54 903 l 41 1105 z "},"":{"ha":324,"x_min":-102,"x_max":426,"o":"m 241 75 q 216 22 241 41 q 161 1 191 3 q 106 18 132 0 q 81 75 81 35 l 81 753 q 106 811 81 791 q 161 833 132 831 q 216 814 191 834 q 241 754 241 795 l 241 75 m -3 1084 q 80 1064 49 1090 q 117 1000 111 1038 q 102 926 123 962 q 27 879 81 890 q -56 896 -24 868 q -95 963 -88 924 q -80 1039 -102 1002 q -3 1084 -58 1076 m 298 1084 q 381 1064 350 1090 q 418 1000 412 1038 q 404 926 425 962 q 328 879 382 890 q 245 896 277 868 q 206 963 213 924 q 221 1039 199 1002 q 298 1084 243 1076 z "},"":{"ha":887,"x_min":54,"x_max":840,"o":"m 836 623 q 827 416 840 518 q 777 231 815 315 q 672 88 739 148 q 499 8 605 28 q 328 18 407 -9 q 191 102 250 46 q 98 235 133 159 q 60 391 64 312 q 74 537 54 471 q 135 650 94 604 q 238 721 176 697 q 380 739 300 745 q 535 692 457 734 q 686 564 613 651 q 665 751 689 659 q 600 918 642 842 l 495 825 q 442 810 473 804 q 388 835 411 815 q 359 882 365 854 q 380 933 353 909 l 503 1043 q 494 1050 498 1047 q 486 1057 490 1054 q 380 1106 433 1099 q 269 1081 328 1114 q 201 1072 233 1062 q 153 1105 170 1081 q 142 1163 137 1130 q 184 1223 146 1196 q 283 1267 229 1256 q 393 1272 338 1279 q 500 1243 448 1265 q 593 1188 552 1221 q 611 1172 602 1180 q 628 1156 620 1164 l 666 1190 q 718 1202 689 1210 q 768 1174 747 1195 q 795 1125 789 1153 q 779 1077 802 1097 l 723 1028 q 804 830 776 936 q 836 623 831 724 m 635 355 q 597 441 624 403 q 534 507 570 479 q 457 550 498 534 q 377 567 416 566 q 306 557 339 568 q 250 521 273 547 q 219 455 228 495 q 220 358 210 415 q 262 253 231 297 q 336 185 294 209 q 424 158 377 161 q 513 175 471 155 q 589 240 556 195 q 635 355 621 285 z "},"":{"ha":741,"x_min":-4,"x_max":750,"o":"m 385 659 q 294 635 334 662 q 217 574 254 609 l 217 91 q 192 22 217 47 q 136 -5 167 -3 q 81 16 106 -7 q 56 91 56 38 l 57 747 q 82 812 57 789 q 137 837 107 834 q 192 823 167 840 q 217 769 217 806 q 297 810 254 792 q 393 831 340 829 q 513 804 464 834 q 593 726 562 774 q 643 617 625 677 q 669 500 661 557 q 681 383 677 444 q 686 266 685 323 q 686 158 686 209 q 684 68 685 107 q 656 16 682 34 q 598 -4 629 -3 q 542 12 567 -5 q 518 65 517 28 q 520 133 519 87 q 519 237 521 179 q 513 359 518 296 q 500 480 509 423 q 490 536 496 506 q 471 593 484 567 q 438 639 458 620 q 385 659 418 658 m 79 856 q 20 876 45 856 q -4 932 -4 897 q 20 1006 -3 971 q 77 1066 42 1040 q 151 1106 111 1092 q 228 1120 191 1120 q 302 1105 269 1120 q 368 1072 336 1089 q 431 1040 400 1054 q 498 1032 463 1027 q 553 1059 534 1038 q 587 1103 572 1080 q 617 1146 601 1127 q 663 1165 633 1165 q 703 1154 686 1165 q 730 1127 719 1143 q 742 1063 749 1097 q 712 994 735 1029 q 612 897 673 933 q 476 860 551 860 q 404 875 434 860 q 346 907 373 890 q 291 939 319 924 q 228 954 263 954 q 177 939 194 954 q 147 905 160 924 q 121 871 134 887 q 79 856 107 856 z "},"":{"ha":799,"x_min":53,"x_max":746,"o":"m 381 7 q 237 45 298 11 q 136 132 176 79 q 75 253 95 186 q 56 389 56 320 q 74 548 53 468 q 141 692 95 628 q 256 794 187 755 q 419 827 326 833 q 564 785 502 823 q 667 686 627 746 q 727 551 708 627 q 744 399 746 476 q 718 250 742 323 q 649 122 694 178 q 536 35 604 66 q 381 7 469 3 l 381 7 m 412 670 q 345 662 380 674 q 280 617 309 650 q 232 529 251 585 q 213 391 213 473 q 222 309 213 351 q 254 231 232 266 q 311 174 275 197 q 397 152 346 152 q 504 189 463 153 q 565 280 545 225 q 583 399 585 335 q 562 522 582 464 q 505 621 543 579 q 412 670 467 662 l 412 670 m 256 1032 q 240 1082 233 1054 q 268 1131 247 1109 q 318 1158 289 1152 q 369 1145 347 1165 l 538 986 q 559 934 566 962 q 529 887 552 906 q 475 863 506 868 q 423 878 445 857 l 256 1032 z "},"":{"ha":799,"x_min":53,"x_max":746,"o":"m 381 7 q 237 45 298 11 q 136 132 176 79 q 75 253 95 186 q 56 389 56 320 q 74 548 53 468 q 141 692 95 628 q 256 794 187 755 q 419 827 326 833 q 564 785 502 823 q 667 686 627 746 q 727 551 708 627 q 744 399 746 476 q 718 250 742 323 q 649 122 694 178 q 536 35 604 66 q 381 7 469 3 l 381 7 m 412 670 q 345 662 380 674 q 280 617 309 650 q 232 529 251 585 q 213 391 213 473 q 222 309 213 351 q 254 231 232 266 q 311 174 275 197 q 397 152 346 152 q 504 189 463 153 q 565 280 545 225 q 583 399 585 335 q 562 522 582 464 q 505 621 543 579 q 412 670 467 662 l 412 670 m 430 1145 q 481 1158 452 1165 q 531 1131 510 1152 q 559 1082 552 1109 q 543 1032 566 1054 l 376 878 q 323 863 354 857 q 270 887 293 868 q 241 934 247 906 q 260 986 235 962 l 430 1145 z "},"":{"ha":799,"x_min":53,"x_max":746,"o":"m 381 7 q 237 45 298 11 q 136 132 176 79 q 75 253 95 186 q 56 389 56 320 q 74 548 53 468 q 141 692 95 628 q 256 794 187 755 q 419 827 326 833 q 564 785 502 823 q 667 686 627 746 q 727 551 708 627 q 744 399 746 476 q 718 250 742 323 q 649 122 694 178 q 536 35 604 66 q 381 7 469 3 l 381 7 m 412 670 q 345 662 380 674 q 280 617 309 650 q 232 529 251 585 q 213 391 213 473 q 222 309 213 351 q 254 231 232 266 q 311 174 275 197 q 397 152 346 152 q 504 189 463 153 q 565 280 545 225 q 583 399 585 335 q 562 522 582 464 q 505 621 543 579 q 412 670 467 662 l 412 670 m 278 1105 q 328 1166 297 1145 q 394 1190 359 1188 q 460 1175 429 1192 q 513 1118 492 1157 l 602 943 q 601 888 618 910 q 554 859 583 867 q 494 858 525 850 q 450 892 463 865 l 392 1027 l 327 879 q 292 855 319 860 q 240 858 266 850 q 199 884 214 865 q 195 930 183 903 l 278 1105 z "},"":{"ha":799,"x_min":24,"x_max":779,"o":"m 381 7 q 237 45 298 11 q 136 132 176 79 q 75 253 95 186 q 56 389 56 320 q 74 548 53 468 q 141 692 95 628 q 256 794 187 755 q 419 827 326 833 q 564 785 502 823 q 667 686 627 746 q 727 551 708 627 q 744 399 746 476 q 718 250 742 323 q 649 122 694 178 q 536 35 604 66 q 381 7 469 3 l 381 7 m 412 670 q 345 662 380 674 q 280 617 309 650 q 232 529 251 585 q 213 391 213 473 q 222 309 213 351 q 254 231 232 266 q 311 174 275 197 q 397 152 346 152 q 504 189 463 153 q 565 280 545 225 q 583 399 585 335 q 562 522 582 464 q 505 621 543 579 q 412 670 467 662 l 412 670 m 109 856 q 50 876 75 856 q 26 932 26 897 q 50 1006 27 971 q 106 1066 72 1040 q 181 1106 141 1092 q 258 1120 221 1120 q 332 1105 298 1120 q 398 1072 366 1089 q 461 1040 430 1054 q 528 1032 492 1027 q 583 1059 564 1038 q 616 1103 602 1080 q 647 1146 631 1127 q 693 1165 663 1165 q 732 1154 716 1165 q 760 1127 749 1143 q 772 1063 779 1097 q 742 994 765 1029 q 642 897 703 933 q 506 860 581 860 q 433 875 464 860 q 376 907 403 890 q 321 939 349 924 q 258 954 293 954 q 207 939 224 954 q 177 905 190 924 q 151 871 164 887 q 109 856 137 856 z "},"":{"ha":799,"x_min":53,"x_max":746,"o":"m 381 7 q 237 45 298 11 q 136 132 176 79 q 75 253 95 186 q 56 389 56 320 q 74 548 53 468 q 141 692 95 628 q 256 794 187 755 q 419 827 326 833 q 564 785 502 823 q 667 686 627 746 q 727 551 708 627 q 744 399 746 476 q 718 250 742 323 q 649 122 694 178 q 536 35 604 66 q 381 7 469 3 l 381 7 m 412 670 q 345 662 380 674 q 280 617 309 650 q 232 529 251 585 q 213 391 213 473 q 222 309 213 351 q 254 231 232 266 q 311 174 275 197 q 397 152 346 152 q 504 189 463 153 q 565 280 545 225 q 583 399 585 335 q 562 522 582 464 q 505 621 543 579 q 412 670 467 662 l 412 670 m 235 1084 q 317 1064 286 1090 q 355 1000 349 1038 q 340 926 361 962 q 264 879 319 890 q 181 896 213 868 q 142 963 149 924 q 157 1039 136 1002 q 235 1084 179 1076 m 536 1084 q 618 1064 587 1090 q 656 1000 650 1038 q 641 926 662 962 q 566 879 620 890 q 482 896 514 868 q 444 963 450 924 q 458 1039 437 1002 q 536 1084 480 1076 z "},"":{"ha":724,"x_min":54,"x_max":670,"o":"m 342 821 q 425 801 393 827 q 462 736 456 774 q 447 663 468 699 q 372 616 426 627 q 288 633 320 605 q 250 700 256 661 q 264 776 243 739 q 342 821 286 812 m 354 368 q 437 348 406 374 q 474 283 468 321 q 459 210 480 245 q 384 163 438 174 q 300 180 332 152 q 262 247 269 208 q 277 323 255 286 q 354 368 298 359 m 119 411 q 70 436 85 411 q 55 490 54 461 q 73 545 56 519 q 119 570 90 570 l 601 570 q 654 545 637 570 q 669 490 670 519 q 650 436 669 461 q 595 411 631 411 l 119 411 z "},"":{"ha":799,"x_min":53,"x_max":747,"o":"m 381 7 q 260 34 315 8 q 255 27 259 31 q 212 2 239 0 q 161 21 184 4 q 124 64 137 38 q 122 111 111 90 l 134 133 q 75 253 95 186 q 56 389 56 320 q 74 548 53 468 q 141 692 95 628 q 256 794 187 755 q 419 827 326 833 q 503 811 465 825 q 547 833 519 834 q 598 817 574 831 q 637 781 623 803 q 642 741 652 760 q 637 733 639 736 q 635 727 636 730 q 713 595 686 671 q 744 437 741 518 q 726 276 747 355 q 660 136 705 197 q 545 39 614 75 q 381 7 476 3 m 412 670 q 345 662 380 674 q 280 617 309 650 q 232 529 251 585 q 213 391 213 473 q 225 298 213 346 l 425 667 q 412 670 416 670 m 339 161 q 397 152 362 152 q 479 172 445 152 q 536 224 513 191 q 570 298 559 256 q 583 385 582 340 q 575 475 585 430 q 547 559 566 521 q 494 452 515 496 q 452 364 473 407 q 406 275 431 321 q 339 161 380 228 z "},"":{"ha":785,"x_min":54,"x_max":731,"o":"m 731 96 q 708 35 731 58 q 656 6 685 11 q 603 18 628 1 q 572 79 578 35 q 479 26 529 46 q 377 8 429 7 q 234 46 292 11 q 140 138 176 81 q 86 270 104 195 q 61 427 68 345 q 56 596 54 510 q 60 761 57 682 q 85 817 61 798 q 138 837 110 836 q 192 821 167 838 q 218 768 217 803 q 219 718 220 747 q 217 652 218 688 q 216 574 216 616 q 217 491 216 533 q 230 375 220 433 q 258 273 240 317 q 304 200 277 228 q 372 174 332 172 q 460 199 423 175 q 522 263 498 224 q 559 352 547 302 q 571 453 571 401 l 571 753 q 596 813 571 792 q 651 835 621 834 q 706 816 681 836 q 731 754 731 796 l 731 96 m 250 1032 q 233 1082 227 1054 q 261 1131 240 1109 q 311 1158 282 1152 q 362 1145 340 1165 l 532 986 q 552 934 559 962 q 522 887 545 906 q 469 863 499 868 q 416 878 438 857 l 250 1032 z "},"":{"ha":785,"x_min":54,"x_max":731,"o":"m 731 96 q 708 35 731 58 q 656 6 685 11 q 603 18 628 1 q 572 79 578 35 q 479 26 529 46 q 377 8 429 7 q 234 46 292 11 q 140 138 176 81 q 86 270 104 195 q 61 427 68 345 q 56 596 54 510 q 60 761 57 682 q 85 817 61 798 q 138 837 110 836 q 192 821 167 838 q 218 768 217 803 q 219 718 220 747 q 217 652 218 688 q 216 574 216 616 q 217 491 216 533 q 230 375 220 433 q 258 273 240 317 q 304 200 277 228 q 372 174 332 172 q 460 199 423 175 q 522 263 498 224 q 559 352 547 302 q 571 453 571 401 l 571 753 q 596 813 571 792 q 651 835 621 834 q 706 816 681 836 q 731 754 731 796 l 731 96 m 423 1145 q 474 1158 445 1165 q 524 1131 503 1152 q 552 1082 545 1109 q 536 1032 559 1054 l 369 878 q 317 863 347 857 q 263 887 286 868 q 234 934 240 906 q 254 986 228 962 l 423 1145 z "},"":{"ha":785,"x_min":54,"x_max":731,"o":"m 731 96 q 708 35 731 58 q 656 6 685 11 q 603 18 628 1 q 572 79 578 35 q 479 26 529 46 q 377 8 429 7 q 234 46 292 11 q 140 138 176 81 q 86 270 104 195 q 61 427 68 345 q 56 596 54 510 q 60 761 57 682 q 85 817 61 798 q 138 837 110 836 q 192 821 167 838 q 218 768 217 803 q 219 718 220 747 q 217 652 218 688 q 216 574 216 616 q 217 491 216 533 q 230 375 220 433 q 258 273 240 317 q 304 200 277 228 q 372 174 332 172 q 460 199 423 175 q 522 263 498 224 q 559 352 547 302 q 571 453 571 401 l 571 753 q 596 813 571 792 q 651 835 621 834 q 706 816 681 836 q 731 754 731 796 l 731 96 m 271 1105 q 321 1166 290 1145 q 387 1190 353 1188 q 454 1175 422 1192 q 506 1118 486 1157 l 595 943 q 594 888 612 910 q 547 859 576 867 q 487 858 518 850 q 444 892 456 865 l 385 1027 l 320 879 q 286 855 312 860 q 233 858 259 850 q 192 884 208 865 q 189 930 176 903 l 271 1105 z "},"":{"ha":785,"x_min":54,"x_max":731,"o":"m 731 96 q 708 35 731 58 q 656 6 685 11 q 603 18 628 1 q 572 79 578 35 q 479 26 529 46 q 377 8 429 7 q 234 46 292 11 q 140 138 176 81 q 86 270 104 195 q 61 427 68 345 q 56 596 54 510 q 60 761 57 682 q 85 817 61 798 q 138 837 110 836 q 192 821 167 838 q 218 768 217 803 q 219 718 220 747 q 217 652 218 688 q 216 574 216 616 q 217 491 216 533 q 230 375 220 433 q 258 273 240 317 q 304 200 277 228 q 372 174 332 172 q 460 199 423 175 q 522 263 498 224 q 559 352 547 302 q 571 453 571 401 l 571 753 q 596 813 571 792 q 651 835 621 834 q 706 816 681 836 q 731 754 731 796 l 731 96 m 228 1084 q 311 1064 279 1090 q 348 1000 342 1038 q 333 926 354 962 q 258 879 312 890 q 174 896 206 868 q 136 963 142 924 q 151 1039 129 1002 q 228 1084 172 1076 m 529 1084 q 612 1064 581 1090 q 649 1000 643 1038 q 634 926 655 962 q 559 879 613 890 q 475 896 507 868 q 437 963 444 924 q 452 1039 430 1002 q 529 1084 473 1076 z "},"":{"ha":856,"x_min":52,"x_max":804,"o":"m 463 -285 q 431 -331 452 -317 q 387 -345 410 -345 q 349 -337 368 -345 q 318 -317 331 -330 q 300 -287 305 -304 q 300 -251 294 -270 l 397 62 l 64 716 q 54 761 52 739 q 69 799 57 783 q 100 825 81 815 q 138 836 118 836 q 175 825 157 836 q 205 791 193 814 l 468 275 l 636 787 q 665 827 646 815 q 707 840 684 840 q 745 831 726 840 q 778 809 764 823 q 798 777 792 795 q 798 739 804 760 l 463 -285 m 458 1145 q 509 1158 480 1165 q 559 1131 538 1152 q 587 1082 581 1109 q 571 1032 594 1054 l 404 878 q 352 863 382 857 q 298 887 321 868 q 269 934 275 906 q 289 986 263 962 l 458 1145 z "},"":{"ha":808,"x_min":56,"x_max":758,"o":"m 210 -224 q 186 -269 210 -251 q 132 -290 161 -286 q 79 -277 103 -293 q 56 -218 56 -260 l 57 1042 q 81 1118 57 1093 q 136 1143 106 1143 q 191 1118 165 1143 q 217 1044 216 1093 l 221 803 q 381 834 307 834 q 517 809 456 834 q 625 736 578 784 q 702 625 671 689 q 745 485 732 562 q 750 326 758 408 q 715 200 743 255 q 643 106 686 145 q 546 44 600 66 q 435 15 492 22 q 319 18 377 8 q 212 54 262 28 l 210 -224 m 221 237 q 321 185 262 199 q 435 183 380 171 q 534 235 491 195 q 587 340 578 274 q 574 498 600 425 q 498 614 549 571 q 375 663 446 658 q 224 617 304 669 l 221 237 z "},"":{"ha":856,"x_min":52,"x_max":804,"o":"m 463 -285 q 431 -331 452 -317 q 387 -345 410 -345 q 349 -337 368 -345 q 318 -317 331 -330 q 300 -287 305 -304 q 300 -251 294 -270 l 397 62 l 64 716 q 54 761 52 739 q 69 799 57 783 q 100 825 81 815 q 138 836 118 836 q 175 825 157 836 q 205 791 193 814 l 468 275 l 636 787 q 665 827 646 815 q 707 840 684 840 q 745 831 726 840 q 778 809 764 823 q 798 777 792 795 q 798 739 804 760 l 463 -285 m 263 1084 q 346 1064 315 1090 q 383 1000 377 1038 q 368 926 389 962 q 293 879 347 890 q 210 896 241 868 q 171 963 178 924 q 186 1039 164 1002 q 263 1084 208 1076 m 564 1084 q 647 1064 616 1090 q 684 1000 678 1038 q 669 926 690 962 q 594 879 648 890 q 511 896 543 868 q 472 963 479 924 q 487 1039 465 1002 q 564 1084 509 1076 z "},"":{"ha":1002,"x_min":46,"x_max":954,"o":"m 381 1196 q 435 1265 400 1244 q 507 1284 469 1287 q 577 1257 544 1282 q 625 1187 610 1232 q 706 928 665 1072 q 788 635 747 784 q 868 344 829 487 q 945 84 907 201 q 933 37 954 60 q 884 6 913 15 q 825 8 854 -3 q 783 60 795 19 l 674 445 l 320 445 q 288 326 305 389 q 254 208 270 263 q 227 110 239 152 q 210 53 214 68 q 174 15 203 28 q 115 5 145 1 q 66 31 85 8 q 58 99 46 53 q 93 226 69 140 q 147 421 117 312 q 213 651 178 530 q 281 880 248 772 q 340 1074 313 989 q 381 1196 366 1158 m 499 1059 q 486 1013 499 1057 q 454 904 473 970 q 410 758 434 838 q 363 601 387 678 l 635 601 l 499 1059 m 259 1335 q 210 1360 225 1335 q 195 1414 194 1385 q 212 1468 195 1443 q 259 1493 229 1493 l 741 1493 q 793 1468 777 1493 q 808 1414 810 1443 q 789 1360 807 1385 q 735 1335 770 1335 l 259 1335 z "},"":{"ha":772,"x_min":53,"x_max":718,"o":"m 718 96 q 689 31 718 54 q 628 7 661 7 q 574 29 598 7 q 551 99 551 52 q 444 40 505 64 q 324 16 382 16 q 203 51 255 16 q 118 142 152 85 q 68 270 84 198 q 55 417 53 342 q 76 564 57 492 q 132 692 95 636 q 224 783 170 749 q 349 817 278 817 q 446 798 392 817 q 551 739 499 779 q 581 809 555 785 q 637 833 606 833 q 693 807 669 833 q 718 727 718 781 l 718 96 m 551 528 q 458 625 509 594 q 359 654 407 656 q 279 614 312 651 q 231 523 247 576 q 214 407 214 469 q 231 292 214 345 q 281 205 248 240 q 366 171 315 170 q 463 205 414 172 q 551 298 513 237 l 551 528 m 144 890 q 94 915 110 890 q 79 969 79 940 q 97 1023 80 998 q 144 1048 114 1048 l 625 1048 q 678 1023 662 1048 q 693 969 694 998 q 673 915 692 940 q 620 890 655 890 l 144 890 z "},"":{"ha":1002,"x_min":46,"x_max":954,"o":"m 381 1196 q 435 1265 400 1244 q 507 1284 469 1287 q 577 1257 544 1282 q 625 1187 610 1232 q 706 928 665 1072 q 788 635 747 784 q 868 344 829 487 q 945 84 907 201 q 933 37 954 60 q 884 6 913 15 q 825 8 854 -3 q 783 60 795 19 l 674 445 l 320 445 q 288 326 305 389 q 254 208 270 263 q 227 110 239 152 q 210 53 214 68 q 174 15 203 28 q 115 5 145 1 q 66 31 85 8 q 58 99 46 53 q 93 226 69 140 q 147 421 117 312 q 213 651 178 530 q 281 880 248 772 q 340 1074 313 989 q 381 1196 366 1158 m 499 1059 q 486 1013 499 1057 q 454 904 473 970 q 410 758 434 838 q 363 601 387 678 l 635 601 l 499 1059 m 239 1495 q 250 1538 233 1522 q 289 1557 266 1554 q 335 1549 312 1560 q 366 1511 358 1538 q 414 1440 382 1462 q 484 1420 446 1419 q 530 1426 506 1420 q 574 1443 553 1431 q 612 1475 595 1455 q 635 1525 628 1495 q 665 1560 642 1550 q 712 1567 688 1571 q 753 1546 736 1563 q 762 1497 769 1529 q 721 1408 750 1444 q 654 1348 692 1371 q 574 1313 617 1324 q 490 1301 530 1302 q 399 1314 441 1299 q 324 1353 357 1328 q 269 1415 292 1378 q 239 1495 247 1451 z "},"":{"ha":772,"x_min":53,"x_max":718,"o":"m 718 96 q 689 31 718 54 q 628 7 661 7 q 574 29 598 7 q 551 99 551 52 q 444 40 505 64 q 324 16 382 16 q 203 51 255 16 q 118 142 152 85 q 68 270 84 198 q 55 417 53 342 q 76 564 57 492 q 132 692 95 636 q 224 783 170 749 q 349 817 278 817 q 446 798 392 817 q 551 739 499 779 q 581 809 555 785 q 637 833 606 833 q 693 807 669 833 q 718 727 718 781 l 718 96 m 551 528 q 458 625 509 594 q 359 654 407 656 q 279 614 312 651 q 231 523 247 576 q 214 407 214 469 q 231 292 214 345 q 281 205 248 240 q 366 171 315 170 q 463 205 414 172 q 551 298 513 237 l 551 528 m 123 1050 q 134 1093 118 1077 q 174 1112 151 1109 q 220 1104 197 1115 q 251 1066 243 1093 q 299 996 267 1017 q 369 975 331 974 q 414 981 391 975 q 459 998 438 986 q 496 1030 480 1010 q 519 1080 513 1050 q 549 1116 526 1105 q 597 1122 572 1126 q 637 1101 621 1118 q 647 1053 654 1084 q 606 963 635 1000 q 539 903 576 926 q 458 868 502 879 q 374 856 415 857 q 283 869 326 854 q 209 908 241 883 q 154 970 176 933 q 123 1050 132 1006 z "},"":{"ha":1002,"x_min":46,"x_max":954,"o":"m 381 1196 q 435 1265 400 1244 q 507 1284 469 1287 q 577 1257 544 1282 q 625 1187 610 1232 q 706 928 665 1072 q 788 635 747 784 q 868 344 829 487 q 945 84 907 201 q 933 37 954 60 q 884 6 913 15 q 825 8 854 -3 q 783 60 795 19 l 674 445 l 320 445 q 288 326 305 389 q 254 208 270 263 q 227 110 239 152 q 210 53 214 68 q 174 15 203 28 q 115 5 145 1 q 66 31 85 8 q 58 99 46 53 q 93 226 69 140 q 147 421 117 312 q 213 651 178 530 q 281 880 248 772 q 340 1074 313 989 q 381 1196 366 1158 m 499 1059 q 486 1013 499 1057 q 454 904 473 970 q 410 758 434 838 q 363 601 387 678 l 635 601 l 499 1059 m 792 87 q 829 117 810 115 q 860 106 848 119 q 873 70 872 92 q 859 27 875 47 q 840 -22 841 5 q 849 -74 838 -49 q 880 -121 860 -99 q 926 -156 901 -142 q 947 -189 947 -167 q 933 -231 947 -212 q 897 -259 920 -250 q 849 -255 873 -269 q 786 -195 811 -233 q 751 -111 761 -157 q 751 -13 742 -64 q 792 87 761 38 z "},"":{"ha":772,"x_min":53,"x_max":718,"o":"m 718 96 q 689 31 718 54 q 628 7 661 7 q 574 29 598 7 q 551 99 551 52 q 444 40 505 64 q 324 16 382 16 q 203 51 255 16 q 118 142 152 85 q 68 270 84 198 q 55 417 53 342 q 76 564 57 492 q 132 692 95 636 q 224 783 170 749 q 349 817 278 817 q 446 798 392 817 q 551 739 499 779 q 581 809 555 785 q 637 833 606 833 q 693 807 669 833 q 718 727 718 781 l 718 96 m 551 528 q 458 625 509 594 q 359 654 407 656 q 279 614 312 651 q 231 523 247 576 q 214 407 214 469 q 231 292 214 345 q 281 205 248 240 q 366 171 315 170 q 463 205 414 172 q 551 298 513 237 l 551 528 m 563 87 q 600 117 581 115 q 631 106 618 119 q 644 70 643 92 q 629 27 646 47 q 610 -22 612 5 q 620 -74 609 -49 q 651 -121 631 -99 q 697 -156 671 -142 q 718 -189 718 -167 q 704 -231 718 -212 q 667 -259 690 -250 q 620 -255 644 -269 q 557 -195 582 -233 q 522 -111 532 -157 q 522 -13 513 -64 q 563 87 532 38 z "},"":{"ha":876,"x_min":53,"x_max":827,"o":"m 818 305 q 758 185 798 241 q 666 87 719 129 q 550 22 613 46 q 418 -1 487 -1 q 255 52 324 -1 q 140 193 186 106 q 74 394 95 281 q 54 627 53 507 q 79 849 57 739 q 149 1048 102 959 q 266 1199 195 1138 q 434 1275 336 1260 q 562 1268 500 1286 q 674 1211 624 1251 q 758 1112 724 1172 q 803 977 792 1051 q 789 916 808 940 q 742 883 769 891 q 688 886 715 875 q 652 930 662 897 q 568 1083 620 1043 q 453 1111 517 1123 q 352 1054 395 1100 q 281 939 309 1008 q 237 785 252 869 q 221 616 222 701 q 232 449 220 530 q 269 304 244 368 q 332 203 294 241 q 418 167 369 165 q 503 185 464 168 q 574 231 541 202 q 634 298 606 259 q 686 384 662 338 q 726 410 700 408 q 775 399 751 412 q 813 360 799 385 q 818 305 827 335 m 468 1590 q 519 1603 490 1610 q 569 1575 548 1596 q 597 1527 590 1554 q 581 1477 604 1499 l 414 1322 q 361 1308 392 1302 q 308 1332 331 1313 q 279 1379 285 1351 q 298 1431 273 1407 l 468 1590 z "},"":{"ha":762,"x_min":54,"x_max":708,"o":"m 397 -3 q 249 32 312 -3 q 143 123 186 66 q 79 252 100 179 q 56 401 57 324 q 76 557 54 480 q 141 694 98 633 q 251 793 184 754 q 407 834 317 831 l 416 834 q 505 820 458 834 q 591 777 551 806 q 662 705 632 749 q 701 601 692 661 q 699 563 705 579 q 680 536 692 547 q 651 519 667 525 q 618 514 635 514 q 578 524 595 514 q 553 555 560 533 q 499 644 534 620 q 416 669 464 669 q 328 644 365 669 q 266 583 290 620 q 229 498 241 545 q 216 407 217 452 q 225 315 214 359 q 258 235 236 270 q 313 178 279 199 q 393 157 347 157 q 457 166 430 157 q 507 190 484 175 q 551 226 530 205 q 597 271 572 247 q 629 285 610 285 q 667 271 648 285 q 697 235 686 256 q 707 186 708 213 q 686 136 707 160 q 625 81 662 106 q 549 37 589 56 q 469 8 509 19 q 397 -3 429 -3 m 411 1145 q 462 1158 433 1165 q 512 1131 491 1152 q 540 1082 533 1109 q 524 1032 547 1054 l 357 878 q 304 863 335 857 q 251 887 274 868 q 222 934 228 906 q 241 986 216 962 l 411 1145 z "},"":{"ha":876,"x_min":53,"x_max":827,"o":"m 818 305 q 758 185 798 241 q 666 87 719 129 q 550 22 613 46 q 418 -1 487 -1 q 255 52 324 -1 q 140 193 186 106 q 74 394 95 281 q 54 627 53 507 q 79 849 57 739 q 149 1048 102 959 q 266 1199 195 1138 q 434 1275 336 1260 q 562 1268 500 1286 q 674 1211 624 1251 q 758 1112 724 1172 q 803 977 792 1051 q 789 916 808 940 q 742 883 769 891 q 688 886 715 875 q 652 930 662 897 q 568 1083 620 1043 q 453 1111 517 1123 q 352 1054 395 1100 q 281 939 309 1008 q 237 785 252 869 q 221 616 222 701 q 232 449 220 530 q 269 304 244 368 q 332 203 294 241 q 418 167 369 165 q 503 185 464 168 q 574 231 541 202 q 634 298 606 259 q 686 384 662 338 q 726 410 700 408 q 775 399 751 412 q 813 360 799 385 q 818 305 827 335 m 316 1550 q 366 1611 335 1590 q 432 1635 397 1633 q 498 1619 467 1637 q 551 1563 530 1602 l 640 1388 q 639 1333 656 1355 q 592 1303 621 1312 q 532 1303 563 1295 q 488 1337 500 1310 l 430 1472 l 365 1324 q 330 1300 357 1305 q 278 1303 304 1295 q 237 1329 252 1310 q 233 1375 221 1348 l 316 1550 z "},"":{"ha":762,"x_min":54,"x_max":708,"o":"m 397 -3 q 249 32 312 -3 q 143 123 186 66 q 79 252 100 179 q 56 401 57 324 q 76 557 54 480 q 141 694 98 633 q 251 793 184 754 q 407 834 317 831 l 416 834 q 505 820 458 834 q 591 777 551 806 q 662 705 632 749 q 701 601 692 661 q 699 563 705 579 q 680 536 692 547 q 651 519 667 525 q 618 514 635 514 q 578 524 595 514 q 553 555 560 533 q 499 644 534 620 q 416 669 464 669 q 328 644 365 669 q 266 583 290 620 q 229 498 241 545 q 216 407 217 452 q 225 315 214 359 q 258 235 236 270 q 313 178 279 199 q 393 157 347 157 q 457 166 430 157 q 507 190 484 175 q 551 226 530 205 q 597 271 572 247 q 629 285 610 285 q 667 271 648 285 q 697 235 686 256 q 707 186 708 213 q 686 136 707 160 q 625 81 662 106 q 549 37 589 56 q 469 8 509 19 q 397 -3 429 -3 m 259 1105 q 309 1166 278 1145 q 375 1190 340 1188 q 441 1175 410 1192 q 494 1118 473 1157 l 583 943 q 582 888 600 910 q 535 859 564 867 q 475 858 506 850 q 431 892 444 865 l 373 1027 l 308 879 q 273 855 300 860 q 221 858 247 850 q 180 884 195 865 q 176 930 164 903 l 259 1105 z "},"":{"ha":876,"x_min":53,"x_max":827,"o":"m 818 305 q 758 185 798 241 q 666 87 719 129 q 550 22 613 46 q 418 -1 487 -1 q 255 52 324 -1 q 140 193 186 106 q 74 394 95 281 q 54 627 53 507 q 79 849 57 739 q 149 1048 102 959 q 266 1199 195 1138 q 434 1275 336 1260 q 562 1268 500 1286 q 674 1211 624 1251 q 758 1112 724 1172 q 803 977 792 1051 q 789 916 808 940 q 742 883 769 891 q 688 886 715 875 q 652 930 662 897 q 568 1083 620 1043 q 453 1111 517 1123 q 352 1054 395 1100 q 281 939 309 1008 q 237 785 252 869 q 221 616 222 701 q 232 449 220 530 q 269 304 244 368 q 332 203 294 241 q 418 167 369 165 q 503 185 464 168 q 574 231 541 202 q 634 298 606 259 q 686 384 662 338 q 726 410 700 408 q 775 399 751 412 q 813 360 799 385 q 818 305 827 335 m 454 1318 q 371 1335 403 1308 q 332 1402 339 1363 q 347 1478 326 1442 q 425 1523 369 1515 q 507 1503 476 1530 q 545 1439 538 1477 q 530 1365 551 1401 q 454 1318 509 1329 z "},"":{"ha":762,"x_min":54,"x_max":708,"o":"m 397 -3 q 249 32 312 -3 q 143 123 186 66 q 79 252 100 179 q 56 401 57 324 q 76 557 54 480 q 141 694 98 633 q 251 793 184 754 q 407 834 317 831 l 416 834 q 505 820 458 834 q 591 777 551 806 q 662 705 632 749 q 701 601 692 661 q 699 563 705 579 q 680 536 692 547 q 651 519 667 525 q 618 514 635 514 q 578 524 595 514 q 553 555 560 533 q 499 644 534 620 q 416 669 464 669 q 328 644 365 669 q 266 583 290 620 q 229 498 241 545 q 216 407 217 452 q 225 315 214 359 q 258 235 236 270 q 313 178 279 199 q 393 157 347 157 q 457 166 430 157 q 507 190 484 175 q 551 226 530 205 q 597 271 572 247 q 629 285 610 285 q 667 271 648 285 q 697 235 686 256 q 707 186 708 213 q 686 136 707 160 q 625 81 662 106 q 549 37 589 56 q 469 8 509 19 q 397 -3 429 -3 m 397 873 q 314 890 346 863 q 275 958 282 918 q 290 1034 269 997 q 368 1078 312 1070 q 450 1059 419 1085 q 488 994 481 1032 q 473 920 494 956 q 397 873 452 884 z "},"":{"ha":876,"x_min":53,"x_max":827,"o":"m 818 305 q 758 185 798 241 q 666 87 719 129 q 550 22 613 46 q 418 -1 487 -1 q 255 52 324 -1 q 140 193 186 106 q 74 394 95 281 q 54 627 53 507 q 79 849 57 739 q 149 1048 102 959 q 266 1199 195 1138 q 434 1275 336 1260 q 562 1268 500 1286 q 674 1211 624 1251 q 758 1112 724 1172 q 803 977 792 1051 q 789 916 808 940 q 742 883 769 891 q 688 886 715 875 q 652 930 662 897 q 568 1083 620 1043 q 453 1111 517 1123 q 352 1054 395 1100 q 281 939 309 1008 q 237 785 252 869 q 221 616 222 701 q 232 449 220 530 q 269 304 244 368 q 332 203 294 241 q 418 167 369 165 q 503 185 464 168 q 574 231 541 202 q 634 298 606 259 q 686 384 662 338 q 726 410 700 408 q 775 399 751 412 q 813 360 799 385 q 818 305 827 335 m 560 1382 q 510 1321 541 1343 q 444 1297 479 1299 q 378 1314 410 1295 q 326 1370 346 1332 l 236 1545 q 229 1584 225 1567 q 245 1615 233 1602 q 277 1634 258 1628 q 316 1639 297 1641 q 353 1627 335 1637 q 380 1595 370 1617 l 438 1461 l 503 1609 q 544 1643 515 1637 q 599 1639 572 1649 q 640 1607 625 1629 q 643 1557 655 1584 l 560 1382 z "},"":{"ha":762,"x_min":54,"x_max":708,"o":"m 397 -3 q 249 32 312 -3 q 143 123 186 66 q 79 252 100 179 q 56 401 57 324 q 76 557 54 480 q 141 694 98 633 q 251 793 184 754 q 407 834 317 831 l 416 834 q 505 820 458 834 q 591 777 551 806 q 662 705 632 749 q 701 601 692 661 q 699 563 705 579 q 680 536 692 547 q 651 519 667 525 q 618 514 635 514 q 578 524 595 514 q 553 555 560 533 q 499 644 534 620 q 416 669 464 669 q 328 644 365 669 q 266 583 290 620 q 229 498 241 545 q 216 407 217 452 q 225 315 214 359 q 258 235 236 270 q 313 178 279 199 q 393 157 347 157 q 457 166 430 157 q 507 190 484 175 q 551 226 530 205 q 597 271 572 247 q 629 285 610 285 q 667 271 648 285 q 697 235 686 256 q 707 186 708 213 q 686 136 707 160 q 625 81 662 106 q 549 37 589 56 q 469 8 509 19 q 397 -3 429 -3 m 503 937 q 453 876 484 898 q 387 852 422 854 q 321 869 353 850 q 269 925 289 887 l 179 1100 q 172 1139 168 1122 q 189 1170 176 1157 q 220 1190 201 1183 q 259 1194 240 1196 q 296 1182 278 1192 q 323 1150 313 1172 l 381 1016 l 446 1164 q 487 1198 458 1192 q 542 1194 515 1204 q 583 1162 568 1184 q 586 1112 598 1139 l 503 937 z "},"":{"ha":882,"x_min":56,"x_max":833,"o":"m 227 7 q 137 7 171 4 q 85 27 103 11 q 61 75 66 43 q 56 160 56 106 l 68 1133 q 71 1198 68 1169 q 86 1248 75 1227 q 121 1278 98 1268 q 187 1283 145 1287 q 239 1278 214 1280 q 290 1274 264 1276 q 496 1222 401 1259 q 663 1121 591 1185 q 777 962 734 1057 q 826 738 821 868 q 795 469 833 590 q 690 256 758 347 q 528 105 621 164 q 328 22 434 46 q 227 7 277 8 m 228 160 l 228 160 q 387 208 309 168 q 527 316 465 247 q 627 481 589 385 q 665 699 665 578 q 554 1000 665 890 q 243 1118 444 1109 l 228 160 m 563 1382 q 513 1321 544 1343 q 447 1297 481 1299 q 380 1314 412 1295 q 328 1370 349 1332 l 239 1545 q 232 1584 228 1567 q 248 1615 236 1602 q 280 1634 260 1628 q 319 1639 300 1641 q 355 1627 338 1637 q 382 1595 373 1617 l 441 1461 l 506 1609 q 547 1643 518 1637 q 602 1639 575 1649 q 643 1607 628 1629 q 646 1557 658 1584 l 563 1382 z "},"":{"ha":1126,"x_min":56,"x_max":1073,"o":"m 742 91 q 719 25 742 50 q 667 -4 696 0 q 612 11 637 -8 q 582 75 586 30 q 395 11 490 18 q 226 41 301 4 q 103 158 151 79 q 56 354 56 237 q 97 562 56 468 q 210 715 138 655 q 376 791 281 774 q 579 768 471 808 l 582 1183 q 607 1259 582 1234 q 662 1284 632 1284 q 717 1259 692 1284 q 742 1185 742 1234 l 742 91 m 218 358 q 260 232 218 273 q 361 184 302 191 q 480 199 419 176 q 579 263 541 221 l 579 568 q 494 622 537 608 q 410 630 450 636 q 334 600 369 624 q 274 540 300 576 q 233 456 248 503 q 218 358 218 410 m 1042 1059 q 1065 972 1058 1024 q 1068 868 1073 921 q 1044 767 1063 815 q 989 692 1025 719 q 938 680 968 675 q 884 701 907 685 q 852 742 861 718 q 867 788 844 766 q 902 843 892 814 q 911 900 911 872 q 903 952 910 928 q 891 991 897 977 q 898 1044 880 1021 q 944 1078 916 1067 q 1002 1086 972 1089 q 1042 1059 1031 1082 z "},"":{"ha":1016,"x_min":54,"x_max":967,"o":"m 119 606 q 70 631 85 606 q 55 686 54 656 q 73 740 56 715 q 119 765 90 765 l 198 765 l 202 1133 q 205 1198 202 1169 q 220 1248 209 1227 q 256 1278 232 1268 q 321 1283 279 1287 q 374 1278 349 1280 q 425 1274 399 1276 q 631 1222 536 1259 q 797 1121 726 1185 q 911 962 868 1057 q 960 738 955 868 q 930 469 967 590 q 824 256 892 347 q 662 105 755 164 q 463 22 568 46 q 361 7 411 8 q 271 7 305 4 q 219 27 237 11 q 195 75 201 43 q 190 160 190 106 l 195 606 l 119 606 m 372 765 l 601 765 q 654 740 637 765 q 669 686 670 715 q 650 631 669 656 q 595 606 631 606 l 369 606 l 362 160 q 522 208 444 168 q 661 316 600 247 q 761 481 723 385 q 799 699 799 578 q 688 1000 799 890 q 377 1118 578 1109 l 372 765 z "},"":{"ha":796,"x_min":56,"x_max":935,"o":"m 742 91 q 719 25 742 50 q 667 -4 696 0 q 612 11 637 -8 q 582 75 586 30 q 395 11 490 18 q 226 41 301 4 q 103 158 151 79 q 56 354 56 237 q 97 562 56 468 q 210 715 138 655 q 376 791 281 774 q 579 768 471 808 l 582 1183 q 607 1259 582 1234 q 662 1284 632 1284 q 717 1259 692 1284 q 742 1185 742 1234 l 742 91 m 218 358 q 260 232 218 273 q 361 184 302 191 q 480 199 419 176 q 579 263 541 221 l 579 568 q 494 622 537 608 q 410 630 450 636 q 334 600 369 624 q 274 540 300 576 q 233 456 248 503 q 218 358 218 410 m 382 921 q 333 946 349 921 q 318 1000 317 971 q 336 1055 319 1029 q 382 1080 353 1080 l 864 1080 q 917 1055 901 1080 q 932 1000 933 1029 q 912 946 930 971 q 859 921 894 921 l 382 921 z "},"":{"ha":760,"x_min":54,"x_max":705,"o":"m 197 1 q 119 9 146 1 q 80 39 92 18 q 65 96 68 60 q 62 187 62 133 l 56 1119 q 83 1247 54 1210 q 182 1283 113 1284 q 356 1281 247 1283 q 625 1279 465 1279 q 685 1255 666 1279 q 705 1201 704 1230 q 688 1147 705 1172 q 636 1122 670 1122 q 526 1122 593 1122 q 395 1123 460 1122 q 280 1124 331 1124 q 216 1124 229 1124 l 216 720 l 502 720 q 550 694 536 720 q 562 638 564 669 q 545 583 560 608 q 506 560 530 559 q 422 562 492 562 q 216 560 353 562 l 216 161 q 248 161 221 161 q 314 161 275 161 q 399 161 353 161 q 490 161 445 161 q 572 161 534 161 q 632 161 609 161 q 687 138 669 161 q 705 85 705 114 q 684 31 704 56 q 625 5 665 7 q 367 1 469 1 q 197 1 264 1 m 137 1335 q 87 1360 103 1335 q 73 1414 72 1385 q 90 1468 73 1443 q 137 1493 107 1493 l 618 1493 q 671 1468 655 1493 q 686 1414 688 1443 q 667 1360 685 1385 q 613 1335 648 1335 l 137 1335 z "},"":{"ha":772,"x_min":54,"x_max":719,"o":"m 385 -7 q 241 29 302 -7 q 138 124 179 65 q 75 258 96 183 q 54 411 54 332 q 76 567 54 491 q 141 703 98 643 q 250 799 184 762 q 404 836 316 836 q 528 809 472 836 q 624 738 585 783 q 685 634 663 693 q 707 511 707 575 q 703 475 707 495 q 690 437 699 454 q 667 408 681 420 q 632 396 652 396 l 218 382 q 233 299 221 342 q 267 222 244 256 q 324 165 290 187 q 403 142 358 142 q 505 174 463 142 q 582 250 548 206 q 613 277 597 269 q 646 285 629 285 q 684 273 666 285 q 710 243 701 262 q 716 201 719 224 q 693 156 713 179 q 642 102 670 130 q 576 49 613 73 q 492 9 538 24 q 385 -7 445 -7 m 541 557 q 496 656 534 623 q 411 690 458 690 q 351 679 378 690 q 300 647 323 667 q 262 600 278 627 q 236 545 245 574 q 279 543 252 544 q 339 543 305 543 q 441 545 387 543 q 541 557 495 548 m 144 890 q 94 915 110 890 q 79 969 79 940 q 97 1023 80 998 q 144 1048 114 1048 l 625 1048 q 678 1023 662 1048 q 693 969 694 998 q 673 915 692 940 q 620 890 655 890 l 144 890 z "},"":{"ha":760,"x_min":54,"x_max":705,"o":"m 197 1 q 119 9 146 1 q 80 39 92 18 q 65 96 68 60 q 62 187 62 133 l 56 1119 q 83 1247 54 1210 q 182 1283 113 1284 q 356 1281 247 1283 q 625 1279 465 1279 q 685 1255 666 1279 q 705 1201 704 1230 q 688 1147 705 1172 q 636 1122 670 1122 q 526 1122 593 1122 q 395 1123 460 1122 q 280 1124 331 1124 q 216 1124 229 1124 l 216 720 l 502 720 q 550 694 536 720 q 562 638 564 669 q 545 583 560 608 q 506 560 530 559 q 422 562 492 562 q 216 560 353 562 l 216 161 q 248 161 221 161 q 314 161 275 161 q 399 161 353 161 q 490 161 445 161 q 572 161 534 161 q 632 161 609 161 q 687 138 669 161 q 705 85 705 114 q 684 31 704 56 q 625 5 665 7 q 367 1 469 1 q 197 1 264 1 m 118 1495 q 129 1538 113 1522 q 168 1557 145 1554 q 214 1549 191 1560 q 245 1511 237 1538 q 294 1440 262 1462 q 363 1420 326 1419 q 409 1426 385 1420 q 454 1443 433 1431 q 491 1475 475 1455 q 514 1525 507 1495 q 544 1560 521 1550 q 591 1567 567 1571 q 632 1546 616 1563 q 642 1497 648 1529 q 600 1408 629 1444 q 534 1348 571 1371 q 453 1313 496 1324 q 369 1301 410 1302 q 278 1314 320 1299 q 203 1353 236 1328 q 149 1415 171 1378 q 118 1495 126 1451 z "},"":{"ha":772,"x_min":54,"x_max":719,"o":"m 385 -7 q 241 29 302 -7 q 138 124 179 65 q 75 258 96 183 q 54 411 54 332 q 76 567 54 491 q 141 703 98 643 q 250 799 184 762 q 404 836 316 836 q 528 809 472 836 q 624 738 585 783 q 685 634 663 693 q 707 511 707 575 q 703 475 707 495 q 690 437 699 454 q 667 408 681 420 q 632 396 652 396 l 218 382 q 233 299 221 342 q 267 222 244 256 q 324 165 290 187 q 403 142 358 142 q 505 174 463 142 q 582 250 548 206 q 613 277 597 269 q 646 285 629 285 q 684 273 666 285 q 710 243 701 262 q 716 201 719 224 q 693 156 713 179 q 642 102 670 130 q 576 49 613 73 q 492 9 538 24 q 385 -7 445 -7 m 541 557 q 496 656 534 623 q 411 690 458 690 q 351 679 378 690 q 300 647 323 667 q 262 600 278 627 q 236 545 245 574 q 279 543 252 544 q 339 543 305 543 q 441 545 387 543 q 541 557 495 548 m 123 1050 q 134 1093 118 1077 q 174 1112 151 1109 q 220 1104 197 1115 q 251 1066 243 1093 q 299 996 267 1017 q 369 975 331 974 q 414 981 391 975 q 459 998 438 986 q 496 1030 480 1010 q 519 1080 513 1050 q 549 1116 526 1105 q 597 1122 572 1126 q 637 1101 621 1118 q 647 1053 654 1084 q 606 963 635 1000 q 539 903 576 926 q 458 868 502 879 q 374 856 415 857 q 283 869 326 854 q 209 908 241 883 q 154 970 176 933 q 123 1050 132 1006 z "},"":{"ha":760,"x_min":54,"x_max":705,"o":"m 197 1 q 119 9 146 1 q 80 39 92 18 q 65 96 68 60 q 62 187 62 133 l 56 1119 q 83 1247 54 1210 q 182 1283 113 1284 q 356 1281 247 1283 q 625 1279 465 1279 q 685 1255 666 1279 q 705 1201 704 1230 q 688 1147 705 1172 q 636 1122 670 1122 q 526 1122 593 1122 q 395 1123 460 1122 q 280 1124 331 1124 q 216 1124 229 1124 l 216 720 l 502 720 q 550 694 536 720 q 562 638 564 669 q 545 583 560 608 q 506 560 530 559 q 422 562 492 562 q 216 560 353 562 l 216 161 q 248 161 221 161 q 314 161 275 161 q 399 161 353 161 q 490 161 445 161 q 572 161 534 161 q 632 161 609 161 q 687 138 669 161 q 705 85 705 114 q 684 31 704 56 q 625 5 665 7 q 367 1 469 1 q 197 1 264 1 m 396 1318 q 313 1335 345 1308 q 274 1402 281 1363 q 289 1478 267 1442 q 366 1523 311 1515 q 449 1503 418 1530 q 486 1439 480 1477 q 471 1365 492 1401 q 396 1318 450 1329 z "},"":{"ha":772,"x_min":54,"x_max":719,"o":"m 385 -7 q 241 29 302 -7 q 138 124 179 65 q 75 258 96 183 q 54 411 54 332 q 76 567 54 491 q 141 703 98 643 q 250 799 184 762 q 404 836 316 836 q 528 809 472 836 q 624 738 585 783 q 685 634 663 693 q 707 511 707 575 q 703 475 707 495 q 690 437 699 454 q 667 408 681 420 q 632 396 652 396 l 218 382 q 233 299 221 342 q 267 222 244 256 q 324 165 290 187 q 403 142 358 142 q 505 174 463 142 q 582 250 548 206 q 613 277 597 269 q 646 285 629 285 q 684 273 666 285 q 710 243 701 262 q 716 201 719 224 q 693 156 713 179 q 642 102 670 130 q 576 49 613 73 q 492 9 538 24 q 385 -7 445 -7 m 541 557 q 496 656 534 623 q 411 690 458 690 q 351 679 378 690 q 300 647 323 667 q 262 600 278 627 q 236 545 245 574 q 279 543 252 544 q 339 543 305 543 q 441 545 387 543 q 541 557 495 548 m 401 873 q 318 890 350 863 q 279 958 286 918 q 294 1034 273 997 q 372 1078 316 1070 q 454 1059 423 1085 q 492 994 486 1032 q 477 920 498 956 q 401 873 456 884 z "},"":{"ha":760,"x_min":54,"x_max":705,"o":"m 197 1 q 119 9 146 1 q 80 39 92 18 q 65 96 68 60 q 62 187 62 133 l 56 1119 q 83 1247 54 1210 q 182 1283 113 1284 q 356 1281 247 1283 q 625 1279 465 1279 q 685 1255 666 1279 q 705 1201 704 1230 q 688 1147 705 1172 q 636 1122 670 1122 q 526 1122 593 1122 q 395 1123 460 1122 q 280 1124 331 1124 q 216 1124 229 1124 l 216 720 l 502 720 q 550 694 536 720 q 562 638 564 669 q 545 583 560 608 q 506 560 530 559 q 422 562 492 562 q 216 560 353 562 l 216 161 q 248 161 221 161 q 314 161 275 161 q 399 161 353 161 q 490 161 445 161 q 572 161 534 161 q 632 161 609 161 q 687 138 669 161 q 705 85 705 114 q 684 31 704 56 q 625 5 665 7 q 367 1 469 1 q 197 1 264 1 m 498 102 q 534 132 515 130 q 566 121 553 134 q 579 85 578 107 q 564 42 581 62 q 545 -7 547 20 q 555 -59 544 -34 q 586 -106 566 -84 q 632 -141 606 -127 q 652 -174 652 -152 q 639 -216 652 -197 q 602 -244 625 -235 q 555 -240 579 -254 q 492 -180 517 -218 q 457 -96 467 -142 q 457 2 448 -49 q 498 102 467 53 z "},"":{"ha":772,"x_min":54,"x_max":719,"o":"m 385 -7 q 241 29 302 -7 q 138 124 179 65 q 75 258 96 183 q 54 411 54 332 q 76 567 54 491 q 141 703 98 643 q 250 799 184 762 q 404 836 316 836 q 528 809 472 836 q 624 738 585 783 q 685 634 663 693 q 707 511 707 575 q 703 475 707 495 q 690 437 699 454 q 667 408 681 420 q 632 396 652 396 l 218 382 q 233 299 221 342 q 267 222 244 256 q 324 165 290 187 q 403 142 358 142 q 505 174 463 142 q 582 250 548 206 q 613 277 597 269 q 646 285 629 285 q 684 273 666 285 q 710 243 701 262 q 716 201 719 224 q 693 156 713 179 q 642 102 670 130 q 576 49 613 73 q 492 9 538 24 q 385 -7 445 -7 m 541 557 q 496 656 534 623 q 411 690 458 690 q 351 679 378 690 q 300 647 323 667 q 262 600 278 627 q 236 545 245 574 q 279 543 252 544 q 339 543 305 543 q 441 545 387 543 q 541 557 495 548 m 498 102 q 534 132 515 130 q 566 121 553 134 q 579 85 578 107 q 564 42 581 62 q 545 -7 547 20 q 555 -59 544 -34 q 586 -106 566 -84 q 632 -141 606 -127 q 652 -174 652 -152 q 639 -216 652 -197 q 602 -244 625 -235 q 555 -240 579 -254 q 492 -180 517 -218 q 457 -96 467 -142 q 457 2 448 -49 q 498 102 467 53 z "},"":{"ha":760,"x_min":54,"x_max":705,"o":"m 197 1 q 119 9 146 1 q 80 39 92 18 q 65 96 68 60 q 62 187 62 133 l 56 1119 q 83 1247 54 1210 q 182 1283 113 1284 q 356 1281 247 1283 q 625 1279 465 1279 q 685 1255 666 1279 q 705 1201 704 1230 q 688 1147 705 1172 q 636 1122 670 1122 q 526 1122 593 1122 q 395 1123 460 1122 q 280 1124 331 1124 q 216 1124 229 1124 l 216 720 l 502 720 q 550 694 536 720 q 562 638 564 669 q 545 583 560 608 q 506 560 530 559 q 422 562 492 562 q 216 560 353 562 l 216 161 q 248 161 221 161 q 314 161 275 161 q 399 161 353 161 q 490 161 445 161 q 572 161 534 161 q 632 161 609 161 q 687 138 669 161 q 705 85 705 114 q 684 31 704 56 q 625 5 665 7 q 367 1 469 1 q 197 1 264 1 m 502 1382 q 452 1321 483 1343 q 386 1297 420 1299 q 319 1314 351 1295 q 267 1370 288 1332 l 178 1545 q 171 1584 167 1567 q 187 1615 175 1602 q 219 1634 199 1628 q 258 1639 239 1641 q 294 1627 277 1637 q 321 1595 312 1617 l 380 1461 l 445 1609 q 486 1643 457 1637 q 541 1639 514 1649 q 582 1607 567 1629 q 585 1557 597 1584 l 502 1382 z "},"":{"ha":772,"x_min":54,"x_max":719,"o":"m 385 -7 q 241 29 302 -7 q 138 124 179 65 q 75 258 96 183 q 54 411 54 332 q 76 567 54 491 q 141 703 98 643 q 250 799 184 762 q 404 836 316 836 q 528 809 472 836 q 624 738 585 783 q 685 634 663 693 q 707 511 707 575 q 703 475 707 495 q 690 437 699 454 q 667 408 681 420 q 632 396 652 396 l 218 382 q 233 299 221 342 q 267 222 244 256 q 324 165 290 187 q 403 142 358 142 q 505 174 463 142 q 582 250 548 206 q 613 277 597 269 q 646 285 629 285 q 684 273 666 285 q 710 243 701 262 q 716 201 719 224 q 693 156 713 179 q 642 102 670 130 q 576 49 613 73 q 492 9 538 24 q 385 -7 445 -7 m 541 557 q 496 656 534 623 q 411 690 458 690 q 351 679 378 690 q 300 647 323 667 q 262 600 278 627 q 236 545 245 574 q 279 543 252 544 q 339 543 305 543 q 441 545 387 543 q 541 557 495 548 m 507 937 q 457 876 488 898 q 391 852 426 854 q 325 869 357 850 q 273 925 293 887 l 183 1100 q 176 1139 172 1122 q 193 1170 180 1157 q 224 1190 205 1183 q 263 1194 244 1196 q 300 1182 282 1192 q 327 1150 317 1172 l 385 1016 l 450 1164 q 491 1198 463 1192 q 546 1194 519 1204 q 587 1162 572 1184 q 590 1112 602 1139 l 507 937 z "},"":{"ha":937,"x_min":52,"x_max":884,"o":"m 545 595 l 811 595 q 861 576 846 595 q 880 527 876 556 q 881 465 884 498 q 875 404 878 431 q 826 225 863 301 q 739 100 789 149 q 630 26 689 50 q 515 1 571 1 q 360 28 429 1 q 239 101 292 54 q 151 211 187 148 q 93 345 115 274 q 61 491 71 415 q 54 639 52 567 q 92 882 58 768 q 186 1082 126 996 q 331 1219 247 1168 q 519 1275 415 1271 l 532 1275 q 654 1251 595 1275 q 760 1185 713 1226 q 838 1091 807 1145 q 875 979 868 1038 q 870 951 878 963 q 850 929 863 939 q 821 915 837 920 q 788 910 804 910 q 745 920 765 910 q 719 954 726 930 q 696 1015 711 986 q 659 1067 682 1044 q 604 1102 636 1089 q 524 1115 571 1115 q 401 1075 458 1115 q 303 968 345 1035 q 238 814 262 901 q 214 636 214 728 q 290 283 214 406 q 509 160 366 160 q 582 178 547 160 q 645 232 617 197 q 689 319 673 267 q 705 439 705 372 q 673 439 694 439 q 629 437 652 438 q 583 436 605 437 q 545 435 560 435 q 486 460 503 435 q 470 515 468 486 q 492 570 472 545 q 545 595 511 595 m 347 1550 q 397 1611 366 1590 q 463 1635 429 1633 q 530 1619 498 1637 q 582 1563 562 1602 l 671 1388 q 670 1333 688 1355 q 623 1303 652 1312 q 563 1303 594 1295 q 519 1337 532 1310 l 461 1472 l 396 1324 q 361 1300 388 1305 q 309 1303 335 1295 q 268 1329 283 1310 q 264 1375 252 1348 l 347 1550 z "},"":{"ha":781,"x_min":54,"x_max":727,"o":"m 563 100 q 463 36 517 56 q 363 15 408 16 q 228 45 286 12 q 132 135 170 79 q 74 264 94 191 q 54 412 54 336 q 73 560 54 487 q 128 690 91 633 q 221 782 165 747 q 350 817 277 817 q 447 798 393 817 q 552 739 500 779 q 583 810 556 787 q 640 833 610 834 q 694 806 670 831 q 719 727 719 780 q 722 542 719 636 q 726 354 726 448 q 725 171 727 260 q 712 0 723 81 q 673 -138 703 -73 q 600 -250 644 -202 q 496 -325 555 -297 q 365 -353 437 -353 q 206 -312 279 -355 q 95 -189 133 -269 q 97 -136 81 -160 q 140 -99 113 -111 q 197 -90 167 -87 q 243 -121 227 -94 q 286 -173 262 -152 q 357 -195 309 -194 q 435 -175 397 -195 q 500 -117 472 -155 q 546 -24 529 -79 q 563 100 563 31 m 552 528 q 459 625 510 594 q 361 654 408 656 q 281 614 313 651 q 232 523 248 576 q 216 407 216 469 q 233 292 216 345 q 283 205 250 240 q 368 171 316 170 q 465 205 415 172 q 552 298 514 237 l 552 528 m 269 1105 q 319 1166 288 1145 q 385 1190 350 1188 q 451 1175 419 1192 q 503 1118 483 1157 l 593 943 q 591 888 609 910 q 545 859 574 867 q 484 858 515 850 q 441 892 453 865 l 382 1027 l 317 879 q 283 855 309 860 q 231 858 256 850 q 189 884 205 865 q 186 930 174 903 l 269 1105 z "},"":{"ha":937,"x_min":52,"x_max":884,"o":"m 545 595 l 811 595 q 861 576 846 595 q 880 527 876 556 q 881 465 884 498 q 875 404 878 431 q 826 225 863 301 q 739 100 789 149 q 630 26 689 50 q 515 1 571 1 q 360 28 429 1 q 239 101 292 54 q 151 211 187 148 q 93 345 115 274 q 61 491 71 415 q 54 639 52 567 q 92 882 58 768 q 186 1082 126 996 q 331 1219 247 1168 q 519 1275 415 1271 l 532 1275 q 654 1251 595 1275 q 760 1185 713 1226 q 838 1091 807 1145 q 875 979 868 1038 q 870 951 878 963 q 850 929 863 939 q 821 915 837 920 q 788 910 804 910 q 745 920 765 910 q 719 954 726 930 q 696 1015 711 986 q 659 1067 682 1044 q 604 1102 636 1089 q 524 1115 571 1115 q 401 1075 458 1115 q 303 968 345 1035 q 238 814 262 901 q 214 636 214 728 q 290 283 214 406 q 509 160 366 160 q 582 178 547 160 q 645 232 617 197 q 689 319 673 267 q 705 439 705 372 q 673 439 694 439 q 629 437 652 438 q 583 436 605 437 q 545 435 560 435 q 486 460 503 435 q 470 515 468 486 q 492 570 472 545 q 545 595 511 595 m 206 1495 q 217 1538 201 1522 q 256 1557 233 1554 q 302 1549 279 1560 q 334 1511 326 1538 q 382 1440 350 1462 q 452 1420 414 1419 q 497 1426 473 1420 q 542 1443 521 1431 q 579 1475 563 1455 q 602 1525 595 1495 q 632 1560 609 1550 q 680 1567 655 1571 q 720 1546 704 1563 q 730 1497 736 1529 q 688 1408 718 1444 q 622 1348 659 1371 q 541 1313 585 1324 q 457 1301 498 1302 q 366 1314 408 1299 q 292 1353 324 1328 q 237 1415 259 1378 q 206 1495 214 1451 z "},"":{"ha":781,"x_min":54,"x_max":727,"o":"m 563 100 q 463 36 517 56 q 363 15 408 16 q 228 45 286 12 q 132 135 170 79 q 74 264 94 191 q 54 412 54 336 q 73 560 54 487 q 128 690 91 633 q 221 782 165 747 q 350 817 277 817 q 447 798 393 817 q 552 739 500 779 q 583 810 556 787 q 640 833 610 834 q 694 806 670 831 q 719 727 719 780 q 722 542 719 636 q 726 354 726 448 q 725 171 727 260 q 712 0 723 81 q 673 -138 703 -73 q 600 -250 644 -202 q 496 -325 555 -297 q 365 -353 437 -353 q 206 -312 279 -355 q 95 -189 133 -269 q 97 -136 81 -160 q 140 -99 113 -111 q 197 -90 167 -87 q 243 -121 227 -94 q 286 -173 262 -152 q 357 -195 309 -194 q 435 -175 397 -195 q 500 -117 472 -155 q 546 -24 529 -79 q 563 100 563 31 m 552 528 q 459 625 510 594 q 361 654 408 656 q 281 614 313 651 q 232 523 248 576 q 216 407 216 469 q 233 292 216 345 q 283 205 250 240 q 368 171 316 170 q 465 205 415 172 q 552 298 514 237 l 552 528 m 129 1050 q 140 1093 123 1077 q 179 1112 156 1109 q 225 1104 202 1115 q 256 1066 248 1093 q 304 996 273 1017 q 374 975 336 974 q 420 981 396 975 q 465 998 444 986 q 502 1030 486 1010 q 525 1080 518 1050 q 555 1116 532 1105 q 602 1122 578 1126 q 643 1101 627 1118 q 652 1053 659 1084 q 611 963 640 1000 q 545 903 582 926 q 464 868 507 879 q 380 856 420 857 q 289 869 331 854 q 214 908 247 883 q 159 970 182 933 q 129 1050 137 1006 z "},"":{"ha":937,"x_min":52,"x_max":884,"o":"m 545 595 l 811 595 q 861 576 846 595 q 880 527 876 556 q 881 465 884 498 q 875 404 878 431 q 826 225 863 301 q 739 100 789 149 q 630 26 689 50 q 515 1 571 1 q 360 28 429 1 q 239 101 292 54 q 151 211 187 148 q 93 345 115 274 q 61 491 71 415 q 54 639 52 567 q 92 882 58 768 q 186 1082 126 996 q 331 1219 247 1168 q 519 1275 415 1271 l 532 1275 q 654 1251 595 1275 q 760 1185 713 1226 q 838 1091 807 1145 q 875 979 868 1038 q 870 951 878 963 q 850 929 863 939 q 821 915 837 920 q 788 910 804 910 q 745 920 765 910 q 719 954 726 930 q 696 1015 711 986 q 659 1067 682 1044 q 604 1102 636 1089 q 524 1115 571 1115 q 401 1075 458 1115 q 303 968 345 1035 q 238 814 262 901 q 214 636 214 728 q 290 283 214 406 q 509 160 366 160 q 582 178 547 160 q 645 232 617 197 q 689 319 673 267 q 705 439 705 372 q 673 439 694 439 q 629 437 652 438 q 583 436 605 437 q 545 435 560 435 q 486 460 503 435 q 470 515 468 486 q 492 570 472 545 q 545 595 511 595 m 484 1318 q 401 1335 433 1308 q 362 1402 369 1363 q 377 1478 355 1442 q 454 1523 399 1515 q 537 1503 506 1530 q 574 1439 568 1477 q 559 1365 581 1401 q 484 1318 538 1329 z "},"":{"ha":781,"x_min":54,"x_max":727,"o":"m 563 100 q 463 36 517 56 q 363 15 408 16 q 228 45 286 12 q 132 135 170 79 q 74 264 94 191 q 54 412 54 336 q 73 560 54 487 q 128 690 91 633 q 221 782 165 747 q 350 817 277 817 q 447 798 393 817 q 552 739 500 779 q 583 810 556 787 q 640 833 610 834 q 694 806 670 831 q 719 727 719 780 q 722 542 719 636 q 726 354 726 448 q 725 171 727 260 q 712 0 723 81 q 673 -138 703 -73 q 600 -250 644 -202 q 496 -325 555 -297 q 365 -353 437 -353 q 206 -312 279 -355 q 95 -189 133 -269 q 97 -136 81 -160 q 140 -99 113 -111 q 197 -90 167 -87 q 243 -121 227 -94 q 286 -173 262 -152 q 357 -195 309 -194 q 435 -175 397 -195 q 500 -117 472 -155 q 546 -24 529 -79 q 563 100 563 31 m 552 528 q 459 625 510 594 q 361 654 408 656 q 281 614 313 651 q 232 523 248 576 q 216 407 216 469 q 233 292 216 345 q 283 205 250 240 q 368 171 316 170 q 465 205 415 172 q 552 298 514 237 l 552 528 m 407 873 q 323 890 355 863 q 285 958 292 918 q 300 1034 278 997 q 377 1078 321 1070 q 460 1059 429 1085 q 497 994 491 1032 q 482 920 503 956 q 407 873 461 884 z "},"":{"ha":937,"x_min":52,"x_max":884,"o":"m 545 595 l 811 595 q 861 576 846 595 q 880 527 876 556 q 881 465 884 498 q 875 404 878 431 q 826 225 863 301 q 739 100 789 149 q 630 26 689 50 q 515 1 571 1 q 360 28 429 1 q 239 101 292 54 q 151 211 187 148 q 93 345 115 274 q 61 491 71 415 q 54 639 52 567 q 92 882 58 768 q 186 1082 126 996 q 331 1219 247 1168 q 519 1275 415 1271 l 532 1275 q 654 1251 595 1275 q 760 1185 713 1226 q 838 1091 807 1145 q 875 979 868 1038 q 870 951 878 963 q 850 929 863 939 q 821 915 837 920 q 788 910 804 910 q 745 920 765 910 q 719 954 726 930 q 696 1015 711 986 q 659 1067 682 1044 q 604 1102 636 1089 q 524 1115 571 1115 q 401 1075 458 1115 q 303 968 345 1035 q 238 814 262 901 q 214 636 214 728 q 290 283 214 406 q 509 160 366 160 q 582 178 547 160 q 645 232 617 197 q 689 319 673 267 q 705 439 705 372 q 673 439 694 439 q 629 437 652 438 q 583 436 605 437 q 545 435 560 435 q 486 460 503 435 q 470 515 468 486 q 492 570 472 545 q 545 595 511 595 m 571 -73 q 595 -160 587 -109 q 597 -264 602 -212 q 574 -365 593 -317 q 518 -441 555 -412 q 480 -453 502 -453 q 435 -443 458 -453 q 397 -416 412 -433 q 380 -381 382 -400 q 396 -345 378 -362 q 431 -290 422 -319 q 440 -233 441 -260 q 433 -180 439 -205 q 420 -141 426 -156 q 419 -103 412 -121 q 441 -73 426 -85 q 477 -53 457 -60 q 517 -46 498 -46 q 550 -52 536 -46 q 571 -73 564 -58 z "},"":{"ha":781,"x_min":54,"x_max":727,"o":"m 563 100 q 463 36 517 56 q 363 15 408 16 q 228 45 286 12 q 132 135 170 79 q 74 264 94 191 q 54 412 54 336 q 73 560 54 487 q 128 690 91 633 q 221 782 165 747 q 350 817 277 817 q 447 798 393 817 q 552 739 500 779 q 583 810 556 787 q 640 833 610 834 q 694 806 670 831 q 719 727 719 780 q 722 542 719 636 q 726 354 726 448 q 725 171 727 260 q 712 0 723 81 q 673 -138 703 -73 q 600 -250 644 -202 q 496 -325 555 -297 q 365 -353 437 -353 q 206 -312 279 -355 q 95 -189 133 -269 q 97 -136 81 -160 q 140 -99 113 -111 q 197 -90 167 -87 q 243 -121 227 -94 q 286 -173 262 -152 q 357 -195 309 -194 q 435 -175 397 -195 q 500 -117 472 -155 q 546 -24 529 -79 q 563 100 563 31 m 552 528 q 459 625 510 594 q 361 654 408 656 q 281 614 313 651 q 232 523 248 576 q 216 407 216 469 q 233 292 216 345 q 283 205 250 240 q 368 171 316 170 q 465 205 415 172 q 552 298 514 237 l 552 528 m 309 898 q 285 985 293 933 q 281 1089 277 1036 q 306 1190 286 1142 q 362 1265 326 1237 q 412 1277 382 1282 q 466 1256 442 1272 q 498 1216 490 1240 q 484 1169 507 1192 q 449 1114 458 1143 q 440 1057 439 1085 q 448 1005 441 1029 q 460 966 454 981 q 453 913 471 936 q 407 879 435 890 q 349 871 378 868 q 309 898 320 875 z "},"":{"ha":823,"x_min":56,"x_max":769,"o":"m 217 91 q 192 22 217 47 q 136 -5 167 -3 q 81 16 106 -7 q 56 91 56 38 l 57 1183 q 82 1259 57 1234 q 137 1284 107 1284 q 192 1259 167 1284 q 217 1185 217 1234 l 217 711 l 609 711 l 609 1183 q 634 1259 609 1234 q 689 1284 659 1284 q 744 1259 719 1284 q 769 1185 769 1234 l 769 91 q 744 22 769 47 q 688 -5 719 -3 q 633 16 658 -7 q 608 91 608 38 l 608 560 l 217 560 l 217 91 m 290 1550 q 340 1611 309 1590 q 406 1635 372 1633 q 473 1619 441 1637 q 525 1563 505 1602 l 614 1388 q 613 1333 631 1355 q 566 1303 595 1312 q 506 1303 537 1295 q 463 1337 475 1310 l 404 1472 l 339 1324 q 304 1300 331 1305 q 252 1303 278 1295 q 211 1329 227 1310 q 208 1375 195 1348 l 290 1550 z "},"":{"ha":750,"x_min":-81,"x_max":697,"o":"m 389 670 q 296 646 338 673 q 217 585 254 620 l 217 91 q 192 22 217 47 q 136 -5 167 -3 q 81 16 106 -7 q 56 91 56 38 l 57 1183 q 82 1259 57 1234 q 137 1284 107 1284 q 192 1259 167 1284 q 217 1185 217 1234 l 217 780 q 299 821 254 803 q 397 842 345 840 q 498 823 454 845 q 581 765 543 802 q 634 682 613 734 q 668 568 655 631 q 687 435 681 505 q 695 299 693 366 q 696 172 697 232 q 693 68 694 111 q 665 16 692 34 q 608 -4 639 -3 q 551 12 576 -5 q 528 65 526 28 q 530 131 529 85 q 529 234 530 176 q 524 355 528 292 q 511 477 519 419 q 490 578 503 534 q 457 642 476 623 q 389 670 431 667 m 14 1550 q 64 1611 33 1590 q 130 1635 95 1633 q 196 1619 164 1637 q 248 1563 228 1602 l 338 1388 q 336 1333 354 1355 q 290 1303 319 1312 q 229 1303 260 1295 q 186 1337 198 1310 l 127 1472 l 62 1324 q 28 1300 54 1305 q -24 1303 1 1295 q -66 1329 -50 1310 q -69 1375 -81 1348 l 14 1550 z "},"":{"ha":823,"x_min":-45,"x_max":878,"o":"m 217 91 q 189 20 217 45 q 130 -5 161 -5 q 79 18 102 -5 q 56 91 56 41 l 57 779 l 20 779 q -29 804 -14 779 q -44 858 -45 829 q -27 912 -43 887 q 20 937 -11 937 l 57 937 l 57 1183 q 81 1259 57 1234 q 137 1284 106 1284 q 192 1259 167 1284 q 217 1185 217 1234 l 217 937 l 609 937 l 609 1183 q 633 1259 609 1234 q 689 1284 658 1284 q 744 1259 719 1284 q 769 1185 769 1234 l 769 937 l 808 937 q 861 912 845 937 q 876 858 878 887 q 857 804 875 829 q 803 779 838 779 l 769 779 l 769 91 q 741 20 769 45 q 682 -5 713 -5 q 631 18 654 -5 q 608 91 608 41 l 608 560 l 217 560 l 217 91 m 609 779 l 217 779 l 217 711 l 609 711 l 609 779 z "},"":{"ha":750,"x_min":-49,"x_max":697,"o":"m 389 670 q 296 646 338 673 q 217 585 254 620 l 217 91 q 192 22 217 47 q 136 -5 167 -3 q 81 16 106 -7 q 56 91 56 38 l 57 1183 q 82 1259 57 1234 q 137 1284 107 1284 q 192 1259 167 1284 q 217 1185 217 1234 l 217 780 q 299 821 254 803 q 397 842 345 840 q 498 823 454 845 q 581 765 543 802 q 634 682 613 734 q 668 568 655 631 q 687 435 681 505 q 695 299 693 366 q 696 172 697 232 q 693 68 694 111 q 665 16 692 34 q 608 -4 639 -3 q 551 12 576 -5 q 528 65 526 28 q 530 131 529 85 q 529 234 530 176 q 524 355 528 292 q 511 477 519 419 q 490 578 503 534 q 457 642 476 623 q 389 670 431 667 m 16 890 q -33 915 -18 890 q -48 969 -49 940 q -31 1023 -47 998 q 16 1048 -14 1048 l 498 1048 q 551 1023 534 1048 q 566 969 567 998 q 546 915 564 940 q 492 890 528 890 l 16 890 z "},"":{"ha":882,"x_min":54,"x_max":829,"o":"m 141 0 q 78 24 99 0 q 56 79 57 49 q 75 133 54 109 q 137 157 95 157 l 359 157 l 363 1122 l 141 1122 q 78 1146 99 1122 q 56 1200 57 1171 q 75 1255 54 1230 q 137 1279 95 1279 l 747 1279 q 809 1255 789 1279 q 827 1200 829 1230 q 805 1146 826 1171 q 745 1122 784 1122 l 524 1122 l 521 157 l 747 157 q 809 133 789 157 q 827 79 829 109 q 805 24 826 49 q 745 0 784 0 l 141 0 m 149 1301 q 91 1321 115 1301 q 66 1377 66 1341 q 90 1451 68 1416 q 147 1511 113 1485 q 222 1551 182 1537 q 298 1565 262 1565 q 373 1550 339 1565 q 439 1516 407 1534 q 502 1485 471 1499 q 568 1477 533 1472 q 624 1503 605 1482 q 657 1548 643 1525 q 688 1591 671 1572 q 734 1610 704 1610 q 773 1599 757 1610 q 800 1572 789 1588 q 812 1508 819 1542 q 783 1439 806 1474 q 682 1341 743 1378 q 547 1305 621 1305 q 474 1320 505 1305 q 416 1352 444 1335 q 361 1383 389 1369 q 298 1398 334 1398 q 248 1383 264 1398 q 218 1350 231 1369 q 191 1316 205 1332 q 149 1301 178 1301 z "},"":{"ha":324,"x_min":-213,"x_max":541,"o":"m 241 75 q 216 22 241 41 q 161 1 191 3 q 106 18 132 0 q 81 75 81 35 l 81 753 q 106 811 81 791 q 161 833 132 831 q 216 814 191 834 q 241 754 241 795 l 241 75 m -129 856 q -187 876 -163 856 q -212 932 -212 897 q -188 1006 -210 971 q -131 1066 -165 1040 q -56 1106 -96 1092 q 20 1120 -16 1120 q 95 1105 61 1120 q 161 1072 129 1089 q 224 1040 193 1054 q 290 1032 255 1027 q 346 1059 327 1038 q 379 1103 365 1080 q 410 1146 393 1127 q 456 1165 426 1165 q 495 1154 479 1165 q 522 1127 511 1143 q 534 1063 541 1097 q 505 994 528 1029 q 404 897 465 933 q 269 860 343 860 q 196 875 227 860 q 138 907 165 890 q 83 939 111 924 q 20 954 56 954 q -31 939 -14 954 q -60 905 -47 924 q -87 871 -73 887 q -129 856 -100 856 z "},"":{"ha":882,"x_min":54,"x_max":829,"o":"m 141 0 q 78 24 99 0 q 56 79 57 49 q 75 133 54 109 q 137 157 95 157 l 359 157 l 363 1122 l 141 1122 q 78 1146 99 1122 q 56 1200 57 1171 q 75 1255 54 1230 q 137 1279 95 1279 l 747 1279 q 809 1255 789 1279 q 827 1200 829 1230 q 805 1146 826 1171 q 745 1122 784 1122 l 524 1122 l 521 157 l 747 157 q 809 133 789 157 q 827 79 829 109 q 805 24 826 49 q 745 0 784 0 l 141 0 m 198 1335 q 149 1360 164 1335 q 134 1414 133 1385 q 151 1468 134 1443 q 198 1493 168 1493 l 680 1493 q 732 1468 716 1493 q 747 1414 749 1443 q 728 1360 746 1385 q 674 1335 709 1335 l 198 1335 z "},"":{"ha":324,"x_min":-146,"x_max":471,"o":"m 241 75 q 216 22 241 41 q 161 1 191 3 q 106 18 132 0 q 81 75 81 35 l 81 753 q 106 811 81 791 q 161 833 132 831 q 216 814 191 834 q 241 754 241 795 l 241 75 m -80 890 q -130 915 -114 890 q -144 969 -145 940 q -127 1023 -144 998 q -80 1048 -110 1048 l 401 1048 q 454 1023 438 1048 q 469 969 471 998 q 450 915 468 940 q 396 890 431 890 l -80 890 z "},"":{"ha":882,"x_min":54,"x_max":829,"o":"m 141 0 q 78 24 99 0 q 56 79 57 49 q 75 133 54 109 q 137 157 95 157 l 359 157 l 363 1122 l 141 1122 q 78 1146 99 1122 q 56 1200 57 1171 q 75 1255 54 1230 q 137 1279 95 1279 l 747 1279 q 809 1255 789 1279 q 827 1200 829 1230 q 805 1146 826 1171 q 745 1122 784 1122 l 524 1122 l 521 157 l 747 157 q 809 133 789 157 q 827 79 829 109 q 805 24 826 49 q 745 0 784 0 l 141 0 m 673 87 q 709 117 690 115 q 741 106 728 119 q 754 70 753 92 q 739 27 755 47 q 720 -22 722 5 q 730 -74 719 -49 q 761 -121 741 -99 q 807 -156 781 -142 q 827 -189 827 -167 q 814 -231 827 -212 q 777 -259 800 -250 q 730 -255 754 -269 q 667 -195 692 -233 q 632 -111 642 -157 q 632 -13 623 -64 q 673 87 642 38 z "},"":{"ha":324,"x_min":57,"x_max":270,"o":"m 241 75 q 216 22 241 41 q 161 1 191 3 q 106 18 132 0 q 81 75 81 35 l 81 753 q 106 811 81 791 q 161 833 132 831 q 216 814 191 834 q 241 754 241 795 l 241 75 m 161 1114 q 222 1100 198 1115 q 258 1062 245 1085 q 270 1012 270 1039 q 259 962 270 985 q 226 923 248 939 q 171 906 203 907 q 116 921 138 906 q 81 958 94 936 q 66 1008 68 981 q 74 1058 64 1035 q 106 1097 84 1081 q 161 1114 127 1112 m 107 87 q 144 117 125 115 q 175 106 163 119 q 189 70 187 92 q 174 27 190 47 q 155 -22 156 5 q 164 -74 153 -49 q 195 -121 175 -99 q 241 -156 216 -142 q 262 -189 262 -167 q 248 -231 262 -212 q 212 -259 235 -250 q 164 -255 189 -269 q 101 -195 126 -233 q 66 -111 76 -157 q 66 -13 57 -64 q 107 87 76 38 z "},"":{"ha":882,"x_min":54,"x_max":829,"o":"m 141 0 q 78 24 99 0 q 56 79 57 49 q 75 133 54 109 q 137 157 95 157 l 359 157 l 363 1122 l 141 1122 q 78 1146 99 1122 q 56 1200 57 1171 q 75 1255 54 1230 q 137 1279 95 1279 l 747 1279 q 809 1255 789 1279 q 827 1200 829 1230 q 805 1146 826 1171 q 745 1122 784 1122 l 524 1122 l 521 157 l 747 157 q 809 133 789 157 q 827 79 829 109 q 805 24 826 49 q 745 0 784 0 l 141 0 m 457 1318 q 374 1335 406 1308 q 335 1402 342 1363 q 350 1478 328 1442 q 427 1523 372 1515 q 510 1503 479 1530 q 547 1439 541 1477 q 532 1365 553 1401 q 457 1318 511 1329 z "},"":{"ha":324,"x_min":81,"x_max":241,"o":"m 241 75 q 216 22 241 41 q 161 1 191 3 q 106 18 132 0 q 81 75 81 35 l 81 753 q 106 811 81 791 q 161 833 132 831 q 216 814 191 834 q 241 754 241 795 l 241 75 z "},"":{"ha":1084,"x_min":54,"x_max":1031,"o":"m 56 365 q 77 422 54 401 q 130 444 100 442 q 184 429 159 446 q 214 370 210 411 q 229 301 218 339 q 260 231 239 263 q 313 178 281 198 q 393 160 346 157 q 479 218 446 164 q 533 357 513 273 q 562 548 553 442 q 572 760 570 654 q 570 961 574 865 q 564 1122 567 1057 l 343 1122 q 280 1146 301 1122 q 258 1200 259 1171 q 277 1255 256 1230 q 339 1279 297 1279 l 949 1279 q 1011 1255 991 1279 q 1029 1200 1031 1230 q 1007 1146 1028 1171 q 947 1122 986 1122 l 724 1122 q 730 975 727 1057 q 734 802 734 892 q 729 616 734 711 q 711 432 724 521 q 672 264 697 343 q 608 127 647 186 q 514 34 570 68 q 382 0 458 0 q 265 27 323 0 q 161 102 208 54 q 86 218 115 151 q 56 365 57 285 m 499 1558 q 549 1619 518 1598 q 615 1643 581 1641 q 682 1628 650 1645 q 734 1571 713 1610 l 823 1396 q 822 1341 840 1363 q 775 1312 804 1320 q 715 1311 746 1303 q 671 1345 684 1318 l 613 1480 l 548 1332 q 513 1308 540 1313 q 461 1311 487 1303 q 420 1337 435 1318 q 416 1383 404 1356 l 499 1558 z "},"":{"ha":326,"x_min":-245,"x_max":376,"o":"m 96 762 q 123 815 95 795 q 183 836 151 836 q 232 819 210 836 q 256 762 254 802 q 270 397 266 579 q 259 31 274 214 q 238 -105 254 -38 q 192 -224 222 -172 q 113 -309 161 -277 q -7 -342 65 -342 q -92 -329 -52 -342 q -163 -292 -132 -316 q -215 -234 -194 -269 q -243 -155 -236 -199 q -239 -123 -245 -137 q -221 -98 -233 -109 q -193 -83 -209 -88 q -160 -77 -176 -77 q -117 -90 -137 -77 q -90 -129 -96 -102 q -63 -170 -83 -156 q -20 -183 -43 -183 q 39 -157 16 -183 q 75 -94 61 -130 q 94 -18 88 -57 q 102 47 99 22 q 111 220 110 129 q 111 405 113 312 q 104 589 109 498 q 96 762 100 681 m 41 1105 q 94 1168 60 1147 q 164 1190 129 1190 q 227 1172 197 1190 q 275 1118 256 1154 l 365 943 q 372 906 376 922 q 355 878 368 890 q 323 861 342 867 q 285 854 304 854 q 241 863 262 854 q 213 892 221 872 l 155 1027 l 90 879 q 68 859 83 865 q 35 853 54 853 q 1 859 19 853 q -28 874 -16 864 q -45 899 -41 884 q -42 930 -50 913 l 41 1105 z "},"":{"ha":883,"x_min":56,"x_max":831,"o":"m 817 123 q 829 79 831 102 q 814 37 826 56 q 781 7 802 19 q 741 -5 761 -5 q 707 4 723 -5 q 678 37 690 14 l 369 600 l 232 448 l 232 92 q 204 24 232 47 q 142 1 176 1 q 83 24 110 1 q 56 94 56 46 l 60 1192 q 86 1259 60 1236 q 144 1282 113 1282 q 199 1259 175 1282 q 224 1192 224 1237 q 224 1072 224 1139 q 224 934 224 1005 q 224 795 224 863 q 227 675 225 728 l 694 1251 q 753 1283 722 1283 q 791 1269 773 1283 q 817 1234 808 1255 q 825 1190 826 1214 q 808 1145 825 1165 l 480 735 q 495 703 480 734 q 535 622 510 671 q 594 509 560 572 q 665 378 628 446 q 741 245 703 311 q 817 123 780 179 m 524 -47 q 547 -134 540 -83 q 550 -239 555 -186 q 526 -340 545 -292 q 471 -415 507 -388 q 420 -427 450 -431 q 366 -406 389 -422 q 334 -366 343 -389 q 349 -319 326 -342 q 384 -264 374 -293 q 393 -207 393 -235 q 385 -155 392 -179 q 373 -115 378 -130 q 380 -62 362 -85 q 426 -28 397 -39 q 484 -21 454 -18 q 524 -47 513 -24 z "},"":{"ha":711,"x_min":56,"x_max":663,"o":"m 643 141 q 652 61 663 96 q 612 10 640 26 q 551 5 585 -5 q 492 65 517 16 l 267 518 l 231 494 q 230 378 231 445 q 229 248 229 311 q 229 135 229 184 q 228 71 229 85 q 199 14 225 34 q 143 -6 174 -5 q 87 11 113 -7 q 61 65 62 28 q 58 212 60 127 q 56 393 57 296 q 56 595 56 490 q 56 804 56 700 q 57 1008 56 909 q 61 1191 58 1107 q 87 1262 62 1240 q 143 1282 113 1284 q 199 1257 174 1280 q 225 1191 224 1234 q 228 1072 228 1138 q 228 935 228 1005 q 227 799 228 865 q 228 680 227 732 l 448 827 q 537 857 500 863 q 590 827 574 852 q 601 768 606 802 q 563 712 595 734 l 414 612 q 425 587 414 610 q 454 526 435 563 q 497 440 473 488 q 546 340 521 392 q 596 237 571 289 q 643 141 621 186 m 437 -47 q 460 -134 453 -83 q 463 -239 468 -186 q 439 -340 458 -292 q 384 -415 420 -388 q 333 -427 363 -431 q 279 -406 302 -422 q 248 -366 256 -389 q 262 -319 239 -342 q 297 -264 288 -293 q 306 -207 307 -235 q 298 -155 305 -179 q 286 -115 292 -130 q 293 -62 275 -85 q 339 -28 311 -39 q 397 -21 368 -18 q 437 -47 426 -24 z "},"":{"ha":713,"x_min":53,"x_max":661,"o":"m 639 141 q 659 90 658 114 q 650 47 661 65 q 621 18 640 28 q 579 7 602 7 q 532 22 556 8 q 488 65 507 35 l 263 410 l 227 372 q 226 275 227 323 q 225 187 225 228 q 225 116 225 146 q 224 71 225 85 q 195 14 221 34 q 139 -6 170 -5 q 83 11 109 -7 q 57 65 58 28 q 56 450 53 254 q 57 852 60 646 q 82 923 57 901 q 138 943 107 945 q 194 918 168 941 q 221 852 220 895 q 223 779 222 823 q 224 692 224 735 q 224 616 224 650 q 224 571 224 582 l 506 879 q 571 911 538 914 q 624 884 604 907 q 646 825 644 860 q 621 764 648 791 l 382 519 q 406 480 382 517 q 468 389 430 444 q 551 269 506 335 q 639 141 597 203 z "},"":{"ha":787,"x_min":54,"x_max":732,"o":"m 658 163 q 711 138 692 163 q 731 83 730 113 q 715 28 732 53 q 658 3 697 3 l 190 3 q 117 15 144 3 q 77 47 91 27 q 58 91 62 66 q 54 140 54 115 l 56 1180 q 81 1257 56 1232 q 136 1282 106 1282 q 191 1257 165 1282 q 216 1183 216 1232 l 216 163 l 658 163 m 423 1590 q 474 1603 445 1610 q 524 1575 503 1596 q 552 1527 545 1554 q 536 1477 559 1499 l 369 1322 q 317 1308 347 1302 q 263 1332 286 1313 q 234 1379 240 1351 q 254 1431 228 1407 l 423 1590 z "},"":{"ha":270,"x_min":-38,"x_max":293,"o":"m 216 91 q 188 20 216 45 q 129 -5 160 -5 q 77 18 100 -5 q 54 91 54 41 l 56 1183 q 80 1259 56 1234 q 136 1284 104 1284 q 191 1259 165 1284 q 216 1185 216 1234 l 216 91 m 157 1586 q 208 1599 179 1606 q 258 1571 237 1592 q 286 1522 279 1550 q 270 1473 293 1495 l 103 1318 q 51 1303 81 1298 q -3 1328 20 1309 q -32 1375 -26 1347 q -12 1427 -38 1402 l 157 1586 z "},"":{"ha":787,"x_min":54,"x_max":732,"o":"m 658 163 q 711 138 692 163 q 731 83 730 113 q 715 28 732 53 q 658 3 697 3 l 190 3 q 117 15 144 3 q 77 47 91 27 q 58 91 62 66 q 54 140 54 115 l 56 1180 q 81 1257 56 1232 q 136 1282 106 1282 q 191 1257 165 1282 q 216 1183 216 1232 l 216 163 l 658 163 m 475 -47 q 498 -134 491 -83 q 501 -239 506 -186 q 477 -340 496 -292 q 422 -415 458 -388 q 371 -427 401 -431 q 317 -406 340 -422 q 286 -366 294 -389 q 300 -319 277 -342 q 335 -264 326 -293 q 344 -207 345 -235 q 336 -155 343 -179 q 324 -115 330 -130 q 331 -62 313 -85 q 377 -28 349 -39 q 435 -21 406 -18 q 475 -47 464 -24 z "},"":{"ha":270,"x_min":18,"x_max":248,"o":"m 216 91 q 188 20 216 45 q 129 -5 160 -5 q 77 18 100 -5 q 54 91 54 41 l 56 1183 q 80 1259 56 1234 q 136 1284 104 1284 q 191 1259 165 1284 q 216 1185 216 1234 l 216 91 m 217 -47 q 241 -134 233 -83 q 243 -239 248 -186 q 220 -340 239 -292 q 164 -415 201 -388 q 113 -427 144 -431 q 60 -406 83 -422 q 28 -366 37 -389 q 42 -319 19 -342 q 77 -264 68 -293 q 86 -207 87 -235 q 79 -155 85 -179 q 66 -115 72 -130 q 73 -62 56 -85 q 119 -28 91 -39 q 177 -21 148 -18 q 217 -47 206 -24 z "},"":{"ha":787,"x_min":54,"x_max":732,"o":"m 658 163 q 711 138 692 163 q 731 83 730 113 q 715 28 732 53 q 658 3 697 3 l 190 3 q 117 15 144 3 q 77 47 91 27 q 58 91 62 66 q 54 140 54 115 l 56 1180 q 81 1257 56 1232 q 136 1282 106 1282 q 191 1257 165 1282 q 216 1183 216 1232 l 216 163 l 658 163 m 538 1035 q 562 948 555 1000 q 565 844 570 897 q 541 743 560 791 q 486 667 522 694 q 435 656 465 651 q 381 677 404 661 q 349 718 358 693 q 363 764 340 742 q 399 819 389 789 q 408 876 408 848 q 400 928 407 903 q 388 967 393 952 q 395 1020 377 997 q 441 1054 412 1043 q 498 1061 469 1065 q 538 1035 528 1058 z "},"":{"ha":600,"x_min":54,"x_max":547,"o":"m 216 91 q 188 20 216 45 q 129 -5 160 -5 q 77 18 100 -5 q 54 91 54 41 l 56 1183 q 80 1259 56 1234 q 136 1284 104 1284 q 191 1259 165 1284 q 216 1185 216 1234 l 216 91 m 515 1059 q 539 972 532 1024 q 542 868 547 921 q 518 767 537 815 q 463 692 499 719 q 412 680 442 675 q 358 701 381 685 q 326 742 335 718 q 340 788 317 766 q 376 843 366 814 q 385 900 385 872 q 377 952 384 928 q 365 991 370 977 q 372 1044 354 1021 q 418 1078 389 1067 q 475 1086 446 1089 q 515 1059 505 1082 z "},"":{"ha":787,"x_min":54,"x_max":732,"o":"m 658 163 q 711 138 692 163 q 731 83 730 113 q 715 28 732 53 q 658 3 697 3 l 190 3 q 117 15 144 3 q 77 47 91 27 q 58 91 62 66 q 54 140 54 115 l 56 1180 q 81 1257 56 1232 q 136 1282 106 1282 q 191 1257 165 1282 q 216 1183 216 1232 l 216 163 l 658 163 m 380 587 q 463 568 431 594 q 500 503 494 541 q 485 429 506 465 q 410 382 464 393 q 326 399 358 372 q 288 467 294 427 q 302 543 281 506 q 380 587 324 579 z "},"":{"ha":594,"x_min":54,"x_max":544,"o":"m 216 91 q 188 20 216 45 q 129 -5 160 -5 q 77 18 100 -5 q 54 91 54 41 l 56 1183 q 80 1259 56 1234 q 136 1284 104 1284 q 191 1259 165 1284 q 216 1185 216 1234 l 216 91 m 418 587 q 500 568 469 594 q 538 503 532 541 q 523 429 544 465 q 448 382 502 393 q 364 399 396 372 q 326 467 332 427 q 340 543 319 506 q 418 587 362 579 z "},"":{"ha":914,"x_min":50,"x_max":860,"o":"m 182 302 q 129 286 157 278 q 81 315 100 293 q 56 366 61 336 q 72 416 50 396 l 182 522 l 183 1180 q 208 1257 183 1232 q 263 1282 233 1282 q 318 1257 293 1282 q 343 1183 343 1232 l 343 675 l 420 750 q 475 768 446 774 q 524 740 505 762 q 547 686 544 718 q 526 631 551 655 l 343 456 l 343 163 l 785 163 q 838 138 819 163 q 859 83 857 113 q 842 28 860 53 q 785 3 825 3 l 317 3 q 245 15 271 3 q 204 47 218 27 q 186 91 190 66 q 182 140 182 115 l 182 302 z "},"":{"ha":659,"x_min":54,"x_max":606,"o":"m 165 419 q 111 414 137 401 q 69 453 84 427 q 56 509 54 479 q 83 555 57 538 l 237 650 l 237 1183 q 262 1259 237 1234 q 317 1284 288 1284 q 372 1259 347 1284 q 397 1185 397 1234 l 397 749 l 492 807 q 551 814 524 826 q 592 775 578 802 q 604 718 606 749 q 571 669 601 688 l 397 562 l 397 91 q 372 22 397 47 q 317 -5 347 -3 q 261 16 286 -7 q 236 91 236 38 l 236 463 l 165 419 z "},"":{"ha":936,"x_min":54,"x_max":880,"o":"m 214 81 q 189 23 216 43 q 130 3 161 3 q 81 20 103 3 q 58 77 58 38 l 54 1153 q 65 1204 54 1181 q 94 1243 76 1227 q 136 1267 113 1259 q 184 1276 160 1276 q 258 1255 222 1276 q 315 1187 293 1234 l 719 281 l 707 1184 q 731 1257 707 1233 q 787 1280 755 1280 q 844 1256 818 1280 q 871 1184 871 1232 l 880 99 q 870 60 880 77 q 842 28 860 42 q 802 7 825 15 q 757 0 780 0 q 694 17 724 0 q 646 72 663 34 l 212 1031 q 210 933 210 1002 q 209 773 209 864 q 209 579 209 682 q 210 380 209 476 q 212 205 212 285 q 214 81 213 126 m 498 1590 q 549 1603 519 1610 q 599 1575 578 1596 q 627 1527 620 1554 q 610 1477 633 1499 l 444 1322 q 391 1308 422 1302 q 338 1332 361 1313 q 309 1379 315 1351 q 328 1431 302 1407 l 498 1590 z "},"":{"ha":741,"x_min":56,"x_max":686,"o":"m 385 659 q 294 635 334 662 q 217 574 254 609 l 217 91 q 192 22 217 47 q 136 -5 167 -3 q 81 16 106 -7 q 56 91 56 38 l 57 747 q 82 812 57 789 q 137 837 107 834 q 192 823 167 840 q 217 769 217 806 q 297 810 254 792 q 393 831 340 829 q 513 804 464 834 q 593 726 562 774 q 643 617 625 677 q 669 500 661 557 q 681 383 677 444 q 686 266 685 323 q 686 158 686 209 q 684 68 685 107 q 656 16 682 34 q 598 -4 629 -3 q 542 12 567 -5 q 518 65 517 28 q 520 133 519 87 q 519 237 521 179 q 513 359 518 296 q 500 480 509 423 q 490 536 496 506 q 471 593 484 567 q 438 639 458 620 q 385 659 418 658 m 400 1145 q 451 1158 422 1165 q 501 1131 480 1152 q 529 1082 522 1109 q 513 1032 536 1054 l 346 878 q 294 863 324 857 q 240 887 263 868 q 211 934 217 906 q 231 986 205 962 l 400 1145 z "},"":{"ha":936,"x_min":54,"x_max":880,"o":"m 214 81 q 189 23 216 43 q 130 3 161 3 q 81 20 103 3 q 58 77 58 38 l 54 1153 q 65 1204 54 1181 q 94 1243 76 1227 q 136 1267 113 1259 q 184 1276 160 1276 q 258 1255 222 1276 q 315 1187 293 1234 l 719 281 l 707 1184 q 731 1257 707 1233 q 787 1280 755 1280 q 844 1256 818 1280 q 871 1184 871 1232 l 880 99 q 870 60 880 77 q 842 28 860 42 q 802 7 825 15 q 757 0 780 0 q 694 17 724 0 q 646 72 663 34 l 212 1031 q 210 933 210 1002 q 209 773 209 864 q 209 579 209 682 q 210 380 209 476 q 212 205 212 285 q 214 81 213 126 m 549 -47 q 573 -134 566 -83 q 576 -239 581 -186 q 552 -340 571 -292 q 496 -415 533 -388 q 446 -427 476 -431 q 392 -406 415 -422 q 360 -366 369 -389 q 374 -319 351 -342 q 410 -264 400 -293 q 418 -207 419 -235 q 411 -155 418 -179 q 399 -115 404 -130 q 406 -62 388 -85 q 452 -28 423 -39 q 509 -21 480 -18 q 549 -47 538 -24 z "},"":{"ha":741,"x_min":56,"x_max":686,"o":"m 385 659 q 294 635 334 662 q 217 574 254 609 l 217 91 q 192 22 217 47 q 136 -5 167 -3 q 81 16 106 -7 q 56 91 56 38 l 57 747 q 82 812 57 789 q 137 837 107 834 q 192 823 167 840 q 217 769 217 806 q 297 810 254 792 q 393 831 340 829 q 513 804 464 834 q 593 726 562 774 q 643 617 625 677 q 669 500 661 557 q 681 383 677 444 q 686 266 685 323 q 686 158 686 209 q 684 68 685 107 q 656 16 682 34 q 598 -4 629 -3 q 542 12 567 -5 q 518 65 517 28 q 520 133 519 87 q 519 237 521 179 q 513 359 518 296 q 500 480 509 423 q 490 536 496 506 q 471 593 484 567 q 438 639 458 620 q 385 659 418 658 m 452 -47 q 475 -134 468 -83 q 478 -239 483 -186 q 454 -340 473 -292 q 399 -415 435 -388 q 348 -427 378 -431 q 294 -406 317 -422 q 262 -366 271 -389 q 277 -319 254 -342 q 312 -264 302 -293 q 321 -207 321 -235 q 313 -155 320 -179 q 301 -115 307 -130 q 308 -62 290 -85 q 354 -28 326 -39 q 412 -21 382 -18 q 452 -47 441 -24 z "},"":{"ha":936,"x_min":54,"x_max":880,"o":"m 214 81 q 189 23 216 43 q 130 3 161 3 q 81 20 103 3 q 58 77 58 38 l 54 1153 q 65 1204 54 1181 q 94 1243 76 1227 q 136 1267 113 1259 q 184 1276 160 1276 q 258 1255 222 1276 q 315 1187 293 1234 l 719 281 l 707 1184 q 731 1257 707 1233 q 787 1280 755 1280 q 844 1256 818 1280 q 871 1184 871 1232 l 880 99 q 870 60 880 77 q 842 28 860 42 q 802 7 825 15 q 757 0 780 0 q 694 17 724 0 q 646 72 663 34 l 212 1031 q 210 933 210 1002 q 209 773 209 864 q 209 579 209 682 q 210 380 209 476 q 212 205 212 285 q 214 81 213 126 m 590 1382 q 540 1321 571 1343 q 474 1297 509 1299 q 408 1314 439 1295 q 355 1370 376 1332 l 266 1545 q 259 1584 255 1567 q 275 1615 263 1602 q 307 1634 288 1628 q 346 1639 327 1641 q 382 1627 365 1637 q 410 1595 400 1617 l 468 1461 l 533 1609 q 574 1643 545 1637 q 629 1639 602 1649 q 670 1607 655 1629 q 673 1557 685 1584 l 590 1382 z "},"":{"ha":741,"x_min":56,"x_max":686,"o":"m 385 659 q 294 635 334 662 q 217 574 254 609 l 217 91 q 192 22 217 47 q 136 -5 167 -3 q 81 16 106 -7 q 56 91 56 38 l 57 747 q 82 812 57 789 q 137 837 107 834 q 192 823 167 840 q 217 769 217 806 q 297 810 254 792 q 393 831 340 829 q 513 804 464 834 q 593 726 562 774 q 643 617 625 677 q 669 500 661 557 q 681 383 677 444 q 686 266 685 323 q 686 158 686 209 q 684 68 685 107 q 656 16 682 34 q 598 -4 629 -3 q 542 12 567 -5 q 518 65 517 28 q 520 133 519 87 q 519 237 521 179 q 513 359 518 296 q 500 480 509 423 q 490 536 496 506 q 471 593 484 567 q 438 639 458 620 q 385 659 418 658 m 492 937 q 442 876 473 898 q 376 852 411 854 q 310 869 342 850 q 258 925 278 887 l 168 1100 q 161 1139 157 1122 q 178 1170 165 1157 q 210 1190 190 1183 q 248 1194 229 1196 q 285 1182 267 1192 q 312 1150 302 1172 l 370 1016 l 435 1164 q 476 1198 448 1192 q 531 1194 505 1204 q 572 1162 557 1184 q 575 1112 587 1139 l 492 937 z "},"":{"ha":741,"x_min":49,"x_max":686,"o":"m 385 659 q 294 635 334 662 q 217 574 254 609 l 217 91 q 192 22 217 47 q 136 -5 167 -3 q 81 16 106 -7 q 56 91 56 38 l 57 747 q 82 812 57 789 q 137 837 107 834 q 192 823 167 840 q 217 769 217 806 q 297 810 254 792 q 393 831 340 829 q 513 804 464 834 q 593 726 562 774 q 643 617 625 677 q 669 500 661 557 q 681 383 677 444 q 686 266 685 323 q 686 158 686 209 q 684 68 685 107 q 656 16 682 34 q 598 -4 629 -3 q 542 12 567 -5 q 518 65 517 28 q 520 133 519 87 q 519 237 521 179 q 513 359 518 296 q 500 480 509 423 q 490 536 496 506 q 471 593 484 567 q 438 639 458 620 q 385 659 418 658 m 247 1261 q 271 1175 263 1226 q 273 1070 278 1123 q 250 969 269 1017 q 194 894 231 921 q 143 882 174 878 q 90 903 113 887 q 58 943 66 920 q 72 990 49 967 q 107 1045 98 1016 q 116 1102 117 1074 q 109 1154 115 1130 q 96 1194 102 1179 q 103 1246 85 1223 q 149 1280 121 1270 q 207 1288 178 1291 q 247 1261 236 1284 z "},"":{"ha":935,"x_min":56,"x_max":880,"o":"m 473 0 q 301 48 378 1 q 170 174 224 95 q 85 360 115 254 q 56 587 56 467 q 81 842 56 716 q 159 1065 107 967 q 291 1221 212 1162 q 477 1275 370 1280 q 651 1213 576 1271 q 776 1063 726 1156 q 852 850 826 970 q 879 604 878 731 q 852 380 880 490 q 772 186 825 271 q 643 50 719 102 q 473 0 567 -1 m 473 1107 q 365 1059 412 1105 q 286 941 317 1013 q 237 777 254 868 q 220 597 220 686 q 233 435 220 514 q 277 293 247 355 q 357 193 308 231 q 476 155 406 155 q 587 197 541 155 q 663 304 633 239 q 705 446 692 369 q 719 593 719 524 q 713 702 719 644 q 694 817 707 760 q 663 928 682 875 q 616 1021 643 981 q 553 1084 589 1061 q 473 1107 518 1108 m 225 1335 q 176 1360 191 1335 q 161 1414 160 1385 q 178 1468 161 1443 q 225 1493 195 1493 l 707 1493 q 760 1468 743 1493 q 774 1414 776 1443 q 755 1360 773 1385 q 701 1335 736 1335 l 225 1335 z "},"":{"ha":799,"x_min":53,"x_max":746,"o":"m 381 7 q 237 45 298 11 q 136 132 176 79 q 75 253 95 186 q 56 389 56 320 q 74 548 53 468 q 141 692 95 628 q 256 794 187 755 q 419 827 326 833 q 564 785 502 823 q 667 686 627 746 q 727 551 708 627 q 744 399 746 476 q 718 250 742 323 q 649 122 694 178 q 536 35 604 66 q 381 7 469 3 l 381 7 m 412 670 q 345 662 380 674 q 280 617 309 650 q 232 529 251 585 q 213 391 213 473 q 222 309 213 351 q 254 231 232 266 q 311 174 275 197 q 397 152 346 152 q 504 189 463 153 q 565 280 545 225 q 583 399 585 335 q 562 522 582 464 q 505 621 543 579 q 412 670 467 662 l 412 670 m 157 890 q 108 915 123 890 q 93 969 92 940 q 111 1023 94 998 q 157 1048 127 1048 l 639 1048 q 692 1023 675 1048 q 707 969 708 998 q 687 915 705 940 q 633 890 669 890 l 157 890 z "},"":{"ha":935,"x_min":56,"x_max":880,"o":"m 473 0 q 301 48 378 1 q 170 174 224 95 q 85 360 115 254 q 56 587 56 467 q 81 842 56 716 q 159 1065 107 967 q 291 1221 212 1162 q 477 1275 370 1280 q 651 1213 576 1271 q 776 1063 726 1156 q 852 850 826 970 q 879 604 878 731 q 852 380 880 490 q 772 186 825 271 q 643 50 719 102 q 473 0 567 -1 m 473 1107 q 365 1059 412 1105 q 286 941 317 1013 q 237 777 254 868 q 220 597 220 686 q 233 435 220 514 q 277 293 247 355 q 357 193 308 231 q 476 155 406 155 q 587 197 541 155 q 663 304 633 239 q 705 446 692 369 q 719 593 719 524 q 713 702 719 644 q 694 817 707 760 q 663 928 682 875 q 616 1021 643 981 q 553 1084 589 1061 q 473 1107 518 1108 m 205 1495 q 216 1538 199 1522 q 255 1557 232 1554 q 301 1549 278 1560 q 332 1511 324 1538 q 380 1440 349 1462 q 450 1420 412 1419 q 496 1426 472 1420 q 541 1443 519 1431 q 578 1475 562 1455 q 601 1525 594 1495 q 631 1560 608 1550 q 678 1567 654 1571 q 719 1546 703 1563 q 728 1497 735 1529 q 687 1408 716 1444 q 621 1348 658 1371 q 540 1313 583 1324 q 456 1301 496 1302 q 365 1314 407 1299 q 290 1353 323 1328 q 235 1415 258 1378 q 205 1495 213 1451 z "},"":{"ha":799,"x_min":53,"x_max":746,"o":"m 381 7 q 237 45 298 11 q 136 132 176 79 q 75 253 95 186 q 56 389 56 320 q 74 548 53 468 q 141 692 95 628 q 256 794 187 755 q 419 827 326 833 q 564 785 502 823 q 667 686 627 746 q 727 551 708 627 q 744 399 746 476 q 718 250 742 323 q 649 122 694 178 q 536 35 604 66 q 381 7 469 3 l 381 7 m 412 670 q 345 662 380 674 q 280 617 309 650 q 232 529 251 585 q 213 391 213 473 q 222 309 213 351 q 254 231 232 266 q 311 174 275 197 q 397 152 346 152 q 504 189 463 153 q 565 280 545 225 q 583 399 585 335 q 562 522 582 464 q 505 621 543 579 q 412 670 467 662 l 412 670 m 137 1050 q 148 1093 132 1077 q 187 1112 164 1109 q 233 1104 210 1115 q 264 1066 256 1093 q 313 996 281 1017 q 382 975 345 974 q 428 981 404 975 q 473 998 452 986 q 510 1030 494 1010 q 533 1080 526 1050 q 563 1116 540 1105 q 610 1122 586 1126 q 651 1101 635 1118 q 661 1053 667 1084 q 619 963 648 1000 q 553 903 590 926 q 472 868 515 879 q 388 856 429 857 q 297 869 339 854 q 222 908 255 883 q 168 970 190 933 q 137 1050 145 1006 z "},"":{"ha":935,"x_min":56,"x_max":880,"o":"m 473 0 q 301 48 378 1 q 170 174 224 95 q 85 360 115 254 q 56 587 56 467 q 81 842 56 716 q 159 1065 107 967 q 291 1221 212 1162 q 477 1275 370 1280 q 651 1213 576 1271 q 776 1063 726 1156 q 852 850 826 970 q 879 604 878 731 q 852 380 880 490 q 772 186 825 271 q 643 50 719 102 q 473 0 567 -1 m 473 1107 q 365 1059 412 1105 q 286 941 317 1013 q 237 777 254 868 q 220 597 220 686 q 233 435 220 514 q 277 293 247 355 q 357 193 308 231 q 476 155 406 155 q 587 197 541 155 q 663 304 633 239 q 705 446 692 369 q 719 593 719 524 q 713 702 719 644 q 694 817 707 760 q 663 928 682 875 q 616 1021 643 981 q 553 1084 589 1061 q 473 1107 518 1108 m 363 1590 q 414 1603 385 1610 q 465 1575 444 1596 q 492 1527 486 1554 q 476 1477 499 1499 l 309 1322 q 257 1308 288 1302 q 203 1332 227 1313 q 174 1379 180 1351 q 194 1431 168 1407 l 363 1590 m 631 1572 q 682 1586 652 1592 q 732 1558 711 1579 q 760 1509 753 1537 q 743 1459 766 1481 l 576 1305 q 524 1290 555 1284 q 471 1314 494 1295 q 441 1361 448 1333 q 461 1413 435 1389 l 631 1572 z "},"":{"ha":799,"x_min":53,"x_max":746,"o":"m 381 7 q 237 45 298 11 q 136 132 176 79 q 75 253 95 186 q 56 389 56 320 q 74 548 53 468 q 141 692 95 628 q 256 794 187 755 q 419 827 326 833 q 564 785 502 823 q 667 686 627 746 q 727 551 708 627 q 744 399 746 476 q 718 250 742 323 q 649 122 694 178 q 536 35 604 66 q 381 7 469 3 l 381 7 m 412 670 q 345 662 380 674 q 280 617 309 650 q 232 529 251 585 q 213 391 213 473 q 222 309 213 351 q 254 231 232 266 q 311 174 275 197 q 397 152 346 152 q 504 189 463 153 q 565 280 545 225 q 583 399 585 335 q 562 522 582 464 q 505 621 543 579 q 412 670 467 662 l 412 670 m 296 1145 q 347 1158 317 1165 q 397 1131 376 1152 q 425 1082 418 1109 q 408 1032 431 1054 l 241 878 q 189 863 220 857 q 136 887 159 868 q 106 934 113 906 q 126 986 100 962 l 296 1145 m 563 1127 q 614 1141 585 1147 q 664 1113 643 1134 q 692 1064 685 1092 q 675 1015 699 1036 l 509 860 q 456 845 487 840 q 403 869 426 850 q 374 916 380 888 q 393 968 368 944 l 563 1127 z "},"":{"ha":1164,"x_min":54,"x_max":1109,"o":"m 1029 5 q 878 2 960 4 q 718 -1 796 0 q 574 -2 640 -1 q 472 -3 509 -3 q 300 44 377 -3 q 168 172 222 91 q 84 359 114 252 q 54 587 54 467 q 80 838 54 716 q 158 1056 106 960 q 290 1211 210 1152 q 476 1275 369 1271 q 747 1280 604 1280 q 1029 1279 890 1279 q 1089 1255 1070 1279 q 1109 1201 1108 1230 q 1092 1147 1109 1172 q 1040 1122 1074 1122 q 930 1122 997 1122 q 800 1123 864 1122 q 684 1124 735 1124 q 620 1124 633 1124 l 620 720 l 906 720 q 954 694 940 720 q 966 638 968 669 q 949 583 964 608 q 910 560 935 559 q 827 562 897 562 q 620 560 757 562 l 620 161 q 652 161 625 161 q 718 161 680 161 q 803 161 757 161 q 894 161 849 161 q 977 161 939 161 q 1036 161 1015 161 q 1091 138 1073 161 q 1109 85 1109 114 q 1088 31 1108 56 q 1029 5 1069 7 m 467 155 l 467 187 l 460 1105 q 357 1053 401 1100 q 281 933 312 1005 q 235 773 251 861 q 218 597 218 685 q 232 437 218 515 q 275 297 245 359 q 351 196 304 235 q 467 155 399 157 z "},"":{"ha":1166,"x_min":54,"x_max":1116,"o":"m 780 -7 q 672 12 720 -7 q 586 64 624 31 q 494 18 545 34 q 380 4 442 1 q 236 43 297 8 q 134 131 175 77 q 74 252 94 184 q 54 389 54 320 q 76 548 54 468 q 142 692 98 628 q 256 794 187 755 q 418 827 324 833 q 513 808 469 825 q 593 764 557 791 q 684 817 633 798 q 799 836 735 836 q 923 809 867 836 q 1019 738 979 783 q 1080 634 1058 693 q 1101 511 1101 575 q 1097 475 1101 495 q 1084 437 1093 454 q 1061 408 1076 420 q 1027 396 1047 396 l 613 382 q 628 298 616 342 q 663 220 640 255 q 722 163 686 184 q 803 142 757 141 q 863 155 836 144 q 911 182 890 165 q 948 216 932 198 q 977 250 964 235 q 1034 285 1002 283 q 1086 268 1065 286 q 1112 218 1108 250 q 1088 156 1116 187 q 1036 102 1065 130 q 970 49 1008 73 q 886 9 933 24 q 780 -7 840 -7 m 496 184 q 461 294 473 236 q 449 411 449 351 q 460 524 449 468 q 494 629 471 579 q 458 659 475 648 q 411 670 441 670 q 343 657 378 670 q 279 612 308 644 q 231 527 250 581 q 212 391 212 473 q 221 309 212 351 q 252 231 231 266 q 309 174 274 197 q 396 152 345 152 q 452 161 427 152 q 496 184 476 170 m 936 557 q 889 659 929 624 q 800 690 849 693 q 702 653 749 688 q 631 545 655 618 q 686 543 650 544 q 764 542 722 541 q 852 546 807 543 q 936 557 898 549 z "},"":{"ha":830,"x_min":56,"x_max":781,"o":"m 217 91 q 192 22 217 47 q 136 -5 167 -3 q 81 16 106 -7 q 56 91 56 38 l 57 1149 q 100 1247 57 1217 q 236 1280 142 1278 q 431 1266 334 1283 q 606 1204 529 1249 q 728 1082 682 1158 q 768 888 774 1005 q 733 745 764 807 q 654 636 703 682 q 545 560 606 590 q 414 515 483 530 l 758 127 q 775 71 781 102 q 747 19 769 41 q 696 -6 726 -3 q 639 20 666 -9 l 217 495 l 217 91 m 217 666 q 342 663 274 654 q 469 703 410 673 q 568 784 528 734 q 609 901 608 834 q 573 1023 610 978 q 477 1092 536 1069 q 350 1119 419 1115 q 217 1116 281 1123 l 217 666 m 445 1590 q 496 1603 467 1610 q 546 1575 525 1596 q 574 1527 567 1554 q 557 1477 581 1499 l 391 1322 q 338 1308 369 1302 q 285 1332 308 1313 q 256 1379 262 1351 q 275 1431 250 1407 l 445 1590 z "},"":{"ha":661,"x_min":54,"x_max":608,"o":"m 217 96 q 189 30 217 54 q 129 5 160 5 q 77 27 99 5 q 54 96 54 49 l 54 726 q 81 806 54 779 q 140 833 107 833 q 181 821 161 833 q 212 781 201 808 l 212 783 q 291 821 245 808 q 378 833 336 833 l 391 833 q 486 810 445 831 q 555 752 528 788 q 595 669 582 716 q 605 571 608 623 q 579 532 604 545 q 528 518 555 518 q 484 530 503 518 q 463 567 464 541 q 444 646 460 614 q 380 678 427 677 q 324 665 351 678 q 275 627 297 651 q 239 571 254 602 q 220 505 224 540 q 212 398 213 453 q 212 290 210 343 q 215 186 213 236 q 217 96 217 137 m 361 1145 q 412 1158 382 1165 q 462 1131 441 1152 q 490 1082 483 1109 q 473 1032 496 1054 l 307 878 q 254 863 285 857 q 201 887 224 868 q 172 934 178 906 q 191 986 165 962 l 361 1145 z "},"":{"ha":830,"x_min":56,"x_max":781,"o":"m 217 91 q 192 22 217 47 q 136 -5 167 -3 q 81 16 106 -7 q 56 91 56 38 l 57 1149 q 100 1247 57 1217 q 236 1280 142 1278 q 431 1266 334 1283 q 606 1204 529 1249 q 728 1082 682 1158 q 768 888 774 1005 q 733 745 764 807 q 654 636 703 682 q 545 560 606 590 q 414 515 483 530 l 758 127 q 775 71 781 102 q 747 19 769 41 q 696 -6 726 -3 q 639 20 666 -9 l 217 495 l 217 91 m 217 666 q 342 663 274 654 q 469 703 410 673 q 568 784 528 734 q 609 901 608 834 q 573 1023 610 978 q 477 1092 536 1069 q 350 1119 419 1115 q 217 1116 281 1123 l 217 666 m 496 -47 q 520 -134 513 -83 q 523 -239 528 -186 q 499 -340 518 -292 q 444 -415 480 -388 q 393 -427 423 -431 q 339 -406 362 -422 q 307 -366 316 -389 q 321 -319 298 -342 q 357 -264 347 -293 q 366 -207 366 -235 q 358 -155 365 -179 q 346 -115 351 -130 q 353 -62 335 -85 q 399 -28 370 -39 q 456 -21 427 -18 q 496 -47 486 -24 z "},"":{"ha":661,"x_min":54,"x_max":608,"o":"m 217 96 q 189 30 217 54 q 129 5 160 5 q 77 27 99 5 q 54 96 54 49 l 54 726 q 81 806 54 779 q 140 833 107 833 q 181 821 161 833 q 212 781 201 808 l 212 783 q 291 821 245 808 q 378 833 336 833 l 391 833 q 486 810 445 831 q 555 752 528 788 q 595 669 582 716 q 605 571 608 623 q 579 532 604 545 q 528 518 555 518 q 484 530 503 518 q 463 567 464 541 q 444 646 460 614 q 380 678 427 677 q 324 665 351 678 q 275 627 297 651 q 239 571 254 602 q 220 505 224 540 q 212 398 213 453 q 212 290 210 343 q 215 186 213 236 q 217 96 217 137 m 412 -47 q 436 -134 429 -83 q 439 -239 444 -186 q 415 -340 434 -292 q 359 -415 396 -388 q 309 -427 339 -431 q 255 -406 278 -422 q 223 -366 232 -389 q 237 -319 214 -342 q 273 -264 263 -293 q 281 -207 282 -235 q 274 -155 281 -179 q 262 -115 267 -130 q 269 -62 251 -85 q 315 -28 286 -39 q 372 -21 343 -18 q 412 -47 401 -24 z "}}}
